<mxfile>
    <diagram id="8ou6g35wXuh9Xn6P_iHY" name="Page-1">
        <mxGraphModel dx="970" dy="1175" grid="1" gridSize="10" guides="1" tooltips="1" connect="1" arrows="1" fold="1" page="1" pageScale="1" pageWidth="827" pageHeight="1169" math="0" shadow="0">
            <root>
                <mxCell id="0"/>
                <mxCell id="1" parent="0"/>
                <mxCell id="2" value="server/utils.py" style="swimlane;" vertex="1" parent="1">
                    <mxGeometry x="150" y="320" width="620" height="231" as="geometry">
                        <mxRectangle x="150" y="320" width="90" height="23" as="alternateBounds"/>
                    </mxGeometry>
                </mxCell>
                <mxCell id="3" value="&lt;font face=&quot;Courier New&quot;&gt;&lt;span style=&quot;font-size: 13px&quot;&gt;def #&lt;/span&gt;&lt;b&gt;&lt;font style=&quot;font-size: 19px&quot;&gt;rename_page&lt;/font&gt;&lt;/b&gt;&lt;span style=&quot;font-size: 13px&quot;&gt;(user, page_id, new_page_id, project_id):&lt;/span&gt;&lt;/font&gt;" style="text;html=1;strokeColor=none;fillColor=none;align=center;verticalAlign=middle;whiteSpace=wrap;rounded=0;" vertex="1" parent="2">
                    <mxGeometry x="20" y="43" width="530" height="20" as="geometry"/>
                </mxCell>
                <mxCell id="4" value="&lt;div&gt;&lt;ul&gt;&lt;li&gt;&lt;span&gt;Renames the page in S3 storage, which is pretty quick.&amp;nbsp;&lt;/span&gt;&lt;/li&gt;&lt;li&gt;&lt;span&gt;Then updates the page name reference in the project json, again, pretty quick.&lt;/span&gt;&lt;/li&gt;&lt;li&gt;&lt;span&gt;Then it calls this expensive operation&lt;/span&gt;&lt;/li&gt;&lt;/ul&gt;&lt;/div&gt;&lt;div&gt;&lt;span&gt;&lt;br&gt;&lt;/span&gt;&lt;/div&gt;&lt;div&gt;&lt;b&gt;&lt;font style=&quot;font-size: 13px&quot; color=&quot;#ffffff&quot;&gt;#&lt;/font&gt;&lt;font style=&quot;font-size: 13px&quot; color=&quot;#009900&quot;&gt;rename_page_id_ref_across_pages&lt;/font&gt;&lt;/b&gt;(user, project_id, page_id, new_page_id)&lt;/div&gt;&lt;div&gt;&lt;span&gt;&lt;br&gt;&lt;/span&gt;&lt;/div&gt;&lt;div&gt;The above call is very io heavy and this needs to be offloaded as a background process!&lt;span&gt;&lt;br&gt;&lt;/span&gt;&lt;/div&gt;" style="text;html=1;strokeColor=none;fillColor=none;align=left;verticalAlign=middle;whiteSpace=wrap;rounded=0;" vertex="1" parent="2">
                    <mxGeometry x="70" y="70" width="530" height="141" as="geometry"/>
                </mxCell>
                <mxCell id="5" value="server/repair_rename.py" style="swimlane;" vertex="1" parent="1">
                    <mxGeometry x="90" y="600" width="570" height="200" as="geometry">
                        <mxRectangle x="90" y="600" width="90" height="23" as="alternateBounds"/>
                    </mxGeometry>
                </mxCell>
                <mxCell id="6" value="&lt;font face=&quot;Courier New&quot;&gt;&lt;span style=&quot;font-size: 13px&quot;&gt;def #&lt;/span&gt;&lt;b&gt;&lt;font style=&quot;font-size: 18px&quot; color=&quot;#009900&quot;&gt;rename_page_id_ref_across_pages&lt;/font&gt;&lt;/b&gt;&lt;span style=&quot;font-size: 13px&quot;&gt;(user, project_id, page_id, new_page_id)&lt;/span&gt;&lt;/font&gt;" style="text;html=1;strokeColor=none;fillColor=none;align=center;verticalAlign=middle;whiteSpace=wrap;rounded=0;" vertex="1" parent="5">
                    <mxGeometry x="10" y="30" width="450" height="20" as="geometry"/>
                </mxCell>
                <mxCell id="7" value="&lt;div&gt;&lt;div style=&quot;line-height: 24px&quot;&gt;&lt;div style=&quot;color: rgb(212 , 212 , 212) ; font-family: &amp;#34;menlo&amp;#34; , &amp;#34;monaco&amp;#34; , &amp;#34;courier new&amp;#34; , monospace ; font-size: 16px ; background-color: rgb(30 , 30 , 30)&quot;&gt;    &lt;span style=&quot;color: #9cdcfe&quot;&gt;options&lt;/span&gt; = &lt;span style=&quot;color: #4ec9b0&quot;&gt;RenameOptions&lt;/span&gt;(&lt;span style=&quot;color: #9cdcfe&quot;&gt;project_id&lt;/span&gt;=&lt;span style=&quot;color: #9cdcfe&quot;&gt;project_id&lt;/span&gt;,&lt;/div&gt;&lt;div style=&quot;color: rgb(212 , 212 , 212) ; font-family: &amp;#34;menlo&amp;#34; , &amp;#34;monaco&amp;#34; , &amp;#34;courier new&amp;#34; , monospace ; font-size: 16px ; background-color: rgb(30 , 30 , 30)&quot;&gt;                            &lt;span style=&quot;color: #9cdcfe&quot;&gt;&amp;nbsp; &amp;nbsp; &amp;nbsp; &amp;nbsp; &amp;nbsp; &amp;nbsp; &amp;nbsp; &amp;nbsp; &amp;nbsp; &amp;nbsp; &amp;nbsp; &amp;nbsp; page_id&lt;/span&gt;=&lt;span style=&quot;color: #9cdcfe&quot;&gt;page_id&lt;/span&gt;,&lt;/div&gt;&lt;div style=&quot;color: rgb(212 , 212 , 212) ; font-family: &amp;#34;menlo&amp;#34; , &amp;#34;monaco&amp;#34; , &amp;#34;courier new&amp;#34; , monospace ; font-size: 16px ; background-color: rgb(30 , 30 , 30)&quot;&gt;                            &lt;span style=&quot;color: #9cdcfe&quot;&gt;&amp;nbsp; &amp;nbsp; &amp;nbsp; &amp;nbsp; &amp;nbsp; &amp;nbsp; &amp;nbsp; &amp;nbsp; &amp;nbsp; &amp;nbsp; &amp;nbsp; &amp;nbsp; new_page_id&lt;/span&gt;=&lt;span style=&quot;color: #9cdcfe&quot;&gt;new_page_id&lt;/span&gt;)&lt;/div&gt;&lt;div&gt;#&lt;span style=&quot;color: rgb(220 , 220 , 170) ; font-family: &amp;#34;menlo&amp;#34; , &amp;#34;monaco&amp;#34; , &amp;#34;courier new&amp;#34; , monospace ; font-size: 16px ; background-color: rgb(30 , 30 , 30)&quot;&gt;_do_scan_rename&lt;/span&gt;&lt;font color=&quot;#d4d4d4&quot; face=&quot;menlo, monaco, courier new, monospace&quot;&gt;&lt;span style=&quot;font-size: 16px ; background-color: rgb(30 , 30 , 30)&quot;&gt;(&lt;/span&gt;&lt;/font&gt;&lt;span style=&quot;color: rgb(156 , 220 , 254) ; font-family: &amp;#34;menlo&amp;#34; , &amp;#34;monaco&amp;#34; , &amp;#34;courier new&amp;#34; , monospace ; font-size: 16px ; background-color: rgb(30 , 30 , 30)&quot;&gt;user&lt;/span&gt;&lt;font color=&quot;#d4d4d4&quot; face=&quot;menlo, monaco, courier new, monospace&quot;&gt;&lt;span style=&quot;font-size: 16px ; background-color: rgb(30 , 30 , 30)&quot;&gt;, &lt;/span&gt;&lt;/font&gt;&lt;span style=&quot;color: rgb(156 , 220 , 254) ; font-family: &amp;#34;menlo&amp;#34; , &amp;#34;monaco&amp;#34; , &amp;#34;courier new&amp;#34; , monospace ; font-size: 16px ; background-color: rgb(30 , 30 , 30)&quot;&gt;project_id&lt;/span&gt;&lt;font color=&quot;#d4d4d4&quot; face=&quot;menlo, monaco, courier new, monospace&quot;&gt;&lt;span style=&quot;font-size: 16px ; background-color: rgb(30 , 30 , 30)&quot;&gt;, &lt;/span&gt;&lt;/font&gt;&lt;span style=&quot;color: rgb(156 , 220 , 254) ; font-family: &amp;#34;menlo&amp;#34; , &amp;#34;monaco&amp;#34; , &amp;#34;courier new&amp;#34; , monospace ; font-size: 16px ; background-color: rgb(30 , 30 , 30)&quot;&gt;options&lt;/span&gt;&lt;font color=&quot;#d4d4d4&quot; face=&quot;menlo, monaco, courier new, monospace&quot;&gt;&lt;span style=&quot;font-size: 16px ; background-color: rgb(30 , 30 , 30)&quot;&gt;)&lt;/span&gt;&lt;/font&gt;&lt;/div&gt;&lt;/div&gt;&lt;/div&gt;" style="text;html=1;strokeColor=none;fillColor=none;align=left;verticalAlign=middle;whiteSpace=wrap;rounded=0;" vertex="1" parent="5">
                    <mxGeometry x="70" y="90" width="530" height="60" as="geometry"/>
                </mxCell>
                <mxCell id="8" style="edgeStyle=orthogonalEdgeStyle;orthogonalLoop=1;jettySize=auto;html=1;entryX=0;entryY=0.5;entryDx=0;entryDy=0;curved=1;fillColor=#60a917;strokeColor=#2D7600;exitX=0;exitY=0.75;exitDx=0;exitDy=0;" edge="1" parent="1" source="4" target="6">
                    <mxGeometry relative="1" as="geometry"/>
                </mxCell>
                <mxCell id="9" value="app.py" style="swimlane;" vertex="1" parent="1">
                    <mxGeometry x="120" y="10" width="570" height="254" as="geometry">
                        <mxRectangle x="70" y="220" width="90" height="23" as="alternateBounds"/>
                    </mxGeometry>
                </mxCell>
                <mxCell id="10" value="&lt;font face=&quot;Courier New&quot;&gt;&lt;span style=&quot;font-size: 13px&quot;&gt;@app.route('/page/rename/&amp;lt;page_id&amp;gt;/&amp;lt;new_page_id&amp;gt;'&lt;/span&gt;&lt;/font&gt;" style="text;html=1;strokeColor=none;fillColor=none;align=left;verticalAlign=middle;whiteSpace=wrap;rounded=0;" vertex="1" parent="9">
                    <mxGeometry x="10" y="30" width="450" height="20" as="geometry"/>
                </mxCell>
                <mxCell id="12" value="#page_rename" style="shape=image;verticalLabelPosition=bottom;labelBackgroundColor=none;verticalAlign=top;aspect=fixed;imageAspect=0;image=data:image/png,iVBORw0KGgoAAAANSUhEUgAAAggAAADMCAYAAAAWGlvoAAAgAElEQVR4XuxdBViX1xd+6e6UBhUlRAXsRuzE7u6em7OnTqdzdnd3d7eiqKgIKt3d3eX/OYfBREB+zG1/3L77zGfA74t73/v9vvPec95zj5iRkdFHCE1AQEBAQEBAQEBAQEBA4BMExASCIDwPhICYmBgkJSXx8eNH5OfnC6AICFRLBMTFxSElJYWcnJxq2T+hUwIC/yYERCIIEtJykFbRRk5yNArzqvbFFJOQgrSiGiRkFFCQk4GclNh/E37/mrGoqamhWbNmCAgIgJ+fHwoLC7+5sYlLSEJd3wRpCbHIyUitsP9ySqpQ1q6BxPBg5OVkfXPj/NY7LCYuDg19U2SmJiEzJbHC4UhISUPLuDZSYiOQlZrMx+np6cHBwQH37t1DVFTUtw6F0H8BgWqNgEgEQcnIGvqtBiPswUFkRPqJPCAiFpo27aFWpxno57QwT4Te3Svy+cKB/wwCEhISaNmyJfr06YODBw/i7du37En41pq8qgZ6zvkNrhcPI8D1UYXdr9uqMxo7jcStbcsRE+D5rQ3zm++vlKw8+i3ZDs+HV+B+61yF41HTM0Lv+Rvw7ORO+Dy9w8epq6vj119/haenJzZt2vRNPqff/AQKA/jPICASQVCr2xw1e86G37lVSAl4LTI4clpGMB+wBClBb5Ho/RR5aQnIigsR+XzhwH8GAWVlZUyZMgW5ubnYv38/kpOLVmvfWlNQ00TfxVvhcno3/J7fr7D7jXqNQPsJc3FiwViEuD//1ob5zfdXWk4eg1cexLu75/Hm2skKx6NT0wLjd17F9Y2L8ObaiZLjBg4ciJ49e2LZsmXw9fX95vEQBiAgUF0R+AJBEIOEjBxFp6FsWr9CgiCtqoP8tCQUFuSWGaNCjdowH7AYwTd3IMnH5U9hIC0tCUVFOaSkZKKgoKDUNSQlJaCtrYqMjGykpGSUe30FBVnIyEghMTGt3M8p9q6jo4aUlHRkZZUdg6idpuvo62sgOzsP8fEppU6TkqJ+qiEqKgGFheWvzDU0lJGVlYPMzLIhHPpMQUEGYWFx+HxhTzFZZWU5ZGbmclhAXV0JsbFlDbympgrjl5SUXmZIBgYGWLNmDY4fP44rV66Uj5O4BNT0jZEYFlju58paNUjIgNS4KJTpJABFdS3kZWchJ7Ps/emChJ+CmhYK8nNL3MmiYv/HcWKQkJREYWEBPn4WIiG3NnkYcjMz0KBTv7+NIIgRTroGSIoKw8ePn4dpxCCvosZjJdf63+WlUdMzRmpsJAry88pAKKeiBlkFZaTERqKwnM9lFJQhISWFrC/0T1ZRBVKyskiLj6n6FP1+hoSkFD+vHwtLf6fpY3kVdRQW5ENFR79cgkCE9tChQ7h8+TIOHDjwp/sgnCggICDwZQTKJQiSckqo2fsHKBlaozA/BznJsVDQNYPPqWXsQaBwgVaDjtBt4gQJaVl+0SX5PEf446PsJVAxs0PN3t9DXFwSErKKrD0oLMhDcsBrBF5aV+mcaGmpYOvWGQgPj4OBgSZkZaXZwG/ZchFubv4g0tCrV3P0798GEhLiTGLI+G3ceB7Pn3uioKDIUM6Z0x82NjXZ8CckpEJFRR6bNp2Hi4sXpKWl4ODQAIMHt4OysgJf5/37IGzceAGxsUmV9pEO0NJSxaxZfSAuLsb3IxJA7eFDd76PkZE2Jk7sDisrE8YoNTUTx47d5c9zc/Px448D0aBBTQQHR6NuXSMQmTl9+iEOHLjFRKJduwYYNaoTlJXl+Xw65+rV57hwwZlJ0cWLy5iQyMvL8PjoGF1ddbi7B2DBgv2QlBRH48Z1MWZMZ6ipKZP9RkhIDLZvvww/v4gSA9W5c2cOL2zfvp3DC8VNWVsPXWb8DFUdfUjLKUJGXgEFBfm4s2MFPB9d55d480ET0XzgROAj/4estGQ8PrQJno+u/f6SN0D78T+iVuO2bLCC3J7BzLYFHh3cANdLRyApLQNrh15wnLQAIKMuLsar/4f717ERE6XpWzaE07wNkJFX5Hvc3fMr3t+7VHKqTi0rdPtuBTQNa/LnSREh0Dar85d5EOo5OqH9hHkIe/cSRvWbQEpaFrHBvrixaTFiAry4HwZWtug0dSnU9YzocUViRAiurJmL/JwsjNhwCs7HtuHV5SOfcB0xNOjcHy2HTMXZn6ci2u99hVCQwW8z6jvUatIWRFBonsgAv7p8FM7HtiI3KxOmti3Q88c1kJKRY+JSWFCAN1ePweX0XuRmZTBpaDZwPGy7DQaRqeSocMirqiPU4yUu/jqb/2Zcvwm6zvoF8spFJCc2yAd3dv6CKN93IpEdZS1dDPrlABTVNSEpJYOnJ3fg6YkdJeNS1NCG48QFMG/WnslLbJAvjOo1KuNBoBN27tyJ2NhY/Pzzz6VEtfLy8hg6dCh7GG7fvo29e/ciK0vQmYjyPRKOERD4HIFyCYJptxlQr9scEc6nkJ+djhqNe0JBtxa8ji9CatBbaFi1gUHroUjyd0WynyvkNA2gY98d8e/uI9LlLCSl5aGgVweyGnrQbzkIMa+uIT3CB3kZSciIqlzDoKOjim3bZrLhO3LkLhITU9G9ezOIiwPff7+LX0ZkPGllHRREQiUx9O3bin9fsuQQwsJi2TB3794Ux4/fR0xMEjp2tIOdnTl/7uz8ng3znDkD8eFDMP+uqqqIoUMd4Orqg82bL7AxrqyR9+K77/qhXj1TPH36Hs+fe3GfidDcvfsGM2f2Qc2aemz0iRy0alUPpqa6WLv2NHx8wrFgwWA0b26N+/fd8Pq1H7p3b8L9GjbsV+5zixZWMDc3QGBgFJMce3tztG5dD9u2XcaTJ+9w5coKBAZGcp+HDGmPmzddmTx17GiPAQN+hp6eJvchLi4Zt269Yk9Kv36t2RNBJCEpqcirMm7cONjY2GDz5s3w9/cvGbaKth66zloBfYuGeHH+AMfrm/YdA1pBXl77I6L9PqBxn9GQU1JBlN8HiEtIwKaDE3RrW2PflF7ITk9Bkz5j0LT/WLy6fAxxwb5oOXQq1PVM8PDgerw4tx9W7XrwPfye34PnoxvQMDCBXY9h8Lhzjo0mGbLKmpyyKgyt7NnwtBvzA+7sWgmP2+dLThv0yz6o1TBkbQIZ0FbDpoHc3H9ViMGmY190nLKIjf6zEzuhpm+EZgMmwOX0Hjw/s5f7NWrTWaTFR8ONXOpiQKPeo/j/51fMQO956xDi/gIPD24AhUnI+5GdnoqWQ6dAv24DXF03H8nRYRUTBEVlHrdt98Ec0yeCZWbXAnVadsLdnavw/v4lmNLvLToixM0F+Xm5qNmoDeq174VzK6Yj6LUzajZuix4/rIafyz3Wb9C59Rx7w/PhNZxbPg1apnUw8OfdSE+Kh+vFg5CUloVdt8EsNLzwy8wKPUOfdprOMWnQjJ+XLrNW4Pnp3Xh8ZHPJIS0GT0aTfmPx5upxxIcGoEnfsahR26pcgjBr1iyYmJhg9erVpcSKCgoKGDFiBHr06MEEYdeuXQJBqOwLJHwuIFABAmUJgrg47H84g7TQD/A9tZRXG3otBsKg9RD4nP4ZGZG+MHQYDdWadoh5fQ156UkQl5JhMWJeRjJCbu4oyVRQ0KsN836LEHRjG5L9Xoo8CcUEITo6ETNmbGNXJHkLhg93xLRpWxAaGstGmFbo+vqavPK2tjZBw4a1sWHDWXh5hWDFijG8Cp85cxvft3PnRpg8uQfWrDnNhGDChG7o1KkR7t1zQ0hINB9DhILCFsuXH+V7VNaKCYKsrBTWrj2DiIj4klPs7Gpjxow+iIlJxKNHHvx3ExNddOhghx07LjOBmDt3IMzM9PDLL8cQFBSNrl2b4Lvv+mLx4gNMNsirYWCgBUNDLSYw5KFwcmqBPXuu4fJlFyYI5849ZnIxf/5g7Np1DRTOmDdvEKZP34o6dQwxfnxXXL/+kj0H5Olo2LAW92P9+rN49y6I+zVp0iSYm5uz6Csk5A+NSDFBIPxpNUzhA5MGTVlgdm/Pb3C7fhKUOaBbyxKqNQx5FWpk0xh1W3bCgRn92Kj1X7qDQwa3ti5l40KGp/fcdUwQXp4/AKeFm2HRqjPuH1iLnLRUSMnIwtqxN3sWiGTk54qeNUNhjvE7r5QiCOKSkphz0R1vb57G7e0r2KVNK2nLNl3/coJwZe08+DjfgpKmLnrNXcsr4EcH18OyXXd0m7kCXk9uIOjNUya05s0dUbupA04sHIM6zRwhp6yGu7t/ZfIiBjE82L8WnacvRXpiHB4cWIfstNJhq0+fTdnfCYJJw2a48MssRPt/4JDOuJ1X8P7eZdzbvYrDP+p6xtA0rgV5ZXX+fz3HXuxleHp8B9qO/h5m9q3YGEd4uYFW8zOOO8PH+TYTBPJkELkjHGMDvSEmJo5aTR1g2rA5to9uj9RY0TMKZBSUMOP4U7w4u7cUQaC5y0xNZtKUlZoE2x5D0XXGz+USBCK1DRo0wLp16xAUVPQcU5OWloa9vT2sra3h7e0NFxcX5OWVDbVU9t0WPhcQEBAAyhAESXlV2M0+huiXlxByezdjpGHZGqbdZ7BIkUSGJl2mQkG3JjJigvCxoOjLJyEli6z4MES9uIDc31MZv5Yg0CqZXPXUWra0xowZTti8+SJcXb3RpUtjdOpkzyQgLS2T3fAUZ9+48RwiIxOxaNFQvHnjxytlao0b18H06U7YtesqE4Tly0ehXj0zXoGTm57c77T6Tk7OwNGj9373THz5ESkmCKQt2L//JtLT/3BlksdiypSeCA+PZ+8BYyQhDiITV6++wIMHb/HjjwNQo4YG5s/fx+eSV2TBgiFYufI4Hj1yR/PmVujTpxUUFWWRnJzOYRHyKNAYLl16xgTh8OHb+PAhBHPmDODQBLl+Fy8eikWLDjAZ6NKlEQICijwQNEbqA3lHyLPi6VlEBiZMmABLS0v2IAQG/qExKCYIyTERbLDISKnqGGDivpt4enw7nI9vR9P+42Dj6ISP+MhxdTJ02sa1cWzuCMQG+2HM1vO8oiVXNK2MyYhP3n+HCYL7rbNMIPTq1keoh2sR2GJgN3h+bjZO/zTxqwkCEZeJe27g8eFNvKKn1qTvGLQb8/1fShA6TFqIIz8MYeNJXgDyihAe9/euYaNPWRMRXu7sGaAxUghAWlYejw5vgqquPhp0HoBXV46h3ejvIaOgiHPLp8Nh3I94e/0UXC8dLqOpKI8gUIrn9U2LkRQZAlkFJQxZfZi9Nre2LYNx/WZoMXgSZBSVkZEUzwRMx6wuXl44xNiQIVbRNcT1jQuRGBHMl//h4lv2LhBB6P79r6zdCHj9pCiWRM+ztDSHUygEQfcUtVVEEOZcfIvA3+9H1zKyaYIR646XSxCmTZuG2rVrs3YmPDy81K0pK4f29KCwo7Cnh6izIhwnIFAWgTIEQVxKFo3mnkPM6+sIvlG0+tawbguzrtPhe24lsmKDYdx5Cr3jEP7oCPIy/1jZfCzIR0FOZonw6GsJArnOV68uUjm3aWODadN68++0ut+4cQrevPFn9z3F48l9P2SIA+sQKOywdOkIjrPTyp5aixbWmD69N7ZuvcgEgVbZ+vpa2LnzCshTUdxIv0DGOj+/ctd2MUEgknH06N1SIse2betj6tRe7C1wdy8t7CMhYnZ2Dq/6dXTUMW/eHj73U4JAoQ8iGKSPoD5SmMXYWJcJxOHDd3Dp0lMmCAcP3oanZzAThIMHb7GF/emnYVi4cD8sLIw5TLFt2yUOKxQ38ggQZsVhlN69e4N0CNu2bcO7d+9KjismCGmJsbi/ZzUyU5KgqmuAiXtu4vHRLfB9dgfkvk+KCsX1DYtYYGjZphtaDZuOM0snIzbQC8PWHkO4pxvrFsgboG1aF6M3n2WCQKvXgct3Q1XXEIe/H1z66Sz8iPTk+HIFjxV9kcvzIMgqqWDWSReOxROhodZ0wHi0HTmrDEEgckWtquJBCjF0mLQAR74fwnH5YoKQlZKEe3t/Q6PeI9B84AScXzETkb5F3qTiRoTBpH5TdJ6xDDH+nqD+UjjEz+U+ajZuw14PX5e7X3x3FXsQNAxNcW3jItZY0N+GrzuBCM83uLV9OQav3A9ts7o4OmcYe3RqmNdDh4nz4fX4BpOUTlN/4j0H6Pz4kKIw4NxrH+D//AEThM7Tl7E+YfPQlmX6QkSosAqba1VEEL478xJh71/h7LIpfI+ajVpj8MoD5RIEIrNpaWmsQfh80yQiCLSZEnkOPhc2C0ZAQEBAQHQEytUgNJx1DPnpifhw8Hs29kadJkLXtiu8Ty5BergX74mgYmaPgIurkRUXWnQ3EgjQOvKTmPHXEgQy0sOHr2IvwbhxXdCrVwsMGbIScnLS2LXrOzbKZ88+4ZUxGU7SAhBBePHCC6tWjWXh34ABy1m02L9/a4we3RnLlh1mgjBiRAd295PxJCJC2QHkgqd/ougPaMjFBCEgoIggZGf/kQVhaWmMWbP6wsMjkEkCXb94BU/jojGRBqEiguDvH4mZM52YDO3ff4O9HG3b2mD+/CHsRamMIJBWg0SUdI1ffjkKV1ffkjFSPwiT4owKiuWuWrWK90C4dYtIRlErJgjS8gog93lyZCis2veE44T5bPDTEmLQZ9EWvDh3gFMLJaWk4TD+RzaIR74fiihfD15JE6m4sXkJ4oL90GrEDDTtM6ZEg9BzzhpYt++J7aMcWXlPjQRxBFZBnmhZJXQ8ueWVtHQxbvsldtW/u3OBDT2FyH687AFfl3u4snYur8SHrzvOse1PNQiUDXL+/Hk2KMeOHeOfRW2VEYSadi05rPGAdBdn93O/iIxQtgBldhBp6vbdL9CpZYlnp3axPoKMcXyIP6/oo/2/vFdDMUGwatsdZ5ZNRti7V7wR1KT9d/Dy3H4mAGO2XkBWWhKOzx3Jw2rYdRAcxs7B6yvHeC4aO41iPcnNLUvg//IRiwMJp2INgm33oXCcMBfXNy6G56Orvz/PYqw7IU1DeZkrn+NHYQkaN3lIph17gpdn9+HJ0a3sfaJ5Gbr6MKTlFHBp9fccnmo5dBpaD59RhiBQGOHUqVO8WdLWrVtL3YY0CMOHDy8RKQoaBFGfYuE4AYGyCJRLELRsu8Cw7Qikhb5nXYFqLXvIquqySJGyGGjjJCPHcUBhAWcmEDlQ0q+D9HBvRDw9XRJ2+FqCQC5/ipOTQt/Wtjbevw/E2rVnoaQkzx4CEt29fOmNGjXUWcCXl1eUyfDs2QdejU+a1AMJCSmcDUFkgdIZf/75CJ4+/cBqfwpDSElJcmZEbm4e6wHIoCxefFCkZ6WIIPRlF/7nBIG0DERCSNdABIT0CWSwa9fWZ1JC4/qcILRt2wALFxaFGEhXMGpURzRtaokHD9w45tuuXX3Olti+/UoZgvDDDwNw6NAfHgQiCJRuScSqVi19uLh8QEZGDoskyYOwb9/NEs0E7aI4e/ZsFntR+lhGRlHKaDFBoDiz74sHSAgLRP2OfVi1fnPLUuTlZGPA8t1Q1zfG6ysn+HhT2+ZQ0tDGkR+GsQKe4to9vv8ViZEhnPpHxpIMxIMDRRqEGrWt0f2H1ewS//DoGhsKfYsGLIC8v+83kVam1u17Q9vUnLMYSPkf9NYFsYE+CPd8Dd9ndzmcQEachIBk0MzsWkFSWroUQZCVlcXJkyfZJX3kyBFcuvRHFkRlD0NlBCE7LZlXwhT3D3z1BOlJcVDTM+HMgvV97aCkoYOOUxbDonVn1m7QRkLD1x6F1+ObTBDIc/OlVkwQGnYbxNkOwW4uvPomknVr2888Dz3nruVsERIYklCzpn0r3nXy2andeLBvDTSNaqLXvPWg3Qtpfg2t7NiT4eV8C+eXTwftPtl7wUYYWtnC4w6RjRRosZ5BDaeXTCwKnVTSajVx4PMphGTfazgifdwR+u4V4kP98f7eRdRu2h5dZv6MGH8vfl7qtuzI2Hy+DwIJEIcNG8ak9tOsG7q9IFKsbBaEzwUEREegXIJAKzJKYVTUr8Mv7Kz4cEgrqbMugTQI9IJRMrSEmkVLyKpoc0iS0hsTvJ4iNdgd+D3/W0ZVBzp23RH//j4yY/4QElXWvWKRIqXr5eTksb4gMjIBly8/45g+xdFtbMxYg0BkgfZAoBRFY2Md3LnzGrT6ppWKo6Mt6tc3KwkXkLFdteoEpwHSNchYE5EgoSP9TnsEkG6BBISiNLo3aQ0oS4BSJ/PySmc+UL+pDxYWRhwqoH0OyCNAqYq0V0G3bk3472fPPmJyQ6JCIhTXrj2Ht3cYatXSYyEliRRJx0BEh7wnL1/6MKkhTQaRHcKmc2d7/plaz57NcPLkQz6eBImOjg1hZKTDhIq0DG/f+uPJk/clmgmK13bo0AEdO3bE7t27WdxFq9xigkBGgwSKJHxLjg7H25tnEOntzvcytmmCht0HszKdBHVJEcFQUNfCq4uHkRAeBClZOdRq0g5mdi05dk0COodxc3Bnx0oWvFGjLAky7HR9MuAkZvR6fB0Bro+/GHsvniPSFJD7vChA8EcLfuvCxkxRTQv2vUdwamNeViavzMnbQFkURHqoWVhY8A59qamprIx//77itMLPnw0yppZtu7GxpUwFIkCU+kj3ImEipRkqaerAtvsQaJuYsxAzKz0VcSF+cD66lYWedVt14kyMx0c2ITc7C52n/sTG893dC5U+isUEwcDKjsM6tI8AGXCfp7fh7XybvYCkxaDMCkpZpf6QUSZCFfr+Fbyf3GTc9S1sYdG6C6dJxgR6s3aCPS9rfuQ+UCjIvudQqNYwYi8H3SPs/Wu8vXFKJK1IvQ5OMLZpDHFxiVJjig32YS0E6TIoC4YIHD1/5DlRq2EA99vnmeRQU1JS4rBCSkoKVqxYUUZjICMjw1uGk4Dxw4cPePToEW8AJjQBAQGBqiNQ8UZJ5AKVlmPXYUFuNocPyjQxcUjJK/MnBVlp5W56UvUuAcUE4epVFxbTUZYC6QLIiH7aKKVQTk6GjR65zD9ttNKmPRR8fSPY+FMaJBEKEgR+mqFArmXaH4HilnQdcv+TYW7QoBaTjPIa9eXGDdGzMkhcqKpaRBDS07OrFOMmL4qKiiJSUzOYLP3ZpqKiwASBiManoZDi6+nq6rIOgVZkHh4e7GUoJghxIf683a2kjCzSE2J5f4NPG/2dVpikPP8864BSEGm1nBgexMLDFkOmoGHXgTi/fAZC3/2BIWFNho2MJaXOUXhBy9QcNe1bVzhkIiQkostITqgUFjKAlJ5JtRfIrf9569+/P6fH3b9/H1u2bPlbxG1F7nWlEuNaXj8+7xcRC0pJJBJQXiNDGuHpximJZMBvbl3KONOK/vPrEwakjyCCkJNReuMwInLkUSAsM5ITGfe+izZxeIJSNT9tlK1CYSciCHnZmSw8JYJUUSPNQ5DbU5EyHRgjReWifT8y0sp8V4yMjEA7KV64cKFUSm6lD4BwgICAgECVERBpq+UqX/UrT/iUIJAI7880MvBTp/YsWSWTe5+0B0eP3mEj/aVGRII2KKqIINBGSpR++W9qRJQUFRXZMNLGMp96EIggUL56bgW7IH4JB8rjJwEeEQfSp9BKn7wDlNVAhupLzbJdDxbSVdRohflg32+cTvi1bciQIbwXBMW0P1fFf+21v+Z8vTr10WHyQtZxVEQQKAuBQjVEEG5s/umLeyZU1Bcy8hSK0TA043mhlEjKXrm46rui3TG/0Mhz0XfxlgqPoKwIyoIJ/yCaZ+5L9yIPAXkREhISqkS0v2YOhHMFBP6rCFRLgkB7HNCeAL6+YXj/vijlqqqNVstNm1rA1LQGr4bJZU/XysqiFfyXr0bnkiu/okbivuLUxar261s6nlzQtHqltLgwz9ci6QE+H5+0vCLrEnRrWvILnePO7i+Rm/1lckDXoVQ8WqlWOA/5+WzMPvdo/BmMSYNAXqTMzMxqZXhoHwcZOUWI8Y6h5beC3Fzo1bGBrJIqAl8/KeMdEAUPcu8TGTGu3xiSMnJIjgqFt/MtkbQFdK6MolKFtyFiSPNU3tbPovRNOEZAQEDg/4NAtSQI/x8ohLsKCAgICAgICAgICAgUIyAQBOFZEBAQEBAQEBAQEBAQKINAGYJAcej09PIr7gn4CQgICAgICAgICAgI/DcQKEMQ9PX1ERkZWa3isP+NqRBGKSAgICAgICAgIFB9EBAIQvWZC6EnAgICAgICAgICAtUGAYEgVJupEDoiIFA9EKD0XvIkxsfHIzu7dEqwoaEh4uLiyvy9evRc6IWAgIDAX4mAQBD+SjT/D9eilzlViKTUTdpIqaqFhv4PXS73lrQPg51dLSgqyvP22VRMSmj/PAL0PHXt2hWjRo3C3LlzS1X3pB03aadN2mWSNpMSyij/8/Mj3FFA4J9EQCAI/yTaf8O9aM+Gzp0bc5Eh2iK6vF0S/4bb/uWXpJoYY8d25uJVu3ZRhc0v1x/4yzsgXJAR0NTUxMKFC3mzqHXr1pVBpV27dkweNm7cCDc3NwE1AQEBgX8xAt88QaDCNtKycrzta3kb5lCRI9obnzbm+VJJWtqQhrYFpm1hq1K69mufDd5aVkaKN3P6UhVJ2iqZdoD8vHytoqIsV42kbaipauSf2cCJ+kBbVktKivPK/fNtq2mMUlISfExF16ctoWnrayplXd44iABQX+nz8raMpiqaVFCLttUu2tAqpxS01Ef6jAhQRaW4ebtmeRnk5NAxpbfe/tp5ovOpABf1gfpfERGjzwm/LxE1GivV8aBjysOCaniUNw9FGMhwFU7C8fNG80erfLom3YM2HPvcE1M019KMYXnz1KlTJ95yevny5VyT4/NGG0pRqWVXV1ccOHDgb9mS+q+YK+EaAgICAl+PQLUkCFQIpsOkhQh954p3dy/yKKmIC23pStXpaJ9+eVUN1O/QB0b1G3N1uJzMdC7u8+bq8SJUxMS48Ixlm25cfIYq4tG1gt2elezoRtez6dCHC9cYWDaEvKo6F+9xvXAI8aEBX49uJVcgYjBgQI3/6fIAACAASURBVFvUrWvIhZ4CA6NgZKSNY8fuISgoml/yjRvXBVV5pNoSVJSKKlVSUSaqPjl1ai+uUFm7tgFXoaSqknQd8iTQcaI0LS0VDBrUDnp6mnw/IgCnTj3gglfUyJC1b98QDRrUZIJARaaoaJafXwR/TnUuqJS2tbUpEx0y7I8fv8PDh+5shMhINW9uhRYtrLjoFhklf/8IHD16r6S4FRWtomqd1Oi+VOeC6mJQoz7VrKnHha2oAieN2909iKtZ0vWpkFXPns25MiXhSHUroqMTcfHiU4SExIgCAe/aqaengQMHbrJxp6JfvXo1x61br+DjE8ZbbjduXIfLg1NxLdqOmu5BZbeLG/WRCm1RZVGaA3f3QNy+/aqEUBEOEyZ0Q1JSGmRkpLlQGB1386Yr7/LZtWtjNuwGBlpcRpwqcV679gKeniF8i9atbdC6dT0oKsoxmaSiZTRGKtRFzwBVDqWaH0SQqBgZYUFhmxs3XLn8OTUqGubk1BJKSnJ8r8ePPbhoV3GRMSIXEydO5C2nZ82axVtuf97omvQZeRoozEAVQIUmICAg8O9EoFoSBHkVNUzccxPv7l3C3V0rGfmOkxfBun0vbBnaGgX5ubBy6AnHCfMQ5ObChYBor3oqGkSlaalR5TjH8fOQEhvJZX4NrBpCUV0Hp3+agLjgor37rdr1QM8f16AgL48LB1GlQipV/PrqCQS+evzFGR89ejTq1KlT5hh6eb969Qrnz5+v9IkZOLAt6N+HDyFsWMlIqqkpYt68PXB19UXz5pYYN64rrxap/DMZFTIg27dfxvPnnlyAioxDo0Z12GhQhUd68bu4eIq8RfWSJSNgY2OK+/ff8n3q1TNlw0PGgww+GZQBA9rg9WtfREUlcclpMsabN19g40RGc+ZMJ743kQYy2EQiDh++w32xtDTGokXDEBISDS+vUDZwZEx/+ulgyeq2ZUtrrs5J9TMSE1NLrk0AEh6LFw+Duroy34Oub25uwMb8woWn3F8qdU0EigwhGbvGjS24IuaJEw/KeCLKmxQq2U3Gc+pUiqvncz/mzRuErVsvcv0O8grs2/cDG+1Xr3ygoCCHZs0sMWzYKr4cldCm0uI0N/fvu0FDQxlNmtTl+1+69IyvSUaZrkHXCguLY+KhpqbERIOqe86a1Qfm5oY8Bipv3rlzIzx58g47dlzheiJLlgwHeZE8PUMhIyPJY4yPTwaV9TYzq4EtW6ZxCXFNTRV+Jggr+j/Nyc6dV7hw2bJlI9lrQWOigmS0Dfmvv57Amzf+PA4dHR1MnToVaWlpHEIoT2NAZMnJyQnt27fHtm3b4OnpWelzLhwgICAg8G0iUE0Jgjom7r2Bd/cu4+7OX4oIwpTFqNe+FzYPaQUqR9129GzoWzTA9Y2LERvkU6qSJFW+G/TLPiioaWHXuM68utatZYWuM39G4JtnuLe76MVOBMFpwUa4XjyM+/t+K6l+Ry/BysR+kyZNgpWVVbkEwcXFBSdPnqz0ibh8eTkbioUL9/PKmow1rRLnzdsLX99wNjr0Il+0aD8SE9M4Pk/GLDIyHnv33mCPwteGGC5fXoGIiDhMn76VSQa5r4sbGT7qExkt8moQialVywArV47BoUO3mUjMnNmHV/djx65FRAQV0CksVeuiUaO6WLhwMNatO8teDbpHebUwKAQxbVov9hJs2nSeyQc1Iknz5g3Gnj3XcOXKc17Nnz69GAkJKZg5czuThTlzBrDRJRzJ6E6a1J1X6XQdWrFX1mbP7scEYcqUzWzMGzYkgjAYW7ZcYGNqZWXCY96//yYbc8Ko+Pmg/pAHZdgwRyxYsB8+PqGQl5fl38lwb9hwjstuE0HYv38OlwbfuPE8zy81Ot/ISItxJIL222+n+P/kbaCQy8aN59izROENuicdT0VGBw92YM/PwIHL2eOwatU47N59jX8mb8KwYb+yR4PGtXnzeUya1JNJy+jRvzGBU1VVxIIFQ5CVlYsFC/ZxX0xMTJggBAUFYc+ePRUShJYtW2LMmDHYvn07hxqEJiAgIPDvROCbJAhU9MXaoSc6TF6E2EAvhHi8QLCbC4cHqFwtFa7pPW89pBUUkRwVBjGIgTQG5B3wd32Mq+vmlRCEHnN+w+nFE7jITVUaFfYhd2t5jYzg51qBz48jg3Hu3FJcuODMq0Rq9EInQ0EvbFpZ0s+0youKSmDXN8WYVVWV4OkZjF27rvGK9msJwk8/DYOtrTm7pWnV6e0dyuENWv1bWRlj/frJoOqViYnpbJho3Lq6ajh79jGvkB0dbTF9em9ERSWy54K8If7+4UhJKSp6REZu0aKhvAp++zYAb9/6Izg4GjExSaWIQkUEgQwthTjWrz/LK2RqFFqh0MuSJQc5BEIE4fbt1zh69C5ndIwY0ZG9FGvWnGaMKmuVEQTCeNeu2RzSoAwLD49ANtrkSaHPxozpwqXEqYw4ET3CibwMFIpYu/YMr+KLCQJ5BbZtu1RK52FsrM1zTaEG8rwQSenfvw2HFYggEJmgY7p0aQITEx32QpCBJzJFxIz0IeQdoGeC/j55cg/07LmYPUxECuj5Ii8LhU6IkBYRExIkqiI3NxejRq0pRRCCg4M5W6EiD0KrVq1AHjSBIFT2ZAmfCwh82whUS4Igp6yGSftu4v39K7izYwUj3GnqEiYFm4e0RF5OFmsQrNp2g2G9RlDTNYSOmQVeXzuB+3tXs7eg55w1SI4Ohc/Tu6VmKDk6DP4vH5YQhM7TluDsz1M5DFGV1rp1a+jq6pY5hcgBvWApzPClRrH/Y8cW4NSph9i37wYf2q1bU3Y1E0Ego0xGgwyys/O7UmI2Mq4eHkG8ov9agkD9oBg+GR7SP9DKe+fOy3j40APW1iZYu3Yi6wmKY+HFY/LxCWdjQ+JE8iBQKEFfX5O9HI8euWPXrqvcZ4q9UwiEKmtSnJ8MN11rw4aziIlJLoGoIoIwZkwntGxZjwlCcWXP8eO7svFcvvwoh0GIIJB34cyZRxyHpxV0nToGWL36lMgEwdLSCJMnF3kQKNRDq2syzuRBoFW7nV1ttGlTn8dApC06OgFLlhxmI0qrffIykGaBiFBxo9X5q1e+7MUoCjF8j3v33jI2n7ZigkAEip4HIiL9+rVG27b12QNB871mzUTGmggGhWFobpo3t8bUqZvZ2C9ZQgThKlRU5JlA9er1E4eHKBRy4MANzJzZlz0bJ0/eL3VvIjSkg6CmpaXFHgTa+2D9+vVMHj5vhEXfvn1B2QxCiKEqbwzhWAGBbw+BakkQqMzvtCMPEfb+Fc4tnw4pWTl0nbkCtZs6YNOg5kwQipuMghLU9IzRbswPUNczwuklkzhU0H/pdqQnxuPEgtGlZ4Xepr/7uCnEQKGLc8unIdTjZZVmj5TeNWvWLJcgvH37FpcuXfri9Ujcd+nSz2xAfvnlOBum6dOd0Lt3cw4xkMBu2rTebBRWrTrB4YTyGq0miUiQmI+0CRSKqGqjlz4JCMnIjxvXhVfCy5YdYff9L7+MwfnzT3D27JMSMRtd/xMY+XZEBEgfMGSIA+rXr4lRo34rlfFA46AVb5cujdGxoz3Wrz/DYsviVhFBIAEhGXxadZNxpLZ+/SQWC/74424mJV9LEAi/pk3rYuTI3zgbhDQRFGJYteo4E4RP+0gufOoTGfA1a07h0SMPDBvWHu3b22L+/L0c6ihun2JEBGHvXiIIbhwKqApBIOHhypVjcfLkA/Yw0LMzcWJ3FlJOnrypUoJAoZIZM5x4fkaMWF0qA+LTPkpJSbFIsX79+pg+fXq5myGR1+y7776Duro6ixSjo6Or+rgJxwsICAh8IwhUS4JA2I3bcQVKmjqsQVBQ10ajXsMhq6iEjQObA2Jgb4K8igYifTwgISkBh3FzWZtwfN5IDjM4jP0Rtt0GwfXSYYR6uHIqpFH9piw+9HtetIr6GoKgqqoKGRmZcqeZ1N+pqamVPgLk2qYY+7VrL9kbQC98EpbNnbuH3f20AuzXrxWv4F1dfXi1TDFlUvqT+pzCGJSyNnZsF1Csn1TvFI6gLAFy+YvSfvppOAvv6HhDQ00MHNiO70VxchIIkiGiMAFlDQQHx7AAz8REl0WStKInkSWFPnx9I9hw9enTiuPg06ZtYREi9ZcMLoUHaIzkbSARIInjSHhJxo+IiaysDLp3b8IagsuXXXiV/OaNH5OKVavGctiDsgIo24IIw927r7Fhw3kOg3wtQRg6tD2Pg0IUtFonAmBnZ46lSw8xQSBvRKdOjVioSWNwdLRDhw62mDt3L/exSRMLTJ3aEwEBkexFoHAQeUqo0eqcMjK+hiBQ2ua2bTPY83LmzGMYGmrDyakFk6Nx49ZVShBIi1Gvngl7EW7dci0hPZR5QlqP69f/8J516NABI0eOxMqVK8sVIBKJoPDD8+fPsW/fPiHNUZQvmXCMgMA3ikC1JQjkLRiwbBdnLKTG0SrlI2QVVTiLgd6ILYZMRtM+Y1gUR7/T3gVXNyyA9+MbHPsmoaLDmB/QoMsAFORTXFgMOVmZuLZhPnyfFYUdiCCQjoEyHyiL4Z9uqqoKLDq0t6/DxjQwMBr29ua8MibDQ4r/gQPbcAiAVm602svOzuOQBBlLMkQ0LjLglElAK0Ryjhw8eJNX/KK0I0fmQkNDha9FXggyxCtXHmfDQdcm9/e4cd1Qv74ZX47+Rt4N2nOBCAIJAnv2bMFkhfpHezXs3XsdDx68ZTEfxcDnzx8CCQkSfhbtp3D69GMcPnybXelEIChLgTwC5GWg61MqI80hkQwSPnbsaIuRIztx7J1ICOkciGDExaVwFkMRQXBh40khhuHDHTnNT9QQA4VWFiwYDGNjXVb5k/5DS0u1JMRAJOTXX8eB9tSgflEfiMTQOGkMJCB0cGjARI36SOOk44gsEOkg7w8RhD17vucsh889CHR/Ci19GmIg/QClt1KYgwgfeWaIGOXk5HPohoSqREIII5o3EpPu3EkhBgUWe1KIoXfvFpxiWiz6JO8U4UjfJWo05yS8pEyL4kaegSVLliAkJITDDJ83BwcHJhDCRkmifLuEYwQEvm0Eqi1BIFhlFZShbmDCexLkZpV1scurqEPD0BT5ubksViQi8Hmj1Ecds7rIzcpEUmQI8nPLbjDz/5pCMjRkXIqMqxjviTByZEcMHbqSjV9xI8NJ2Qzk/g4Li2WSUFmjc8jtX1Ejw0YxcjJklBqnp6eOpKR09iSUtxERpRESWSDdAB3zaZYHeTEoLk8Gh/r3+SY+tH8CpdmRB4RIUGZm1bdRpmuQ2p9SAOPjK/fO0LgJXzLYFTUiMMUbL1GIg9JIY2ISkZBQNkxDn9P9ydNBWQnlhXxoDinzg/pKOPyZTau+NK/k0dHWVuP7/9mtqImgGRnpMKmgcEh5Gzp169YNw4YNw+zZs0vtc0Dj27FjB/z8/MrdZbGyZ1L4XEBAQODbQqBaE4RvC8qq95YMEmUBkPudDNmQIe05REAahK9ptJJv164Bp9pV1EiJf/Dg7ZINib7mftX1XCJV5L0gPMprRDYofZNW7kL7AwEKnTVo0AD+/v5ISChKN6VGGyk1atQIvr6+pf4uYCcgICDw70RAIAj/x3mlVfeYMZ3Z/Uyrb9od7+zZR6WEbn+2e+S6p8yBihrd6+nT9+Vu2ftn71ndziMtBGkeKmq0Cn/+3ItFmUITEBAQEBAQECiNgEAQ/o9PBLl5yb1PWgMiCJSz/2ddx//HYQi3FhAQEBAQEBD4FyIgEIR/4aQKQxIQEBAQEBAQEBD4WgQEgvC1CArnCwgICAgICAgICPwLERAIwr9wUoUhCQgICAgICAgICHwtAgJB+FoEhfMFBAQEBAQEBAQE/oUICAThXzipwpAEBAQEBAQEBAQEvhaBak8Q5KTkUENVF7FpcUjPTi93vOqK6qihosub94QnRSA1S7SNdL4WPOF8AQEBAQEBAQEBgX8rAtWeIJhpmWJs61E443oeb0Pdy8yDnYkt+jfqA1V5FaRkpuLEi9PlHvd3TaCspiHkNA2RGuyBggoIzN91b+G6AgICAgICAgICAn8XAtWeIOir6aF7/a647/UQfjH+pXCgrV9nOk6DvroeVl9di7ScdOQV5KGQ6jNUudF2e0V71JdtFX+mbdsFOvY94H9hNbLiQqp8V1FPoLFy736vRFnmvM/LK1Y0ErpO0YVEvbVwnICAgICAgIDAfxCBaksQJMUlYahhwFNSUFiA+LQEZOZm8u/iYuLQVNSAhpIGBjXuj5SsFFx8cwX5hQVISI9HRk7RcV9qEtJykFHVQWF+LiTlVSEhI4/c5GhkJ0XiY2ERwaC/yarVgKSCGgrzs5GTHIu8tAR8LCyApLwKZFS1oV63BdQtWiH8wSFkJ0fhY14uMkUkCqq6hpCQkkZiRBDfU1ZJBWo1jJAUFYrstBSuTqmkoQMVHX3QsRnJ8UiOCkNKbCQK8nK5jzLyilzuWlFDG/k52UiODkNydHjJ0KXlFaGqo4/sjDTIq6jxdXIy0hDt9wFZacl8HFWm1NLSQkZGBuLi4pCXV3mth8rwFT4XEBAQEBAQEPi2Eai2BEFFTgXfdZoBWSkZKEgr4ODTI3gd/IbRlpWSRVebTmho3JC1B+Q1iE2NRVp2Gq6534RXlHels6JkVA/m/RYgKyEcYuISkFbWREFOFvwvrkZmdCCIQOg26Q3dxr2QkxwDcWk55KbFI+zefmREB0C1ViPotxwEKUU1/pedEIHCvBzkJEfD/8Jvld6fDug1dx1UdQ1wfP5o5GVnwqJ1Fzgt2IQLq2bB69F1aBiawWHsHGib1UVGUjyk5RQQHxaAh/vWIjEyBFSIqs2ImbBo0xXZ6alc3ColJgI3ty5FXLAv98G4QVN0+24lEwsNA1PkZKZBSlYBD/evxYeHV/mYXr16Yfz48Xj9+jV27txZqkCPSAMRDhIQEBAQEBAQ+NchUG0JAnkQjDQM+V9/+z44+PQoXINe8QSQB0FdQQ1aSloY1KQ/EjOScMntCnsaEtITSzwNX5otJRMbWFLVRI/7iH17E9KK6qjV+0dEPD2FiMfHoFLTHmY9ZiLJ+xni3t6BrIYB9FoORErgG0Q8OsqkgjwQ6hYtoW7ZCmH3DyInKQoFeTnITvhjBf+lPjgt2MjegePzRnG1Sqt23UF/u7DyO3x4cAUNuwxE+wlzcXfPakR4unEJaykZOUT5vUNWajKs2/dC11kr8PL8Qfi53IW8qgY6Tl6ExIhgnFgwhm9t0rA5us9eCTllVdzZsRLxof5QUNVgopEQFsjH9OnTB+PGjWOCQNX6IiMj/3UPujAgAQEBAQEBAYGqIVBtCULxMMx1a2OG4xQcenqshCAUf6Ygo4DpjlPYe7D/yaEqjZwIQm2nuQi+tROJnk8AMXHYfX8SSX4vEHhpHfRbDUaNZv3gsWMCctMSIC4tCyOH0VCoUQu+Z1YgLz2J7/c1GoTKCIJNhz5wnLQAAS8fwtv5FiJ9PJAWH1MyzmFrjsDQ2h4+zreRRSEJMTHUatIOiupaWNO7AfKys0oIQojHC1xdOx8fy9Fn6Ovrw9zcnCv0UaW+7Oyql2OuEvjCwQICAgICAgIC1R6B/zRBMOs2A8HXtyElyI0nyva7Y0gNeQf/87/CuPMkaFq3g9vG4axToGbQZhg0bRzheWgOclPj/naCQB4BCiHYdOzD98rJTIf7rbN4dnIX6whmnnwGOSVVBLx6XPKgiYtLsADx0uofOOxQ7EFwvXgYL87tL/eBJGLBIsiPH/mf0AQEBAQEBAQEBAT+2wSh6wwE3diK1KC3ZQiCQbsRrD8gglCQkwkxCUkYthsJZZMG8Dm5BHnpiX8QhEY94H++6lkMPX/8DRqGNTkcQKLEBl0GoPvsVbiwchaHGIqbtJw8ajVuB7tew6Cma4jrmxbD/8UDjNl2AYpqWtg2oh0K8ssXFhYThGenduPN1ePlPvFycnIsVCTPQWpqKgoKCoRvhoCAgICAgIDAfxyBaksQFGTkISUhjZraphjbqmgfBLdQd+Tm55ZoDL42xGD2BYKgYdUGJp0mIfzJCSR6O0NWTY8JQnZSFEJu7y7Z80CzviN7FkJu7UJGlB8+FuQjL6MoO6Cy1nb0bFi17cGiwsTwQLQe+R1sOjjh/IoZTBBUtPUgq6jC2QaUtWDWqDU6TFqIG5sWw+vxDTQfNAkth0zBnZ0rEeD6iFf/pDWQlJZFpHcR6RGFIDg5OZWIFAUNQmWzJnwuICAgICDw30Cg2hIEylIw0zKDspwS6uiaIzAuiAWIXpHeuOf1gGeniCBMRmxqXNU1CMY2MOs2HUE3tpV4EBrOOoq00PccYpBSUIVh+zGcrZAa7M4iRgk5JYTe3YvUQLeSWL6ifl0YdRgHMXFJznLITYllAiFKM23YHL3mrUNaQgwykxOhrKMPbRPzEoLQqPcI2HTsi5TYCORmZqCGeT0khgfh/r41LDCk8EKPOb9B27QOYgK98LGgAGr6xpyxcGbpZJEJgiBSFGW2hGMEBAQEBAT+WwhUW4JgbWDFex183qJTYuAd5cN/pkwHS30LZOVmldlEqbJppNREJUNLpId5Iff3cAF5DUh8mBriwadTloKSsQ1kVXVQkJuFjEhfpEf6cjpjcROXlIa8jhlkNfQ5s4HCEYlezpXdnj+XkJJC3ZadoGlcG5kpSWz0lTV1EOz+vCgt0dCMRYi0z4GklBSSIkMR+v4VpzAW79VAWRDGNk2gpmcECUlpJMeGI8bPExG/exBofwRDKzvEBvmUZC183jljY2PUqVMH8fHx8Pb2RmZm5ftIiDRA4SABAQEBAQEBgW8WgWpLEKoPomIQl5Jmg/yx4K/fQIg2Q5KUlmENQWF+fplh0+dSMrIQExNHXk42CgvKOUZMjMMKdGxeTlYJeag+GAo9ERAQEBAQEBD41hAQCMK3NmNCfwUEBAQEBAQEBAT+AQQEgvAPgCzcQkBAQEBAQEBAQOBbQ0AgCN/ajAn9FRAQEBAQEBAQEPgHEBAIwj8AsnALAQEBAQEBAQEBgW8NgWpJEEhRHxQUhNzcoh0MhSYgICAgICAgICAgIPDPIlAtCULz5s3h5uaGrKysfxYN4W4CAgICAgICAgICAgKMgEAQhAdBQEBAQEBAQEBAQECgDAICQRAeiiIExGi/BxmIS8pwsaf8zFQu4CQjScWfgJz8AkiIiUFWShI5+fnIKygUCTlJcXEoyEpDXKzo8OTMnG+uIBR1XUWe9qIgZID07Fzkizh+kUCqwkHi4mKQk5JEbn6ByHNQhcsLhwoIQEZKElIS4vyci//+nS8oLORnTijl9t96QASC8DfPt7y0HDSVNBGTEouc/D92YPybb1uly9MGS7QbpFqdZpBR1kZhQR6Crm2Goqw0WtUxRuHHj3D2CYGemhJa1TXBS/9wvA+P5XtYG2hDXVGOf6bj6KUSlpCCxIwsUGFIfXVl9Lavy0aNCMeOu658zLfUJCXEMa1jE0j8znJOubxHeGLq/2UIWkrycLA2w5ugKPhFJ/ylfaD50fh9LhPSM3n+hPbfQ6C1hQnq6mni4CM3yElLoXP9WohMSsPLgAjk5JXdqO1rEJKVk4FZXWMoqiji1eO3KCwsWnhISIjDsKY+dPS0ePESH52AUP9w5H1yf/qMjpGUlEByYgr8PYOR/xf372vG9m84VyAIf/MsWutboa+9Ew4/PYqg+OC/+W5/7vKSckow6jgBcpqGSAl4w4Woop6fh5aSAiY6NkLhx0LsvvcK9Y11Ma6dPY49dcfVN0XbXS/s3Ro2RroIjkuGlKQ4pCUlEBqfgkOP3BCTmsHkoZGZPuroaaJZbUPMOHgNcWnf1lbORAw61a8NQw0VtDA3wurLT/Dhd4L05xD/82dRH0a2aoCbHn54FRj55y9UzpkyUhLobWeBgo8fcdHVC/m/v6z/0psIF6v2CEzv1ATtrMwwcsd5KMlKY5FTG7wPi8WRJ+5Iy/7rFjlESG0aWaDP6O5Q11LF90OXIjenaPFg2bAOug/qAGlZKeTn5kNcQhw3ztyH+4sPTCK0dDUwaKITtHTVkZOdCwlJCdy/4gzn2y+qPb7fUgcFgiDibEmIS0BeWp6rSX7uCZCVkuWrZOdll7lai1rNMLX9JKy69hvehX8Q8W7lHyYlIQU5aTlk5mQiv7A0k5eWJDe+OPeNqjpWpUmraKPOwKVI8nVBpPMprkj58WOhSARhWT8HWOpr44djN0ErbVvTGujesA5uefjj+NOimhbUWtU1xrh2dvjh6M1yCQK58eVkpFBY+BHZ5awCiHjIS0vxC6qgsPzxkceDQhoVHUNuU3KfZuTkVRkjGkNDkxqY1L4RNt96XiFBUFOQRVpWbrnGlfpG46DxkbflzzQK+WgpKyA5M7tCTwyt+mj5n1XF1RThO8mxEcidvP2OK/IqKPutICPFc1DePIk6Jp5vaSlQyCQzJ68UHkTIqC8ZuXn8PJTXCEtZaclyMSCMiueZxvJ5o2uTu7zgYyFkJCX53vT7p43miZ7n7Nw/N1c0NupjRk7un55rKQkJdvVn5pbd4p36piQjjTQKd1VA5Mi407kVfV/oGtTP9Gx6Z/wx+n+KIGjqqKPv6O4wt64JWXkZzB6yBDnZOVBSUeS/G5jUwIldF7hjo2YNQnhQJM7su4LEuCT+vHGbhrhw6BriohPRf2wPqKgrY8mU35Cb/ddviS/qc/1vO04gCF+YUQ0FDfzUaz6c/Z7BXKc2jDWNkJOXiz2P9sMj/B1U5VUxsHE/NDCyYeMclhSBXQ/2IC4tHnYmDdHPvg+HFxRlFJCWnYa8gnz4RvvhxPNTiE2Lw5CmA6GlpIXt93chryAP5G0Y32YM9jzah/cRntwzR0sHUGXLEy/OYFizwZCTlkVQXAj2Ox+CgZo+X+NDuCdsjOpBTkoW7mHv+HqiNAkZedhM2glxCSlIyitzESoqSlWQkwX37eNEJggWeloYudtXAAAAIABJREFUsPkU35K8DnN7tuSX0twTt0UiCFb62pjoaM9x/rz8Atx9H4Arb3zYkNNLbmw7O9Qz0gG9MCn2/8w3lN2fxS9GU201THCw53AGteSMbOx98BoeodH8O+kmujY0R2ebWpAlkpGVg513X+JdWFGYRNT2JYLQtLYBBjWzYY9JVm4e7r8PxOU3PvwzNQt9LUzp0BjKcjIIjE3kF3NSRhZWXxatsBddY8PwLhz2oZf5nvuv4BoYwdcmg9i1gTnq6muxTqK2rgYbpVvu/jhLK65KyAgZiiHN66GtpRkUZIlcgA0bYf3QK7iE6NXUUedQi7qiPPILCjjsdP6lJ1KyRF9VzurSjOfpdWAkOtrU4rDNY69gHHr8lkNQbSxM4NTIAkpyMmycDz1xw1OfUB5nD9s6aG5uCP+YJPbkUHvsHYRzLzzZUJJBXtC7Neh5kBAXR05eAa67+eDCKy82tPQMtLeuCQUiUACe+4ehRR1j+ETG8f3JjU79GdqyPtrUNYGkhASiU9Kw885LBMWJVsKdXPPjHeyhqSTP96A5PursjtdBkSKFbBoY18AkR3t4hMbA1lSPx/TCPwxHnT2Y+BI562lXF+0sTflZJgL0ISwWex68Qkpm0TxQKPC7rs2hrayAhLRMJGVmgwjZppvPkZKZzeG+Dja10KV+bdYHZeXkY+/DV3ANKHqe/gmCQGGBlh2bwLaFDQoLClHTwgQ/DF/GBMHU3AhDJveBl7sfrhy7BSu7uhg/ZxiHEY5sPQtvdz9sOP4zYqLisebHbbBpYon+Y3pATVMV+9cfh+vjolL3Qvt6BASC8AUMdZR1sGbgSn7B+sf4422oBwzVDeAW+havg90wxWECzLRM8cT3GROAHvW7ITU7Bcsur4SyrDJq69SCtb4l2lq0xg3324hIjkBSRhJ8on2RmZuFiW3HQVdFB6uurkFuQS4amdphZodp2HR7K1yDX3PPejbojj52vZBXmI+Xga6gapb6qnq46n4dplommNxuAiKTo/DY1xnG6kawN7XFxttbuY+VNSpRrWnTnktb6zbtjbSQD0gJeI2C/BwkvLvPxqxDvVocYrj7LoBd7J1sauORdxDHwKmRB4EIwuCtZ1iISEZkascmiEvNwM/nH5Z0oSIPAp07v3drRCenldyDYqBHnN3ZyKoqyLJR8o1KQFRyGky0VNHDti4uv/bC4Sfu/AJd6NQGplpqOOr8loV7VgbacPELg1twUR972dVF/6bWbNACohPRzsoURlqqmH/iDuslRG0VEQRLfS0OxWTl5OHOu4CicIq5IRuG2x4B/ELeM6EX4lIzeYzWhtqwM9NDSHwyfjh6S9Tbw8HKFPrqKmwc9j98w+OhRgSoXxMr9GlsCbegKLwMCEfLOsZMVrbefgGviLgv3oOEaOY1NFBLR4MNNK2sH3oGM1kLS0xh7Mkz8stAR8hJS+PM8/dshNpamjIBuermI7Joc1m/drA21EF8WiacvUPYwJGRIsJnZ6qHmV2awzUgnA1ko5r6/Lefzz/g3wc1q4e+TSxZ/3HL3Q8W+tqoZ6iDbbdfsAEmr8HKgY5MKMgwWxpooY2FKZOpR17BjBGN746HPwY0tUZ6Ti7ufwhEy7om2PfgNYdsJjrYo3kdIzzyCkJkYhoc69WEmrwsph28iszcyuPv7a3M0NrCGC5+4YxfizpGTA6nH7iG+PTKQ2sUhiPjTrH+a26+kJeR4j5TSO/Miw9QU5BDvyaWjHdgbBJU5WUxoJk13IOjsPb6M0iJi2NJv3Yw0VTDKZd3TObaW5shNSsHi07fZfLsaG2GkW1s8cwnlMlRy7rGTKp+vfQYXpHx6Fy/NmwMdZhQ0P37NrZEaEIKE7mv8Rp9+hBq19DExHkj4HznJTS01dCmS7MSgmBtVxdDp/TF2QNXmQzMXzcTebl5UNVQwZEtp5k4rDu6DK+c3XHx8HX0G9MTRjX1oaqhjIuHb+Dupccif6eEA7+MgEAQRCAIIQlh+PXaGmTkZPDRYhCDvro+ljv9xIb5kfdjVvc2MKyP7vW7YOfDPXANKjLwXwoxVIUgXHK7ggtvLpfqbSvzFhjTaiSOPz+FOx/uQV9ND3O7/sD9Off6osjPPpW1rjv0F8S63UTUs7Min1dMEMjg7X/whkMEFGKooaKEA4/c8Nj7D81FRQSBjD999uvlJ/wSI2NHLySKhy89+5BXquRKphchrZjImP3YoyUbgHkn7kBJVgYLnVrzC3Pb7ZfsHSC3avGqmVZOeyb0RnhCCk4/f8/ZGGTs5vZoxSvLT8MglQ28PIJA16cVHRnnpWcfICguiQ0zjYtWtWT4GtXUw5i2dth0w4WJSw01JSzs3QbZeXlVIgjUPyJgMzo3xZnnH8oQhKa1DbH+2jP2UBhrqWJpn3Y48OgNHnsXEYnK2pdCDEROeAw3XXilWezZIaKw7NwD9vaI0oggkGEnHQcZ9aLvU1F2yJqhnfjn4tUyPQuL+7RlwrDu2jMmCCR4nXfyDmteyFMyu2tzntcHnkF8LTJo9KwQWaDz5/VsBc+IOGy4/owJgrGmKnbdc8UvAzogLjUdu++/4rDKTXd/+EbFY8fYHkx+ybhSnyz0NDGidUPsffCKyV5ljZ5P8vKoyMuwx4vIAZHTY87uTB4ra8UEgQjQvodv+HswvWNTJsbTDl7j0+lvKnKyPFbylND3RVtFEb9deQI9VSVM69QUV15749Jrbyb5o9vYMmklgpCRnYtfh3REamYOzr38wPNGOJHn5aFnEPbcL3pv/Z1NSloSQ6b0hYKiPE7svACHHi3RtmvzEoJg27wehk3tj4ObTqF+YwsY1zLEg2vOGDCuF45uO4vw4Cgs3jQbz+65ctihcRtbuD3zQKe+Dnhw7Smunbzzd3b/P3VtgSB8YbqLPQjX3G/i1MszpY5sU6cVG+fQhDCkZFFKICApLglFWUVceXsdzwOKxDJ/FUGYfXIuEjMSS/WBCMKI5kOx9d5OuId5QFFGEcv7/IRXwW445nJC5Af5awkCuf/JnV9Q8JGNvHdkHK/MPk2FLI8gUJx3fq/W/PIiN2lxo5caxb+XnX8IGQkJXtHU1ddkckCGn1a7MSkZmHPsFv9tYDNrdpcGxycjPCEV/jEJ7D1IysiGoow0Dk/pi+iUdER8knlA7le34EgcrII7sjyCQK5rWsE1MKqB3646s+eEXtyDm9vAQE0Zu+67wtG6Jro0qI3ZR25wv6n9NqQjx9+r4kGg875EEOizXXfJy5TO4ZotI7vi2FMP1oOI0r5EEAhjp0aWGLHtHHJ/1yYMa1mfV6MzDl3neRelEUEw1VbH6J3ny8TGT80YwKQqKDap5FJayvLsadlw3YUJAoUlZhy6xtoDI00VTO/YBHfeB+Duu0A2zETWzLTVWGNCBp48DD5R8Vhx4RETBH01JQ4//dSnHWJS0nHkyVtMcGzEq2MynnN7tkZwXBJ7OKhJiotBQ1mBPRa0oq+s0Rx0sqkFbRUFJq0KMtLcHyIIFHKqrBUThO23X3B4h9rINg3RqV5NDNl6lrUZ5GFrYKzLehb6PuirKSM7Px/rrz6FmY46xrS1Za9LQEwRjkNa2KBlHSMsOn2PQ14HJ/XhLCP6rhQ3wvldWAz2PXhTWRe/+nO7lvU5hHDn/EO4Pf+ATn3asp5g9Y9bWV9Q28oMw6b2Y0FivUYWOLHzPLIzczBp/kgc2XYGwX7h+HnHjwjyDWXBovvzD4iJjMPIGQNx/8oTXD9976v7KFygCAGBIHzhSSgmCMefn8bNd6VdwUQQKP5/1f0Ghx+KG31hSV9AoQRqXyIIE9qMRQ1VXfx6bS2LC5vWbIxp7SeXG2IYvX9CGWEdEYThzYdi052t+BDhCXkZeazosxRuwe444nJM5Gf8awkCudhnHr7OL3x6yX66gi/uBKVLjnOwww/HbrERpcYEoWdraCrLY+dd11L9pZcrpfFRzHl4qwZ44h3CwkDyAExxbIysvDwmCNTIGNJKzVBdGZYG2jDSUOHV0d33gbyKOzCpNx55hfAK6dNG8diqpCsSQZjYvhG2fCJSLCYI9Y10sebq09IEQV2ZV6sOlmboZmvOY49KSmMyuXrwX08QyE1M2SZk+IoIQjfOOPkrCAIZZ9IGDNt2toT4/VmCQAZt3J5LZZ7PkzP640N4HOsaPm30PBFpoD44WJlh9tEbRQRBQ4XDWURGaXVOOox+Ta1w+ZUXAmKTUFBQiB+6t0R4YgqHu4ggkMeDwgmLnNoilgiCszsmtreHs08oi0vJO3XxlVeJd6O4H0QYCNfKGnk8qF90XfJymWiqom9jK1xw9cKl116Vnc6ZPhRiKEUQWjfgLJohW86UeE3ehkRxSIRc/pSGSOE/8h6ZaKlhbDtbrLj4CH5RCeyRIYJAoY5igrB/ohOnLN7+jDgSyatKyI0NiJhYlQW/FFqgMAJ5AnJz8qBVQwOq6srw9wxir0ByQgqGTO4LZVUlPL3zAhcOXYdNYysMndIHh7ecwYc3Pth0cgXy8vLg7eGP03suwbi2IYZP7Y/Lx2/h4bWnleIsHCAaAgJBEIEgHHM5iVvvS7utjNQNsaT3Qpx/dRHXPG5WeJXGpvaY1XE6NtzeXBJ2KD54WLMhsNCrg/W3NiMhPQG9G/ZA/8Z9sfHWljIahFH7xpe5R3UhCJ+KFCsCokktA3blrr36tFQGwMzOzWBvpofJ+65wTLi48aZEH4GhLWw4Xr/l1gs2EuRd2DWuJxv2YoJQfA4RDno5E6GIT8tg70B6Vg7ohegWEsUk5FO1evE9RPuqgLUNNAbSFtALllap9ALuZW+BPo0ssPjMPYTEp0BdQY4NFxk2cvFTeihlP2y/85Jj4eTmJiEnff5XehC+liAQfjQ+WvWuu/a0FFbkBRnVpiE23HjGAkNarY9ta8uGaclZCjGItrcFeRBqqCljQjkEYe2wTuz63njDpZRHonieKiMI33drztjOOX4LWbn57G1Z0rcdQuOTRSII78NisG10d9zyCGBiV9VGepjd43vBKzKOn3N6Psh4D2vZgENCVSEIN976cpiO5mR6p6Y8lin7rzCBIGJG/SNdBrV1wzpxqIEIAhFDCkGR0Jf26yDNAnkU6HwOMeTkMjmlEA2FEz6dt6p8H5SVldG7d2/Y2tri4cOHuHTpkshEwYZCIrS/we+tfiMLmFmY4MqJO/Bx92OhIqUwaupoYN2C7UhLSUev4Z1Ry8IMx3ecQ4h/OOatnQkNbVWc2nMJr53fwmlkN7Tt1gKrf9iMiJAicbLQvh4BgSD8SYIgKSGJmY5TYaxpjIfejxGeGMHegEam9tjxYDcikooUwboqutgw+Df4RPnimf9zxKbGwifGD1m5WWhn0YYzE5x9nyEmNRZdbTpDQ1Ed629u+tcRBFKuU9ydDPRDz0BEJadzGKCWjjrm9WrNqzkSu1FaG63UKTxA+gBa+Yxvb4977wJYLEerRCtDbfYuEEEgtTjFWCnuHhSbDBNNFXS3q4tbHn68EiQle297C/RvaoUn3sFwD4nmGDWp12kFJWp8nuaStAPkQVCVl2GPBq247r0PZO8F/T0zJxeX3njD2kCHhYRHnN9ybJt2oNw7oRey8wpY/EZEg+LwQXGJIhMEA3VlfsnrKCuiU/1aeOEfzq5ziiGTYaPV8dcSBBojkQC6/mVXb8SmZrA4jbAmXcUvAxxZD3L0iTsMNJTRoV7N31fG3lUSKVZEEJqbG2Fm56Z4ERCO537hnG3Q1NyQ5+zya+9KPQj9m1ihp70FyLiGJiSzmJWeL/I8ieJBuP8hCJMd7dG0thELZL2j4qCppMDj3HzDBX4xpUN85b061g3tBB1VRRaRyktLo2vD2tBTU8aBh25VIgj0PSEvGBExImfX3Xxx6vl71NbRwPIB7TmT52VgBIcOWpgbIyQ+iQkChdHIi0FCUCIkqvJyrPEhD0ixSJHGQ/NMItfXgVGslyCS/tI/gsM1ojR1dXWMHz8ebdq0wYULF7B3716RCQJ5HZhZ/976jurOIsU5I35mciAmLgan4V3QtnsL3tsgJysXnfu1g8v91zh/8Bof07itLYZP7Qevt76ICovlEEVifDLWztsmUrbI/9i7CuiqriW64+4OEZLgGtzd3bVQoMWdUooWKkihWLG2uEORIsXd3d1DCEmIuyfw157Hi5AXEii0/HJn/a725105Z+69Z/aZ2TOTmzkqxyghhje+AzamNhjVZAR2XN2Fk/ezuq1sTW2kCFKRPIXBOgmpL1LxIPAhVp9eh6j49Phe/aJ1ULtobRjq6uNh0GNsurBFUiGN9IwkE4IgIzE5Abf876CEczEsP7EaN/1UNRPqFKmFBsXrYfSm8VnGWjZfGbQq0xwrT62VMAfrMQxvMFius+PKzly/3/pmtvBoPgxhd04KUfFtZMir3Q1DDDlJBU9ndKhUDMYG+rjjF4RVJ65KahYBQbdqXrIYcu2gJ2HnpXtCPGM6YLfqpeQYCneD3B3q6eoI0Y0ehe41vFDM2UHy1hmaoMEk41vtEmbctlmZQqhR2E3IawwDkQvAYk6PgnJe9DPOi7HfVuWKws7CWMY+cfMh4V5wEWb8mzs4un3P3H8qRo0xdQrj5dzJ2ZgaC2mulCuZ/LEYv/FwTmqT3+uX9ETrckWzHBsZG4/vthwRFzRBBI0IU9vUBW6YLkr3eW7FydJMGP4FHK0lhn/qng82nLkppxMI9alTFqaGBhJOuuTth83nbosrPbfC3TD5H/S2vC7cLZMMybmQO0IPUkRcPNaevI5rT5+jqVdBkIg5dcdxqZ3AsXI3TeInDSZ30fQiMA5PoHnbL0ji8/7hUVLXoWEpTwFYfDf6168gelIDj4ve/jj7wFfeIXqt+K7yv/muMP1x/r6zCI3JeZ4edlYY0KCiGF0aeYIrhjWYcnro1uMc1aQOMVx+7A83e0vh2JAbsOr4VQGk/B6aMl2zmIfMNzwuXjxrBHDLj14W4M3/7l2nLFxtLGXsnAdBLUESgTe/B4JAZqHwv6lnZhGtP3Mjx4wX9QQcHR0xcOBAlCpVCvPnz8eBAwdyDRBeV0KDNrVQsVYZ/PT1PMlWoJhbmqJVt8YoUNxTwhje93ywbfUehGbgpzTpWA+VapWBto6OcBDWLdyS6fccla0ckKMGFA9Cjip68wHMaDA1NIGJgQmi4qMRl5RzKlPGK9ITwZRInqep0NLfHN7/zekEBnTNc9FjEaCMoQDmptPwMiUuKj5J40JEg8hjuKMmt0BT7j/Z2sxgIMDgPd63cCF2sDBBZGxipnAJ70MSGPP6OT5HS1OMbVVT2PnMv/9/Ej4nem2SklPFYL1buac3z5hAge8CSa4s+fw2wnfFkuempErdgHesRyWGk0aez4uZMW8zT74HNNLk4+Q2u0M9RzVA+PmvkwJw9HV1s7zPBA0ExiS50uC/XhiNYQX+LYpFhwz0xVvAd3/BgfOZCkupvwd62UhafBspWLAgxo4di6CgIMyYMUP+/SHEysZCqihmBAYZ78NMCAMjfUSGRyP1tWJXH2I8n9o1FYDwqT1xZb7/igZ61PASzwl32wwFOFqYSqydueyKKBp4HSAwZfFdS2k3K11QyIwBkTHisWLWD4mbx+765DoUlNMTKV68OPr27YsdO3YIB4GEQUX+expQAMJ/75kqM/oINcAYL8MkqgqKCZIWyn/edYf7EU5RGdJ70ICbrYVUOdx79cFbZdhkvDUBAfkcFkYqD8hd/xAw6+F9NkkjSZFhhoCAAERHR7+HmSuX+Bg1oACEj/GpKGP6z2mA7mBDXV1xC5MnwXTNt+2Z8Z9TijKhLBpgiIQ8GenXkU0fipzUxpi9oZ6OhOvIFUlKScm2H0NO11J+/7Q1oACET/v5K7NXNKBoQNGAogFFAxo1kAUglCxZEhEREXj27Nm/pjKO4d69e0hMzF11tn9toMqNFQ0oGlA0oGhA0cB/VANZAMLXI0fA2dkZY8eM+49OWZmWogFFA4oGFA0oGlA0kJMGsgUIX48YmdO5yu+KBhQNKBpQNKBoQNHAf1QD2QKEYUOH/0enrExL0YCiAUUDigYUDSgayEkDCkDISUPK74oGFA0oGlA0oGjgE9SAAhA+wYeuTFnRgKIBRQOKBhQN5KQBBSDkpCHld0UDigYUDSgaUDTwCWpAAQif4ENXpqxoQNGAogFFA4oGctKAAhBy0pDyu6IBRQOKBhQNKBr4BDWgAIRP8KErU1Y0oGhA0YCiAUUDOWlAAQg5aUj5XdGAogFFA4oGFA18ghpQAMIn+NCVKSsaUDSgaEDRgKKBnDSgAIScNKT8rmhA0YCiAUUDigY+QQ0oAOETfOjKlBUNKBpQNKBoQNFAThpQAEJOGlJ+VzSgaEDRgKIBRQOfoAYUgPAJPnRlyooGFA0oGlA0oGggJw0oACEnDSm/KxpQNKBoQNGAooFPUAMKQPgEH7oyZUUDigYUDSgaUDSQkwYUgJCThpTfFQ0oGlA0oGhA0cAnqIFsAcI3I0d9gupQpqxoQNGAogFFA4oGFA1QA9kChLFjxikaUjSgaEDRgKIBRQOKBj5RDWQBCJ6enggKDkJMdMwnqhJl2ooGFA0oGlA0oGhA0UAWgJA3b174+/vj5cuXinYUDSgaUDSgaEDRgKKBT1QDCkD4RB+8Mu2314CWlhb09fWhra0tJ8fHx7/9Rf7GGUZGRnL2ixcvkJSUpID4v6FL5dT3owF+C3p6esr7+I7q1NXVlfWE3/PHKApAgBas8rji5YtURDx/9jE+IxmTVd58eJGSjMhAv2zHqK2rCxtnd8RFhiM2POT9zkVLC8BL+d8HES0t6JqbQEtXFykRUXiZ+uKD3EbTRXUtzKBnZQ5oa+NlSioSA4LwMjkly6E2NjaoUqUKHBwcxDivXr36H/uwuZB0794dBCkBAQE4ffo0wsPD/zEdKTdSNKBJA4UKFYKXlxe2bt2q8Vtws7VEUkoqAiKi/zUFOlqagg7xwMh/J2xuZ24CEwN9PAnO+r0WL14cRYoUwd69exEd/e/pKLuH88kDBG0dXTToPx5JifE4vHjae3+JzWzs4VigOPzuXEVcZNg7X7/Nt/MQGxqMfQt/yPYaZrYOaDz4B9w/ewhX92x853tlPFHbyBDmZYvBtIgntHR0EO/jh/BjF5Aal/vds7aRAQxd8yAlLBJJwZp1oKWrA5sG1cRQB+88ipTIf+5jsaxWFta1K0HH0ACp0bF4tnwLkgKzAizycwYOHIjk5GQ8fPgQK1euzD1AoPfBzhoEIwm+AXiRkPhWz0dHRwdffvkl8ufPL+ctWLAAPj4+b3UN5WCVBqyd3WGd1x2Pzh9RvDBveCkqViyMgIAwPH0apPEoMzMz9OrVC1ZWVvjxxx/lu3hdJnWoC7+waPx28PwH21vk9F4PblgRKS9e4tcD53M69K1/tzA2hIu1OZ6ERCAmQbMXoEvVkijp6oixGw7gxWuhe64pkyZNks3G7t273/r+H/oEBSDo6KLhwAlIio/FoQ8AEIrUaIKGA7/F9mlfw/vyqXd+nh0nLUFMWBB2zRqb7TWs87qh6/Q1uLpvE46vmvvO91KfyN28da0KcGjXCAnPnuNlUjJMCnsg9NAZPP9jl+y2cyOGLk5w+qw5oi7dQujBUxq9EAQIto1rQM/aEkHbDv6jAEHXkh4EC1jXrADLyl54NOU3JPj4Z5maGiCcO3dOPua3QfwEVzb1q8C0eEEErPsLif6aF9036dPCwgJNmzaVHZsCEHLz5mk+pkqn/ijfsivmda2JF6lZPUXvfuX/1pkbNozHvn0XsHz5Po0TK1OmDPr3748VK1bg1CnNa9umYR3x8HkYxv1xMItx/Ke0NbBBBaS+eInfDl5477cs75EXbSoUxcrjV3DXX7PXdmTzqqhS0A3tZq1H6msAgR7B0aNHw9TUFDNnzkRY2LtvIt/75DSlOX5sJEVdfQMYmlrI7vtNH7OJlS30jU0REeAr4QK18HxTG3tEBQVkez69CLRaL1I1Gzwjc0vo6BkgJjRQ4zPQ0taGpaMrEqLDER8dmemYkg3aoeWon7FhfC88OHPonZ+hjq6e7HY06UDfyAT6hsbQNzFF12mr3htA4I7XuU9H2e36rdyKlPAoOPfrBGN3Z/j+vgFxD9J3sNQBvQ0vkpMFSGQUI3dnuPTpiPAzVxH812GIv0+D8BrQgubwgraW7L5TY+I0uv/lctpa0DEzwYu4hCzH0EDrWpjiRXwiUuMTNN7frnkd2DerlSNAOHnyJLZv347U198XbW3o21nhRWKyCuBkmCcBkH3zOjArXRTPlmxCwtOsACRtUFqArpkpoKWFlKiYtOsw1tuyZUtUqFDhXwcIOrr6MLNzRGJsNOKjIzLNVfW96CMmVDMIMjQ1R0pyElISNT+H3HwkDAvGRoQiKS42y+G8t7l9Hrk+x/DyZeZwVZ1e36BKp76Y0rDQOwEEvqcW9nnl3KjggDcO19DMAiaWNgj398m0vhiZWYLXyc6rqK2tA3OHPHj54gWiQwLfaZwODlYID49GUpJmEGRgoAcrKzMEBYXjxYus3+ShQz9j27ZTmDdvW5Y5MuTVrl071KhRQ3bAJLZrkpwAgr6ODgz0dBCbmJwtgGBw09hQDzw2Mi4x03EGujxfF7GJSQICNInOK85Q6ousYUsaaFN9PTHcca+tW+pr8f4OFqaIik/Mcky1Qm7oWq0kFuw/jxu+mu3DmwAC78HvecCAAfj9999x5syZ3Lz+/9gxH6UHwdzOEV/M34awZ97iDtQzNJLd89553+PJlVNiKLnI8EOnq1BbRwcOnoVlZ+p95TT2LfhBQELjIT/Ao1wNpKYkyUJ2av2vuL5/K1KSEmBsaY26vcegQMXaMDAxw/0zB7Hlh4Fpiido8ChXHU2G/ggaYIbg/e/dEC9D4KPbqjGYWaB8y89RpmknGSMPCnnyABu/6w+3khVQs8dXsLB1hIEcI8leAAAgAElEQVSpGRKiI2VR9L11GQd/nyILRm6k+cjpyF+hFoxMLeB99TTWj+mZDn4MDFH7ixEo06wLUpMSEe7/FHb5CuL0H79l8iCMGzcOFStWxL179zBy5Mjc3FaOMc7vCo9xAxC4eS9C9hyXxcqsVGG4De2OgLU7xJOQ//sh0LUyR2psPAzsbQQgBG7eh7Aj56BtoA+34T1g7OECHWMj+Y1gIyUmDgHrdyLqwg25j2P7xrCuW1lc/NE37sNv+RYkh0XIbzSsFpW84Ni+EXRNyVHQQfT1e3i2dLNwFYw9XeEyoAvivf1gXCgf9ExNkBwZLdfgcTTS9q3qwa5xTWjpqMiFyRHReLboD8Te986ki3cFCPS02NSvCoeWdQEdbeEJxPsFImD1NsQ9fAr7VnVh16QWtA0NoK2ni1QCmNRURF+5i6e/rpUx6Jqbwm3I50iJjoWetQUMXZ3kfQ7ZdwJBOw4JsHlXgGBgYABzc3MwTKFJAgMDc+Vq53c2ds89PL58CsYWVrBycoWWtg4OLpqKK7vWw96jiLyPzsXKiN5TU1Kxc+YoPDx/VN4de4/CaP71NFjnzYfEuBgkxETC2Nwaf3zbGwH3b6BenzHIU8QL26eNQOTzZ3ApUQ7dfl6LnbPG4vr+LdA3NkG5Ft1QuUMfAfS85r1T+3F89TxEhzyXqZVv3R3VugwAv18+h9TkZPz6RX0kxETBq1F71P5yJAyMTaFvZIyYMO74XuLhuaM4snxm2jWy+0Bo0Es37ojqnw+Bnr6B6Cw5IQ7HV83DzUPb5PumlG7aGTW7D0XgwzuyLukZGPJNxm+9GgmPqHq3wShep4WcT94TNzd3ju7Cgd+nyBpSqn4b1O83jjOEFrSQlBCHNSO7IszvSY7fLtep0qXzY9y4rtDR0UZUVCxSX/F5vv76d4SGRsHW1gJdutRBzZqlZF3T19fDypX7sH37GeTNa4N+/ZrD0zMPrK3NkJCQhLi4RAHDP/64BjdvqsZga2uLvn37IiUlRQxbRITqe31d1gxqh0fPw/D95sPIaJ6X9mklRp33tzQ2kv/+Zc9Z3PEPTrvE6BbVYW9hCp/gcJTzyCvP89R9H6w5eR0pqanoXqM0qhdyE+OemJyCtaeu49gdb8HltmbG+LyGF0o4O8DUUB/3n4eKF0Mt2lpaKOvuJNcwMzIQouBVnwAsO3IZ4bGq8KmlsSFaliuMmkXyqYjJL4GLj/2w+uRVlMmXBx0qF4e5oQEM9fUQl5iElNQXuOsfjBm7TiMjGBnWuDIqFXDBZ/M2ZfEg8D7kNi1cuBDbtm3D+vXrc3zG/+QBHyVAsHDIiy8XbBOPwInV8wQclG3WRXaIq0d8Jh+lkZkF6vYZLR/sk2tncXXvJhB18+O/e3IfKrXvhTLNOuPk2oUI93+CojWbwrFAMWz+fqAsRtxlOHgUgYVDHlTvOhgRz32xcULfNN07Fy2D1mNmI8z/KS7vXCtggIY49Nlj7J33nQCOUg3aok7vUbh3ch8eXTguMXqPstVeGeeXsHcvhPwVaqNimx44vnY+/O9eR3xkGAIf3ZGPPjeSt0hpmNk4oMmwSQh+cg+rv/4s7bQS9Vuj2VdTcXXvZvhcO4uS9VvDs3wNnFgzLxNAmDBhggCE+/fvY/jw4bm5rRzDcILnuAF4tmwzwo6clb/p29ug8KwxeL5pD4K2H0KByV/BpIAbgvefRMz1++Ki53mPflyApMBQARlGHq6wa1QdMXcfI/LcNbxISUGC73OkhKu8LYYujjDI6wCbOpXAVeTZ0k1pXAWDPPZw/6Y3Ev0DEXbiosTxndo3RuiRc/BbsQXGnm5wHfgZdIwMEbBRFcOza1wDsXceI2DDTgEuNN7aBgZIeBYAbX09OLSuDx1TE9z7ZjpeZPAmvCtAEA9J305IDApFyN4T0DEykJBF7D1v4RsYONnBwNkRlhVLwdjDVYw+uRjJ4ZGI91YRY+kdcRvWHaZF8iPy/DVEnLsGHRNj8ZhEXb4lwOpdAUKxYsXQs2dPiRVrEu5eEhNz5kTQ6I4/8FDe/dvHd8P78mmY2zoiLMAH3pdOofXYOfKuXt61HjHhISjfshv4LdN7FhMSiOYjf4ZzUS8cWzVXQH2FVt1h6eiMlcM7wf/eNTQY8C3yFvHCtqnDBey6eVVGt5/XYOesMbi+bwvKNO+Mqp0H4O6JfXh86YQAjtJNOuLi9tXyDw30yG1X4X/3Gs5vXSHfo7tXZRxbMQcJsVFyL3v3wijZsC2KVGuITd8PkF09d+j8tlKS3qwDri+FqjeEnWt+BHrfFfBRom5LOHgWxZ5fxsPnuirGXa5lN9mchPg8wLV9WxAR6Id8pSrKBsXNqxLq9h6FW4f/wtPr51GifisUqtYIF7atxL7534u3dNDqowh/7otjK+eIYcpTuBQubV+D6Gw8mBmfqY2NOaZM+QIGBvpYvfoA+P9bt64mhnjQoPmIiIhBt2710aBBWezefQ4PH/qjXLmCqFu3NGbP3oILF+4JODAzM8aPP/bAuXN3sHPnOcmcuX37qQAOCj3NQ4YMkTWFRi0uTvN61r5iMYTFxuPQzceZXr21A9shISUFu6/cF/Jgq3JFxFCPWLM3LZb/beua8MrnhLt+wTh82zuNI33u4TM09SqAFuWKYOflexL/r1PUHcVcHDBy7V74h0dDX1cHrjaWsDA2QJ+65RAZl4Bv1u1PG0N+B2tM7lgPl739cfTOE1iZGKJ52cK45RuEhQfOg56JFuUKo36J/AI6bj4NkmOsTY3l/xNgONtYoKSrA2oVdceuy/fhHRwuXoaHgWGZAHeVAi5wsbXAxjM3NfIwGDqcOnUqrl27hmXLlmnkcuR60X7PB37UAIHoevmQtrJToMGv0W0Ilg1qg5CnD9MAQsFKdbF+7BcIeHAzTTXGljboNGmJuOVWDO0gu4QCleqg0eDvcXbTYlzYtirtWAKFzpOXisHOCBBq9RyByh1649yWZRK24ILGa3CHs7R/C0SHBqHT5KXiqdg1e1xadoGugSFSk5NkzJT3FWIYtPY4IgN8MwGEz6avhp1bfiwd0EoWj0JVG6DZiKmy2GTkIDRo0AD58uUDd4p0jedWTIsVgMfoPvBdvBHhx1XxO317axSeMx6Bf+4XzwIBgpGLE24P+l7c4fQwOPfugKAdhxG6/6Sck5sQg5aeLvJ+3loAQEaAQAJhns9aiEcg8vx1uZ7H+AHQszDDwx/mw8DRTgBC9I178Fu6GTrGhnDs1BT6ttbwXfSHeBm09PVg5JpH3P8ECublisOsZCE8+PYXJPikZ4W8K0Awzu8moRjyNMT4B4bKfTNKTiEGNUDQt7HC/TEzkRqbdcF9V4BgZ2eHkiVLQp0m+frz37NnT9ZwiYaXRA0Qnt2+jD/G9xYXv1oIhr9cuB1Prp7B/dMH5f23dnFHmSadcHjpzwKOm4+cJkZxz9wJ0NU3FDd/lY59seqrzjkCBIbnGg3+Dq4lK+L0ht+QnBAvoL1YrWby7e2aMx6xESEYvfMmnlw9izMbFyPU95Fk87xe0+XvhBj4fdu65gf5Pry/dZ588GrUDvsX/ojrB7amAYQ6X47EsVW/4MLWFWmhBXoq6/UZDTu3ArJmBPs8EG9Kv6X7cGnnOgEI9CYMXHkYQd73cHT5LPEaMEzyIkPY9E3fb5UqRTF8eDsBBzt2nIGpqSH69GmGChUKCUCIiYnHsmUjERkZg0OHriA+PhGGhvro1asxjhy5hunT/0i7/JtCDFxPvvrqK5w9exZbtmzJFcDMOO41A9vijl8IZu0+jfikZDQuVQC96pTF5G3HcNlbFbYhQCjl5ojhq/fANzTz9/R7rxaIiEvAxE2HkZCcghIu9vimRXVsOXcb2y7eyaSi2d0aIzk1NRNA6Fu3HBqUzI/N524JQKF3on4JTzDrotvCLeKB6Fu3PEKj44RfEP2KgMhwhYR6X4UPcxNiyGm9pXdv/Pjx8PPzw5IlSxAbmzVsltM1PtTvHzVAuHtiL3b/8q3MvXC1hoLK98ydiLsn96YBBO5Qtk39KlNaHz0DrcfNweNLJ+XDpeQpVBJNh0+G95Uz4uJXS3YAoelXU+DVsL2ELMTYMy6sZwByAbZMGoz4qHAMXHUED88fw+4549IAwesP6kMChMFrTwgYWdijrtzWMX8xdJy0GFd2b8gEEBgvpHuZuwBNTOPsXi6TIp7wGNtPDG/Y0XOvAIINCs8eq/IgbDsoAEHX0hx3Bn4nv9M17jakOyIv3cTz9Tvlb38HIJAgSa+EcB7uq9ybTl2awbKSF7xnLBWDT4AQsv8UQnYfBYGGQ9uGMPZ0ge+v65EcFgmH9o1gUaYYUhmnjIkTL4ihox0e/rgAcQ/S3bbvChB0TIxg16wOrOtUlOuTqxF98wHCjpxByqvUqtwChOTQCDydv0bjI3lXgMDnb2Jikm2IIbfEKAKEcfsfiLfur5+/yTTG4nVbosXI6WL0YkKD5Xuh0L1+4+A28dA1GTZZDOb5rSvlt9JNO6Fe37FYO7JbjgDh2a3LaDLsRzGoQd735Xvjok6DHfTkHk6smiuAhV5FetISYqIRHfocPI9gOSN3510Bgp6BEUrUayXjpsRHRUDPyAgO7oVx4NdJuPIqc4gehCod+2DX7PF4dOFYmp7IzWDIkmEZrkvkLzA0OeyPMwIuCBAYxqjRbSgqtO4u8yE4ICA7s2mx3C8nadq0Inr3booxY5bgzp2ncnjPng3RoEE5DB48H7GxCdi+/QcEBUVIdoJkL9NbaGKI69cfY8mSPWm3eBNAcHZ2xtChQ3H79m1s2LDhrWuCrOrfFucfPcP8/ap1pZSrIya0rY2FB86leRsIEFxsLNFnSeZNDYe8aVgn0JPw807VJsTaxAgzuzWSv71ORtQEEOg9KOxki3OP0lPbDfV0xfMwZdsxOFiaYWijyjhw4yH2XnuYKWSQ8Rm8D4BADwJ5HNQlPQi58ebl9B68r98/aoBAtz3jkRSGCBoNmoht077G44vH0wCCoYm57B5osNVi4+KBdhPm4+nNS9jzCmDQdUmA8ODsERxZNiPt2OwAQpOhk1C8Xkss6t0EKcmZXY9xEaES4+yzaDd8b12UzILsCI4fEiD0X34QOjq6mP95LZkP59j+u1/FxZvRg0ADwX8YR3wbgGBcwA2e4wcIXyBk30mJKzN84DG6L/zX/SUeAgIEfXsr3OqtAnIEA66DuyHi3FUE/qFabP4OQLBvUQfWtSqKNyD2rspN6dStFSzKFoP3T4uElEiAELznOEL3nUgHCPld4btwnYQzCs8eh4hTlxD81xEhL9o0qAr7ZnXwcNJCxGXgIagBwuMpvyH+DVkMmkiK9FzomJvBJL8rLKuWgUkhD/iv2oqwoyq3c24BQsLTAPGWaJJ3BQj0HvTo0eONIYbcFH1SA4Szm5bgwG+TMw0xf8VaaDHyZ9k1kxeQJi9fincuT0EVQOdOmedTGLKr13cM1nzdVQUQ+o9H3qKlsf2nEbJzpseu44+LJcRAz0PjoT8gIToKh5dMR3JSOsGRrn5yDOjNY1jS0j4P8hT2glfjDnDwLIJds8fi5qF0I/MmgEDQwd0xM1aioqJw69attB0dPQfcOHBs5zYvFYNt51EI7b5dgAO/TcKV3ardNwECPZ47Z47Bkyun01RBYiK9IBzj3vnfCc+CAOGrzRdxde9GAQgUEo5JAKXOCEjI6aC+1dfne1CwYEE4OTlJJg2zatRSp44XBg5shalT1+HixfsCor74ohHq1SuTBhC2bJmIAwcuYdWqA5meYVJSMqKj09OX3wQQ7O3t0a9fPwktLF68GJGRmcnZORmo1QPa4pK3P+bsUZHyynrkwdiWNTF/31kcYTjhlQfBxswYw1algxb1df8Y2gHXfZ5j8rbj8icHCxNM69wQR24/xsrjVzPdXhNA+LZ1LRRzsUf/pTuyDDUiLlFSFwc1rIQz959i55X74oHQJO8DIJCDwKyknTt3Yu3atbniA+Wk3/f1+0cNEF6kpGJet5p4+SJFCIkkBM7tUl1ciWoOAt12u+d8mwkgcFfRZeoK2Lh6YG6nqsJiJimIxJ/9CyfhxqF0Vm52AKFyxz7CTdj0XX/4XD0jxBctbS1oaekI6ZGGucU3P0thoj3zJiLg3g2Vl0HfEMmJCWmZFEVrNUXbb+fLonfz8HZ5+OrwQ44PUYv3I01JCwNXHxFCE3dbJC/xGq3GzIZnuepYO6o7grzvSjijfr+xOLdl6XvhIOg72sJ1QBckBYXBf+0OpEbGwKlrC5iTib94I2JuPxSAwN363a9+QtLzYFhUKiWhAr812xFx8pJMkRwDlz6dEHPnEZ7/sVuAhrh91Sx/ZkDo6SJPt5avQgybkRwSriJFehWF26DPBJCE09hqaaHwL+OREh2DhxPnwsgt7xsBAgFE/gmDxOhGnL4i53tOHATjfM5ZAIJVzQrI260lni5Yi+hrdzOPERCjwToIWQACn5GQmFTzIufAfVQfhB46jeAdh0UHkubYoCqsapSH35JNwj3IqAN1iCHBJ0C4FZrkXQECCzuVK1cu2xADi9xkycjQMIA0gLBxCQ78nhkgmNo4iGv80o41OLp8plyPu1PuloWg6F4ILb6ZjuAnDwT0k/hbvdsQlGv+WRoHgQTHglXqC+AmYKjSqR9q9fhKAMLtozvRYOAEeJStjqUDWkoxMO4kSTzla0QgSNHR05Nvj7p1LlpaQo2n/liE0+t/TZsRQxsMASzsUU88Gxm/SXraPv/8c7Rv317qTEybNg1Pnqi8THkKlRKexZmNvwvvh1Lj86HCMdpPD0JGgNCul4w7I0AgGKjWeQCK1GoqHhjWRiEBucOPi9I4CPzetZmx9GoOvCf5R0yRVns+ra2txThXq1ZNwobkl6ilVCkPjB7dGefP38XcuVvh5GSNgQNbwt3dUUIM0dFxmDt3EAIDwzFv3laEhkbLc9LW1hI9pmRIXd6/fxpOnLiJKVNotPh6v0j7ZEl87dy5s4SuqCOO422EHITHweGYvfu0hAo6VSqONhWK4dtNh3DHT0VUpAeBMX+GGF6XWd0awUBXF2P/OIDo+CRUK+SKfvUqYNXxK9h7/WGOAKFT5eJoV7E4fvzzaFr2geheG0hOeQFbMxP0ql0G9CowQyE0Jk6lJy0tyfhQpyuSrNivfnksOnQRl5/4C0/i9VoHOemlaNGiGDt2rIQXjh49mtPh/+jvHzVAYIri0xsXxVXoUaYant68gJ0zRiM1JVnif4znaQII1CBJjbW+GIHnD29LPM+9TBUkx8fhz8lDM1UjzA4gME2q2fApEpq4fuBPqZNAljZjn/sWfI+4qHC4Fi+HlqNnITYsWIiSvBbJSJu+H4iIAJV7z9LJFT3nbpYsBoY8Qnwf4c6x3bkqmsSMhIKV68LAxBzlWnwmRKubh/5CfHQ4bhzYBnN7J3T44XdJ4fS9dQnuZavBIV9BITcdX51eB+FdSYrMQrBpWB32zWtLjJ+EP+uaFRF+8iL8V27Fi8QkFUBwd0bsQx8hBpqVKiREnMc/LpDjZdE2NkKe7q1hVqKg8AjI1I+8cENS/WgYaZi5AzcvVQR010deviXnSshAVxduQ7oJyz/q6l0Y5nUAQx8BG3aJx8C4QD7NAMHTFb6/rpN0Q3oQGNPnPY3yOcO0qCe09fWzAASOpcCk4XJvZjhwztFX7uDlK+OTHUAwKZYftg2rg+GBxIBgmBRyl3/8V28XUqYKIWjBtFh+uA7sKvOO9w1AwhN/0SXlQwKE97WipAOExSrGfQZhKIEGn0Cc72LYs8cwsbZH3kIlceC3KfC5dg71+o1FueZdcGXPJjHKRWs2EVKxmoPgWaGmEIPJVwj190GBCrWEWEhDy8JfnuVrykaBqzA9gQz30eNAI0yvBP8/eRAPzh0W97xryQpwdC+M7dO/FhKxWnidVmNU8X0a6ecPb+HeqQNCvnwTQGA4s37fsbDNV0CI0MwsKla7ufCTMu7wxYOgASDw/iQ/05NCQiXXJo8yVWBm64hLf62TdYVrTLuJC4SEyfCCU8ESsgbtnTsR906rdvxvAgg09CNGtEft2l44ffoWmMro5ZVfuAcMMYSFRUn2Qp8+TfHkSSDu3n0KY2NDFCvmhj17zmPXrnRvxLRpveDpmRdnz95GZGQcdu06C3//dN4Jq4r26dMHv/zyC65cufJWr9mage3k+Ks+zxEaHYuaRdzxKDAMk7YeTSPyvQkgsP5Av3rl4RMSgcdB4ahcwEXCACPX7ZeMhoyiyYNgbmSAH9rXkZDCmfu+Uu3Rw8FKNmNTth8X8Fn1VQqjf0S0kBRtzIxgrK+HP87exPMIVVVGG1MjTO1UH2Ex8VIH4VlYJA7f8n4rkMBQjYuLC2bNmpVtuuhbKfc9HvxRA4Qn185JLrORuYWwmi/uWCOpjxSicS4wugZGuCEGPDOpi/FCryYdxIhzt0Ii083DO/Ds9pVM8UimO9GNyR3Jlh8HZVItQxUEGhaOztDTNxRQQCN/59gu8RLo6usjn1cVFKpaH+Z2ThJm4GLDxYppXGopXL0xPMtVk51BqO9jSdmKCUtP58nueZK9zAXIyNQ80yGstUCWNudUrHYzFKrWELp6+rI7Y5zz4bkjuJ+h5kKLFi3g4eGB58+fS7zwbYS1A6yqlhWXOVP4Ev0ChYjH2D5FOAjmphJSIGEwNSZWMgwktp8hL9koX15YVi4NFiV6kZAkhpF1FEhKtGtWW1IcXxd6DegpoFG3rllejmWNgdj7T2R3znoL+g62kv3A9MiYm/dlR2letrjwDJh5QWNP0GJVowJ0DPWRHB6NBP9AGOZxQNBfh7NUTDQtWQiW5UtKtgPTJCPOX8fLVxXi1AAhKChIFsTDhw9LyEbfwQZW1cvDyC2PpHayGmPU9XsChjJmSRAomVcoCZMC+STkQIJk8G5VjJpZGMy2YHpn+CvPS0Z90HDVr18fpUuXllDBv1EoiV4SZs3Q2N4+tivL8yI5WFziRUoLcE+KjxFwfmX3RkkhZKXPCq17SuqfGGM9A0kHpgeMHgOChQpteopB5PfM8J1TgWK4um8LfG9cEC+Ne5mqKFK9MZgKTZBBsjC9Cz7Xz0nYj15CVi+lJ4+A2vvSybSdvXrA9Grwu2ZWE7ME+M3eOLRDvJD8/zR89LiEhoaCBM6QEFUBHN7fpVhZlGrYFmY2juLJDHx0FxaOeQX0P72hIvLm86os2UTX9m1GyNNHmfREEMPsDAJ/gqqgJ/dRrXN/AU2Hl0wTkiI9JwRGXOOoJwKgGwe3yyaFQj5JrVq1UKBAAQmDMG6dUSwtTdGqVVXY21sgLCwGbm4OcHKywjffLEZYWLSQEqtUKYby5QvByspU6iTQ8DPs8OhRej0DZ2dbNG9eGaamRqLrjRuPZaqqSNc4Ux3pLfr555+F45RbWdW/jRAPn4ZGSnZASHSckAv5b7U0K1MIpgZ62HAmnYCe9gwB1C7mAa98juJJYGriwRuPJIPgdZnXo6lkRozZkDmkksfKHA1KeMLewgS6OtqIjk/ElScBOHlPtbljJkNZ9zwo7e4EKxMjIUPeeBqIE3d90uohkLRYziMPvNwcoaerA/+waGy7dEdjXQlNunF0dBTd7dq1663X5tzq+u8c91EDBMYrT61bKIsNc6YZa3xbIQAwMDYT405Cn1roiiRwcMxfHI0GTxSyIYlGmoSxQ36sjDkmJ2YtMcxrGVtYi5szI7M7u7FyYWCqFUGMJqGHhDsbpmvlLFrQNzYWgBAfrYrDfgihcWOaKUl4GYUAQdtAD/e/+RnaxoZitF9kU3Dk74yLLnp6F+i14D9vJXQNGhgIP+FFXPw793mgq75x48YgQYsL5owZM9IJRVpa4inRNtQXUPK2pZRzmg85JKNGjZKQE13frN0eHJwzyMzpuh/id35vhqz9ERstBi6jaGlpC1Dgd1Swcj3xKqwf3VMAAoX9RIxMLZGUECveOk3Ca5ha28ozYJGmjOsCjThTBfm9cs2QjcN77kzLdYN1WAjy37YSI9cySycXRAc/l6JqRWo0RuPB3+HQkumZyqMT6JOLwI0Gdfg23XU9PJxEbU+fBsLR0RoDGJKJS8CcOX+KJ0Et9C6YmxsLQIiMfDfmfPny5VGpUiXhISQk5L7w1cr+bcQQM0OAhvhNhZLe9I6ySJL6/Iy1B3RZtExXG3YWppjcoa7wHWbvzlqEiN8TvQIECLEJSUjRAHJ0tLVgYWSIRK7viW9vg940fgJRAtJ169alAdEP8U2+6zU/coCwVnKYP4SUrN8GZZt3gZG5FfQNjbDph0Hwu335Q9wqyzVZZOazn9fA2FxzXjoXRnoImNv9sYsaINz7+v33sfjY5k4jzZKo5AJQuLN8m4X7786HxWm4oLHzW0xMTK54A3/3nh/y/FIN22UBCB/yfh/DtUl0rNl9mJAQ6R0lhyngwS3snjNe6r28D/nyy0aoVKmoGH1mJxgZGWDx4l04c4Y729zv8nMzFn4L7MlAkmJueCzqa6oBwuLDqhDb+xSGBxhyoAfC2EAf9hbG+Gn7SVx/qiqm9TEJvUHsEPuxNl77KAEC0X/pJp2koJHvzff/AvEFcSpUUgh+ROgsMhTi8zDbTIT3/UJxB0QOBUmPGuUlZPekyVvxvsfyd6/HdEOGHiJO/TPg6u+OVzn/49EAixblK11ZwhXZlWX+eEb7fkbC0IdLsTKSmcAQC2s1sG5ExpDk372Tvb0lqlYtLuGDqKg4XL36CE+ePM9EQPy79/i759cr7oGAiBjcevZ+QNHr4/Gwt0IJVwfEJ6VI8aOAyOhcu/3/7tz+S+d/lADhv6RgZS6KBhQNKBpQNKBo4P9RAwpA+H98asqYFQ0oGlA0oGhA0cAH1oACED6wgpXLKxpQNKBoQNGAooH/Rw0oAOH/8akpY1Y0oGhA0YCiAUUDH1gDCkD4wApWLq9oQNGAogFFA4oG/lvLsMcAACAASURBVB81oACE/8enpoxZ0YCiAUUDn4gG2O2QqYDqglWfyLT/sWmyWBMLbmlq2f3JAwQWVinZoK3kJN868td7fyhSkMnQRNKY3raoSsbBsLFNYly09JHPTliEhe11/e/fkNRNRRQN/Jc04Oxsh+rVS0hxn+TkFBw/fh0PH6ZX/ss415IlPaSCIKsDJrxq1ftf0gXnUrCgMypXLoJNm44jLi5zQ7n3MVczMxZRSkbi3ygOxBLOLNfMZxXxqjyxprHVq1cWNjZm+OOPzL0IjI2NMWfOHKlc+uuv6f003sf8cnsNVs9k47CT6xamVbPM7bm5OY59hZITE5GSoQFZbs7LeIybVyVYOrjg/ukDUjwsO6EdYWlwdY0dVmj94YcfpLYLW06zxkpG+eQBAkufth73izz4HdNHvu1zyfF4l+LlUK5FN+lhH/g4c5/yHE/OcECvX3dIz4WNE/tmexp71HedvgZX923K1Kzpbe6jHKto4GPVgKdnHjRpUgFubo4oXNgFc+ZswcGDmutvdOlSR3oOjBq1+I2G6WOda27GVb9+WenUOHToAmnf/L5l7NjOuHDhvoCsd5UOHWqiZs2SmDlzMx4/Dsj2MjNm9BEg0br1xEzHdOnSBc2aNcO4cePg7a0qs/9PS7kWXaVp2O99mkjJ8PctLb+ZgXunD+Luyb3vfOma3YfDuVhp7J33nZTzz076Lt4rjeN++6J+2iGs5jhx4kSpDHvsWHp7ch7w0QME1ldn0yYWDXpTF0SWVGbhETZFYtcxtRAtsb2qlCvVUEWMRYtY350dGtlQRpOwJDKVmpShv0LG41jdjoWP2J+BnoiM8r7aPbMkK8vGZuwvr74Pm0QR6Jha26Hr9NX/CkBgbwGWM36RmIiXGTrCpemCpYiNDJEan/DG0rfUM/sZsJzyy2xarGb38nMMbO6UU5ljbfZ9YFc2juUtRe6hr4cX8Yka58Fy0Kn8TdO7pqvDT06aP2kbGWa5P6+L1Bcyb5aFZtcadaMo9TDl/jo6qnLW2ZQQluuwpdE7lrzmrsLExECK7GgSY2MDpKa+yHFnaWamquEfE5OuZ11dbWkgFBubKP+mZNyhSulbYwNVGeX4JI2VKosVy4dp03q/ESAUKJAXefLY4OzZOxrHyf4COqy/Hx2vsbqgvj5bpOuI94Hd+95WOA/Oj5ULWco4O2FzJe7U6QGgVyTtOWtpwchIX4obZXd+3ry2KFLEFSdP3tToJeH8WEUxNjYh24qf/J3PJGObZ/UY3tTuObf6YNlnen6uXHkonSQzCsenr68nXgp1Y6iMAMHCwgIzZ86U0uI//vijxltSz3qGxlJGnyXqs9Wzrp70+mB/kNdLc7OkNZtnZSzFn/E6dm75pX04e35wjX9duP7SRtE+ZFdZleXH6a1m+e/XZezee7KBPLpidm7VmuU4Fv5jDxLasNfLm7N8OUvxc+x9ft+dBSDQezB//nwEBARgypQpmbwIHyVAYB3yur1GSXtjW7f80to5zM8H57Ysk/asFFZbLFG3lfxGo+BStIy0ln1y9Qwu71ovnRvLNOuMfKWrSM8DNja6uneT1HwnUGAtdVZrzFu4lFzv2Z0raX3q1dq3yuMqfd0t7PPKwu5784JcIzZc1bxFGq+UqoRitZpJZ0W+oAEPbuLMH4ukEUypBm1h71FY7sGulDGhgQj2eYDLO9dJk5ncSOUOvaXNLK0FG8OcXLcg02mFqzeSBjkcC3XDbnos03x8VXo3x9zc512P4Utv26SmdEjU0tMT4xxx9ioiz15TGToam6KesKpaBnrWltKoKeLMFTlGbeAM3fLAoWU9RN98AJMCbtCzsURKTBz8V/wJy6ploWtiJE2NUuNUdeSNC+aDdc0KCD10BvGPfaVZlE2jGtIsic2a2Eo57NAZJIWEy/HaRgZyPIEB3xVjT1epYslujcE7c9deVdvECNY1ysO0aH5VQ6a4eIQcOI3YWw/kHuwwyXtw7OwcGXXltuiAQMe+VT0YONhCx8wYKZExAi4M8tojKSgU/mt2yDWtqpUVgMU2ctHX70pL7cTAUGmMlfQ8RPRo17SWdImUpln+gQjecxzJweECJizKl4Chi5OUYjZ0zSO6jTh3TdUtMhcGzsXFDu3a1ZBmPjQ8FhYm4r7fuPFoWp1+V1d7dO5cG2wGRMN16dIDHDp0Oc248O+NGpUXffB8Dw9HARKnTt1CSEikNAhieIBG4f59X/EE0CiuXn0Qz54Fi7Fr3rwSrKzYnOyldBDctOlYpgZCvPabAAI9C+3b15Qx0KW9bNleMZBq4RyaNasE/puNmUJDI7Fv30WpNijftI62jKFMmYLQ09ORnfnmzcfh65u7vhdNmlRE6dL54ePzHEWKuMn89u69gHPnXrUPB1CihDsaNCgreqlXrwzMzU0QFBSOHTvO4P79Z6BR7dChFiwsVH0SCHKOHLmaBgLY0rlly6ppc5o7909ERKT3UjA01JPfixZ1E5Di5xciXRq9vZ+nGTDOv3Hj8nB1dRAgFBAQii1bTiA5OVXm7+Rkg1q1Ssm5Dx74CdBZs+aQVGTMjVStWkzCQXp6uvLs//zzpLSYVku+fI5o376GVHsMDIyAl5cHLC3NMnkQ2Odh9OjR0gaZTbMyCpt6OeYvhqhgfzgVKC7G78L2VfC5mh5aZddONrO7tn8L6AXgms+mf7Qj3GWzKVjFtj1haGYpG7s7x/fg9rHdaaHgQlUboETdlmm33TVnnPTjUQuBSaV2XyJPoRJpjfgubF2F8AAf1SFaWjJGlhSnd5eb0eAn92Wcurr6YNdPbuq4+WNTL/724kUqDv4+FVHB2XtbMuqheN2W0tOE333oM29ptx4dqmq9zb/RdvA+RhZWCPf3kSZhDGdk9CDw2C+++AJVq1YVgPDoUXqDsY8SIFjY58GXC7eJYWf3RU6Yhp5dzdgrPq3dc+/R0u0wNTUZd0/slW5u/Of4ql+khCt7vrNbWrD3PemwxuYoW9nuOchfGjUVqtYADp5FULRGYwQ8uI1NGdz3ZjYOaDl6prxEV/dsgqG5BdxLV5GOkue3LJMXkuVS24yfh7jw0LRuch7lqmP92C9gYGwiD47tXQtUqoXbx/ci3M9HHhJbxcZFZu06punD48tll68QSjfpiID717FmZNe0w9gKtsvU5YgMfo5nbPdcpgpsXTxxbNWcXAEEdmJzd3fX+L2zU+H+/ftzXAtowF36dET09TuIe+QLgzz20pEw6M8Dsss1KZgPLgO7yt9i7z6GcX436frot3Iroi7ekOublS4KzzF9kRyh6rSY4OMP44LueLpgjbSItm1QDb6L/kDsHdWL69y3E0wLeeDxT7+JwXXu0wnmZYsh/Ph5aRXLttFRl28hcPNeaZyka2aCPD3bwqJsMSRHxqi6PkJLDPaTmZk74WmaMEGHQ/vGsKldEbH3niDh2XMYeTiL4fZb8SfYqTJP9zbQszRD+JkrMHZ3kb/5r96GiNNX4DG2nxj28FOXYVG2OJIjopAYFAqLMsXwaMqvMHLJA8d2DRF56RYsKpSQZlJsE21WohCeb96L8OMX4NCmgXS9jLnzCCkR0TDzKixA6MmMpQJ8HFrXl9/jHvkg9q43zMsVFw+C7+8b5LichEZ39ux+CA6OwoUL9+DgYCmGmAZ227ZTYth/+KGHxL137jwLJydrFC+eD0uW7BUDyDr8bAw0ZEgrlCjhId6Hc+fuSC8Aegh8fALRvXsDHD58FRUqFBLDwc6B3F3u2HFajBM7ENJtfvXqQ6SkvECNGiXEYA8f/msmF/qbAAJ5BwQpHJutrQUGDJiL8HBVwyjulvv2bSZA5eDBS2J8aYwvXbqP7dtPyzEcIzsYsg2yn18oaOjY6GjgwHmZdvjZ6XP48LYCQJ4+DRI9kgthY2OOwYPn4flzlYGsX78M+vVrLviYXRQfPnwmBnn//ou4fPkR5szpD0tLExw4cBn58jkgf/680miJcXwKvSM03nTJlymTH927T0NAQPp6MmBACxCoXLhwF6Gh0QJYgoPDMXXqBgF76udEI33x4n15VsWLu2HbttO4fv2xGHaWa+7cuQ4ePHgmxxDo7dlzQYBEbsTLyxNlyxYEwQw9JFOmrJdrqWXhwqECgM6fvwt3dycJGdFjlNGD0KlTJ3Tu3BmDBg2Cr69qY6iWtt/OF8PKsC13zQQDhiZmWNyvWVqn3Aqte6BWz+FISkiQLsAhTx/CKo+b7NaDve+DYVvu+G8f3428hb2kL8afk4bA+8opuY1bqYrIX6EW2FWXa/8vnavKRlMtLb6ZgcLVGkj33ISYKLiXqYagJ/ekKzAb99l7FELDgRNh6eCMB2cPi5fC0bMwzm5ZjiDvu7KxNLawATeBbM7HbqC0bRe2rshV0z+Ow7NCLbh7VUE+r0p48SIFf/08SjahFNrPnvO2gB4O78unkLeIFxzzF0XosydZAALBwYABA7Bw4UKcOqWaP+XjBAgOefHlgm3SG2HuZ9VE2fX6jkH5Vt3xS+cqiIsIE89B3T6jUbpxB6wb3ROPLqb3e9c1MMRnP62EjasnZrerICGHkvVbo8GACdgzd0ImMiKV13nyUiQlxGHjhPT4Pj0HNT8fik3fDRDjTxdN9W6D5aVcObwTYsOC0eKb6bBxyY/dv4xP67wooYb4uDR31/sKMQxaexyRAb5Y/fVnaQ+v1dhZ8CxbA2tH98DzBzcFRNTrOxbntizNFUBgH/L8+fNr/N737duHnTt35rgW5O3eGraNa+DOkEmqHXsG1zp32nk+bwVDF0f4LdsihpVScMoIJPgFwmfeajleDRCirtzBk5lLVe5ztql4CWnbXGDKcATvOIKgHYfEvV9i2VREnr8Bn7krYVGpFJx7tEXApj0IP3ZeULtNvapwaF0Pj35ciATfAPEw5O3RBmzl7DNnBWJuqj4g9T1ymqSOuSmKLpgo7aP9V25LC33omBpLd0u7JjXh2LEpHv0wH3GPnkLP1gpuQz6XVtL0ELgO6go9awt4T1sM594dEO/ti7Cj51F45mg8W7ZFWj9blC+JZ0s2wnVwNzH4jyctlGOjr91F6OGzKPbbD0j0D8KD8bPFO+DQrhEcWtXDvTEzkRwcJgCCXogns5Yj7qEPjPK7wmNkb/it/FNASk5Co0vDtGjRLmzdelIM9PbtP+D8+XuYPHmtGO6BA1ti6dLd+Ouvs7Czs8Dgwa1hbW0mcX7u0lWGpzUKFXLBqFGL0giE3Mm0bVsdHTvWwoABvwgQYDOhWbM2y9+jomIxf/52GSJ3qtzZa2lB+gmMG/cZZszYKLt8teQmxNCzZyPZpWcECAQjNOAhIVGYNWuTGPyM4QMrKzNs3DheXPY0plw3OIZRozpi3rxt2L37fE5qxFdftRMAMGPGZvGu0ECOGtUZx45dw++/q74n6rJfv2a4fdsH3367ItM1W7asAhr4mTM3Yf/+SxImGTmygxxDoJRRCER4bK9eM+DvrwIIJAVSZzdueIveKLVqeaFPn6aYNm0DLl9+gLp1y2Dw4FaYO3drGoeDOmdYKWOo4X2EGD7/vD7q1CmNKVPWiXeEQtA1dmwXLF++F5s3nwC9V9On95E21BkBAoFBw4YN0bp1a6SkZA7TtJ2wAPlKVcTOWWNw79QBeFaoiTbj5uLs5qU4sVrlPa3QpodwBx6ePyqGP6NU7dwftXp+JX+n54CeaoIOenbXjfo807GV2/dG/f7jMgEEAoZ23/2Km4d3YP9CVfiDHmveb9WIztLbhzv36l0HyaaULdIp9PSqOo1Gpd3jfYQY2OacfLe/ZowSTwSlRL3WaDjgWxxcNFU83/buhfDF/K2ICPTLAhC4UZw2bRpWrVqVad3/qAHC44snse2n4aoXv1YzNBw0EVunDIf35ZNpAMHBo4gYdrVbhcfaOHug7YT5EjbYPXucnE/01HTYZNw/exhHl89MezjZAYQmQ3+UB+7Hlss0enTdmluCrZ+XDWwtndd6/75LOkDunD1WQIwm+ZAAof/yg9Ied0G3Wq/mWBrtv1soIZbchBjYnZCLtybhjjA3nd8sq5aB85ftkRgQJDvguAdPxAOQEh0LHWNDuI/qI+51egbwilOgZ2ONhGcBeLZ0k2o3XLooPEb2gu/SzQg7pNrJqYVG2LlXewEL9DrQyLv17wLvmUsRdfGmuO8d2zZE7EMfuT49CDrGxtC3tYT3z0sQ98AnDSDQ8Pot34Kk4Nx5b9Rj4G7ddcBneLZ0s+zsMwpd/w5tG8C8bHHZzfPa5CE4dWoKfQdbmaNzrw4Slng6bxXyftkecfefIPTAaRRb9AP8VtEwvoR5mWLw47F9Owlg8Jm9QnXsgycCEgr8MBTPtx1E0JZ9cnt6TFz7dYbf2h0SyiBAMPZwge+SjeLZ0LUwRaFZY/F8/U6EHsysU03Pm0Z30qSe+OWXP3H0qGqOy5aNhK9vECZOXIkePRqiY8eaaN/+hzROAY1O48YV0KPH9Aw709ay46bBz8haZ/iiVasqGDp0IVq0qCwA4fvvV4EGhIb6l1+2wtbWHHXqlBEjR/4CvQ90gZOMSBe5Wt4VIBgbG6JXr8ZioM+cuYV7956JIX32LETGTMNFLwl39Qy18NOgp4PAZ/PmY1i79rDGbyXjHwkQuLvv23e27Orp4p87d5AY3q+//k0OVQOEn3/eKOGDjEKARQ9Gy5bfpmUmjB7dCRUqFEabNt9lOlYTQKhduxQGDWolHA+154SGlxkC69cfEU9J795NxDtEvWaXBcIbfSiAQOIivROTJq2RMBXlt9+GwcHB6q0AglOBYlg1ogui6BE2NMbAVYfhd+c6Nk7sI9dUA4S1oz6XHXpGoee3cLX6mNG6bFpmwmfTVsMhfxHMalsu07GaAALD0w0HfovokEDERYSKfdAzMoaZtb207qZHm5s1C4e8simlByM7+VAAgV1DuTHe9tOItKaHw/44g4TYmCwAwcPDAz/99BNWrlyJXbt2pQ31owYIVPLuX76VwRau1hCNh/yAPfMmivLVHgQa7F2zxyIuMj2+5eBRWDITHl86mYbuGCpoOnwKvC+fxsFFU9INUDYehKZfTREEdnjJ9EzGn7sKokYSWgauPIKHF45h9+yx2ZJTPiRAGLz2hIxjYY+6Mh/GuzpOWowruzfkCiDUrl0bdnZ2Gt/b27dv4+bNmzkuiDRm1nUqwaSQhwABfXtrhJ++gufr/pLdvufEQUiNiUfEmctCwFNLclikuMvJWSBAcP/6Szydv0b4CRmFBtiqVgXYNaklO2y7ZrVglM8Z90b8JOc6tm8M+5Z1EbDuL4n3Z5TIK7eREhaZBhDoTqTbn6DkdWHbVRsbGwFFYWFhmXKCLauURt7PW8N38UZEXcqsE87RsX0jmBbJjydzViA5JFwIiByXkauTjJmGXltPFz7z18D5y3aIveeN0AOnUHzxZPiv2S7vDjkHfks3i9cAujp4Opdgoh3iH/ki5vZDeI4fgIA/diP4L5WRMvMqAteBn+H5pvQQBMMaz5ZsEm4DAULhWWMRsGGX3ItCMOji4iL/zfay0dHpeqDB+O67bmKouYOmLFkyQozlhAkrxDXfunVVNG8+XuLUlF69moA73q5dp2YCCIw5L168OxMpjQCBhu+rr35Fs2aVJT2P1yXwoPuawIQ79eLF3XHixA08fx4mbnd6G94XQOCYGXuvW7e0hBby5LGFqakhVqzYL0x9su3HjOmMQ4eu4NatJ5lekUePArL8TdPHoQYI3btPFwPNEMmCBUPkGffv/4ucogYIw4YtzMJt+OabjvJ748Zj0rov0oNQo0ZJ0X1G0QQQyCvo06cZjh27jsePM6eA3rnjC2/vAPE6MCOEOn9TZsGHAgidOtUGQQIB4rVrKsb9/PmDhfuS0YPQoUMHfPbZZxg2bFiWDAZ6EBw9i2D5kHYSrmVoeci6EwjxfYw1r7ysaoDA0MDrxL1Ok5cKOX1a8+Jp63vnqcvhUqwcprcokUnPmgBCxXZfos4XX+Pyrg1Zsgae3jiPqJDnEl4wsbDGnnkThPuQnXwogFD7ixGysd46ZZhqowtg8JrjSE7KykGoXr06+vXr9/8VYiBJcdngNuJSpcu/RrchWDa4LUJ8HqQBBOb+757zLeKj0gGCiaUNOk5aIjGZFUPai2LyV6yNxkO+x7nNy4TEp5bsPAi1v/xaQhpLB7TM/AJwW/HypcR1Ok9Zhhcpydg1e5zwGijMmpCd9yuGOUkkrcfOwebvB+LO8d3ZviQ5/aApxPDZ9NWwc82PJQNaikejYJX6aD5iqpBgcuNB6NWrV5rBeP3+x48fx6FDh3IaVtrvNJSGTvayoydh797XP0ks3XVAF0HXfss2g6BAk6gBAkMOkSQvvibkLbj07YSYu49hWakUwo5dQMAalUvaum5l5OnSXLwF5DhoEnWIgaRJuvxTIrMChLJly6Jt27ZITEzEtm3bcO1auqfA0NkRBSYNw/Mt+xG880h69oC2tvw3AYpto+p4NGkhEp8FQtfCTOX1AISj4NKv898CCGHHL0g4IvLiTTxlWIZesnpVkKdrC3jPXCZeEnoQcgIIzClnOhO9QwwhZUxpygkgtG5dTVLqxo1bJnFq7sYHDmwhBn3QoHkCBtQhBpLRli7dg5gYFamUkhuA8Oef38mOmjtrehXatKmG/v1bZAEINPLccf72207hL2gSTSGGjMcxxk8+BY8jX+C33/4SzgJj4yRGMtSiFgKr7Njpr9+bAIEAhHoi8dHZ2RaTJn2Be/d8MXXqejlcDRAGD54vACyjdOtWD9261cewYQtw+/ZTid8TODHU8MUXMzIdqwkgkN8xYkQH0cvatenf76tlSwBL27Y1xItDgECehFr4G8GaWg4cmC5hjp9//kOjjnPzR00hhoYNy8u7w/sTjJHfMm/eICFrZgQIFSpUwKhRozSSFAkQnIuWlnXV784V2LkXxOcz10vr8D2/TJChqQHC7PYVJQsuo9TvPx4VWn2OpYPaSHjW2NIanSYtga6BERb1bpzpWE0AgaHmFiOn48jyWTj/5/L0418pmgTG6p8NBImO26ePhP9d1brGd4lkRZIR1UKAcH7rShz8PX3jmhvdZpqPhhADORhVOvWVTTZbitMuDlhxCNFhwVk8CF9++SWqVKmCyZMn4/Hj9HX0o/Yg6Bub4MTqeeLGKdeyq6DEVcM7CV9A7UHQBBDIrG/Qf7xkKbC4Bckpxeu2QN5CpbBxYj8E3FeR4yjZAQTGc1qNniWklPPbVgqvgC8hiR8Xtq2UwkckENbrM0YM//0zh+RaJCmeWDMP0cGqeDvTY3ot3Ia7J/bhxuEdYsgDH96SlMWchAxXu3wFQU5Fs69/QmxYCI4smyHncg6FqzYAPR1Xd/8B76tn4NWovZB1TqyZmyuAYG1tLQUyNElsbCxiYmJyGiJsG9WAlr6uZBNAWxv2zWpLtsLDib8IW9+yejk4dW6GiNOXhTgoWQT53ZAaHSsMfUpOAEGHJMOuLQUcaOvr4c7wKeJGp9CNn29YD7zESwTvOITkyGgYONmLNyNkzzEkh0elexDeABDq16+PIUOGiOeARJ2MxlPbQA/5vv5S5hWy7yQS/QJB0EDvSfCuoxIeyNuzjXgGyFMwyu8G+ya1ELznmPzu/k3vvwUQCErchnaX7I3nm/cJwLFrXEOAyP3RKqORG4DAtLH169cLgKUrcdOmTWnPNyeAwB335MlfIDw8BmvXHhRyIZnyp07dxJIlu4WI+HcBwrJlX4srft26Q2AaIjkLLi72WQAC3f4bNoyT8AeJc/Q23L3rK2NghgDPZXYAyXm//vqXkPAIAjhv8gMYPmBWgqOjFbp3byhEOc6BnpHJk3sib1474WE8eRIo2Rj0dmzYcOSN7ni1IgkQWKuBWQt79pyX0AABw/ffr5b7UN4EEAoVcsasWf1lPn/+eUKIiMwqYIhlxQpVeEktmgACAcWECV3FU7Ju3WHJQiBPhLpYtGi3eDWYLTJqVCcEBoZh375LAuQIlu7c8Ulz+fMe69ePE52uX39Yngu9KiQ55iQMq5BIybHUqeOFkiU9sXHjMfj7hwj5k+SfpUtHCEmVhFdme3COJI1mBAj06jH9jgTFCRNURl8tBAiFqtYXb/KtIztRtFZT4YetHdkVPtdVXJE3AQTn4uXQY85GPDh7RDyuLsXLokzTTji5ZgHObFqc6V6aAIKxhRUYkmDq5OmNixD5/BnMbB3hXq4advw0QvhznuVroNHg7xH4+C5uHNyG1ORE2HsUwdPr59Jc/rzRsA2nxWgTJCTGRkkmXlJcznpmaj+zFBjaIBfPzq0Azv25ApFBfkJ4NDa3FM6B742LuHFwq3hMyjTtjJBn3pkAAvknS5cuFT0znTQ5OT1d9KMGCOEBvmAOKoFBbESIeAoeXzwuaJ5kwHq9R8PANKsHgUo3tXFA85HT4O5VWVxIifGxkiJIY5oxlzU7gKCtrQPPirXQ/KupkvGgqq2gJQRHkj5IMiFIoaupbLPPoGtgIMz4MP8nWDuqe1oqJD0KRKs03hQ+rL3zv0OYX2YXpqaPjimMdXp9I/mtfBlevngpSJiAiUxZEmEaDpoAr8YdJdRAj4t1HjecXL9QgNU/IQ4dmsC+ee1X5EQtpETHwH/tX4g6p0onZTzetmF1+UfbUF90mJqQgKBtBxGyR0XcSQMIc1cj8lxWDwI9EMxkcOrSHHGPfYUMmFYDgHnz+d3g3Ls9DB3t02pgRN+4LzF9FUAwQd4ebaU+A136KVFZgc+bAALHaODsCBIyTQt7qOppaGkjYOMuhOw8KqEUzo+kQYIGEiEiL91EwPqdEnJgFgNTEZ8uWAvnLxhieIyQA6dQYskU+NET8uKFgAxyHOh54DXoKcj7RTvJDGFYQdfCBPmG9YSRu7OkLRIIPVu2GdFXbqdlMTD0Qs6DhBjMX4UY/kgPMbBk7YYNG7IFCBMndhPiFZZDDwAAIABJREFUmjrEsHjxV7LDJQeB+fqMrY8c2VF2mfz/9CQsXLhDjC/lTQCBZESGGEaM+E1Y/pUrF8WECctfhRheym6yWrXiGDq0jcT9+Y1fu/YIFSsWyQIQeC+GA0iaJE+BxDuy/ENDo7Bo0XDZbfMa6joGNDwbNhzG8eM35Rwy7FVkSC1J/eMcaLjo9CMPYtiwdpIdoJ4nAcaoUUvw9KkqfexNQoDALAoy9pnGyRoDzA6gR0Vd50CdxaDJg8DFumHDckIiJIGSYySwWLBgO4KDM3vgNAEEjo3gbcSItihc2FXIprwGz6XuqSOmb5J82bNnQ/GaUNcEACRGMmNBLZUqFcZXX7UXHfM6fF7qkMCbdMBMkmHD2qJAgTzyHFhXg7UOqPOfftog6Z0EDiS5cixM0TQw4HHaaN06M8+CmQwtW7bE2LFjM4UZCBAKVKwtqX1MIdTR1Zf1/eTa+WKcBSBIFsNX0ORB4PperlU31Ok1Ci9fpIqNuX10F/Yt+D4TgZDX0QQQ+He7fAXQ/OtpIA+OVXK5MQ1//gxL+jWX9ZgbO3qQa3QdDCNzK1XqbpC/eJx9b1xIU2HxOi2FBMnMt9SUFCwf3EbSHnMShpRbjpoBSycX6OoZQFtHW8IHXJ/Wjekp/LjSzTqjzhcjoaOji5jwEOibmApn4rcvGqRdnumk6kJJR49mTvv+qAHCpZ3rhJXKtMeIAN93KnNpYm0n54c+fSS7/jR55erhLr3dhPkI9nmEnTNHaXwm1nndYWJlg1Bfb8RFZk3zIYDgy5KcEI8g73SXXXYPWIqomJhLLr5GeUkgkICUpJzLp/JaJjb2MDQ2kxTKNxULyemFe9ff1eEFvpg0Tq9zAXhdHmNAA56aiqTAYM3FlN51AK/O07Ewg76NJZJCI5BKEJBNIaF3vo0WoGtpDj0LcyQGheBFXOaiKQQBrEFAUKApjPHO91WfSCKUlYUALZIhX2YorPO3r53LC9DYMH7NrAXu3N+liNCbbkV3M4EGCX6vF9bJ5RBzPIyeAycnW4SFRUn9hYxudXlXtSC1Hgg0mCaozt9nAScaseyExY5IMiRfoEuXybCxsUB8fKIY5dyGKNTXpmFliiPBCWsxZDyfz4BAgtUiSfZr3/77TMWo1NdgGiE9MLw/r/H6PDkXehoYLnr40C/Hwle8LnVA4JWd0AvDOedGCDyYTsk6CCSJahJ6OBcsWIAzZ85g+fJ0Vz4Bgr17QSwb1Abmdk6SFiip42/5zZPcyGw3Zi/Qu5vxfBp8Aom6vUfJRnB685JS7j6TaGnB1MoOVnlcxPhz8/Z6QT4SyZmqzky4wEe3c7Wu0zPOzWV2QttAe5MbITjhJpM8iNdDLTyf4ICbhxEjRmS53EcOENbi2Io5udHBWx9j6+opNQ7ooilSoxGOrZorBYz+CWEhqA4/LAL/rUn4EC//tQ5Xdr977O+fmIdyD0UDn4oG6C4fPbqjECc1Ce0SUyHr1vVC9eolJdsjY2XE96UnGlWGCwg+yCMgn6RPn3evwPe24xo2rI3UdshOyGkgf+N1MPK298l4fL58+WBkZIQ7d9IzPtQAYVGfJpkqI/6d+2Q8l/F6lxLlYW7niErteiE2MhRL+6cXTXpf98nuOiTZs0ZPdnLz0HacWv/rG6sL52aM9O6ULFlSqig+f561CNZHCRCMLazRdPhkqU99ff+W3MzzrY8pVqcFyjbrLK4gqVC4fqGUaf4nhKi1fOvukg+rSegFYPGPp69iaf/EmJR7KBpQNJC9BpgqSG4BOQnZCQl35BwwhMGwzPs0kup7MhWwf//mkgZKPghj+OoqkP/E8yN/gsTL7IS8DdZ8eN+epdfvV73rYLDS7c6Zo9NCCu9z/gwb1OwxXNz+MWHBOPfn8rRaN+/zPtldi02VCE6yE6ZtPjx3NFNbgQ8xro8SINCtw4fPyoe5rTj4tsohh4E5qzTGrKGQW3fN295HOV7RgKKBT0cDLLbE1MnclmZ+W80wZm9vbyWhDoYfSBp82/DF297zYzyeLnPG+N+UPvh3xq1nYAgzOycJ5cRGhiE+Qxr937nu/9u5HyVA+H9TojJeRQOKBhQNKBpQNPBf04ACEP5rT1SZj6IBRQOKBhQNKBp4DxpQAMJ7UKJyCUUDigYUDSgaUDTwX9OAAhD+a09UmY+iAUUDigYUDSgaeA8aUADCe1CicomPQwNSX4IFq7S0EB+fuxzhj2PkyigUDSgaUDTw9hpgwz1WnIyKevtaG7m5238eIGjpaEsVPDb2SQpML3LEzn4mhdyh9arUcMytB3gRr7lYR24UqRzz72uAudJdu3bF06dPceDAgVx1o/z3R/3fGwFzyG3dCsDv7lWkJGb/TbHADbOVAh7czFVp2f+epv7dGTHdmrn2kUEBiArO3Ngp48hYr4WtgtlGOGNTvH939Lm/O8soswrts9uXc3/SP3gkCykxrZINpd5YYVdLS0rph/k+RniAqvmTk5MT+vfvj+3bt+PSpUvvfdT/1wBB73/sXQVYVdn3XUiHtKQFoqiI2N0Y2GL32F2jjh1jd/eI3d3d3V3YYgCKGJSU+v/WfvMQ8AEPZH7j+H/7++Yb9d04d99zz15n18pkKUae7WY/h6veMbLVL1nv2LL29d9UudSivl0mZB/QATomxiCIYPveT35JfyTprnnNBdNdAyR3IQHV0qVLcf78+XS/vuaC6mmALXA9Ow3C1jE98eZvbnpVZ3pUbSAd6sg2p+SwV+8OmqPSQwNs1Vu992hpMXxhy9IkL5ktf3FU6TYMh+aPieM5SI/7/6+u0XbOFulMq2R5TM/7Wjhmg6NrAfjdOC/l8mkRAjDvIbNAFsjTa+YleQklYyUJB5V8Eew0Sf4ENjwaPnw4IiPTd5P7nwYIZsXyC0nO47ELhEBHldBTYNuwGqL83+Dd0e+NBnvgk4L3GVnxSDikSpQdkb+m5fV/O4ctXMlFoKpuWcm2ltwdkmOVS/63BNQFSXYjVWcMyY8v6U6nyT278popsealNL4JEyZIZzl+MGRlTIsoxsAzk3jZKQ3i75um9CxpGVvcOcmNQaHo5FvOpvAMPzr2rPmLSf/6/XNH4ePrl98/6t/3L1y7Bcq26IF1Q9tLC9p0l3/4OVMeL99FUosGWf34mpJZVFKaa+q862QGaemYHeV+64OH54/gztFdKo7U4nIF50KlUavfBOyaOghPryqow9NVUnpOWTaTmdcpnF+jz1h8jo7Bgfmjkljf+SKS+eb/ZmFU9a4KeDVG2ZY9sHv64DTrhm2VybnDb+DqbgXjZ0JRzKMMOroYvOcOTq2Zh5MrFdThlBIlSqB3797Skvr06dPp+2qyZs2aYIY6OjrC39//322+kUELhlnsERsaHkcRrGtpBm1jI0S+DBQyG4Ms9sjolhOZ6lQSkpuYoHf4EhMjYQQlFwCPyUDiFwCxH0IR8+7Dd8pLDiBoGxlAz8YaOpZmsuDGvv+IqMC3Eq5QV0hcwgWXbVcdHa0E6T17Fij93bk2kGnN3t5SmM8+fgzDixdv43rQW1mZyr/T6FlamsLQUE/IZd6+/Shd2tivPUuWTNI3nr99+BCGgID30mOejVTYUIWtWa2sMgohCnuk816Bge+F5S029rMc5+BgLSQ1eno60rOdv5HgRh3h8yn70/M+7Ef//HkQwsIi5PkMDfXlufksfHaOnffgWJXCfuzsEEcWPvb3p774O5nneA12sePvHDvZ5d6+DUFAQLCMXyl0tfED2bhxoxASxRcLh2zyV/J5kHSLiN3MNrNwV9Ctp5VBG2Y29jDN5ABTG3sh2mIDlpC3AXFc8WysZWGXRUjA2I+dxFghf1N889oGxqYws3MUFyybuJjaOOBTyAehkk3AAaKOUlUcY+OcW/6V/dmNza0RGfZRCF2UPPcGJqZC2kJGOZKGhQQFSG/4+DTo5nZZYGbrIIyk/I3XYu94ZTMyLlTkLaHbPzIsFKFvA+U5SUSjjpBQjLrmTocS5PcwQYhBR09fiHXM7bPJPWl4yC6XXgCBrlqb7K7C2cL+82SzC3kbiKBnD+OegWPgu+c74vO+e/kUH16/kjnH5w4LfiN9/eOLgXFGmNtnxYfXL1Pstmpm6wgy/ZFxlX/+HBMjbLKcUxTSAJvbOsp7MshoChLShb8LEl0rDRDPtyD/i5klPgS+EOMYFRYSRykvz2DjADO7zPIOQ94EyFyOT0KX3PvS1tGVsfH5Kbw3uwUqhY3qeG25fgZt6ehXvnVv7JwyIM1GMPF46L3gvGI3WZLekUiI5HPx+WcsMzuBY2XreYIZNkZ6++yh6ISETPzG+E3qGRkh/H2wvMvIcAVXguI9OwrbIoUMwLx+fOG74Hw0sbSRsXB94HxXEPORjy2D8CyYWGWCVWYnucf7wBeib64hptZ2QudcoHpjIYry970h7z34xWO17Se/az4jhe+A70IpXJc4T62zugg9NL/VLj77vgMInLurVq3C5cuXMXv27HQNrf6UHoQMhgbIPW0Q3p26hMB1Cl52UgablSiAB39MEqCQrc9vQnerb2MloOFLdLSQ9ARu2CveAgopcvVsrYT+N/jQGQSs/R4lJwUQCEJs6njCqlpZAR9E0kQaZAMM9/3Gl53Swjl/fi+wuxoNH9u0sjMX2dmWLt2PTJnM0b69F1xcHBESEi7MamfP3hHmN7Kr/fZbVWnvSoPK82hkSaqyaNFu6dTm5GSHMWPaCtEJAQiBwv37L4Xbnga+W7c68PDIgcjIaJibG8s5BAykuyVrn5/fa2FVI+kLr69kj1u//jgOHryc0qPJ7/Pm9RJSm6AgBaEMAc2pU7fk+TgG9o3v3dtbxkAiFxp6PuOqVYcFLLC3fc+edZErVxb5O0EPx7pp0wls2nRSiGFq1iyOGjWKx42PQOOvv3bj3Llvu87q1aujXbt2mDJlCi5eVNC9KqXhiHkCEndM6icGK3+V+uJa3TKmJx5dOAZ+pFW6DJHFhsZBz9BE4ucnVsyUD5YLaYW2/eBSvIIs1GwFzkWAO+TgF4q5kLNEJdTqOwH+928KcRcXCi5Ou6YOFPrWH5Vea88IYygXCW6YaABvHNiM48umy0KWt3xNlP+tjyyEZC/NaGWLO8d349zGv8Q4WWXJgdr9J8LCPgvC3gcLu1tGa1scWTwJV/esg4GJGYrWbSXsc1ykyXLK/x9dPAlPrqq3K2Gcmux4Vpmzw8zGET7d6sSRl3GM+SrVQaWOA6UrHTuYMleBYGLdkHbp4kHgYtp95XG5JxdNI3NLWXy3T+gr74BGgwypZZp3x5fYGJmvfM7zmxbjzdMHaDRqAa7sWiuMgPGFOvHq+Se2ju2FJ5cVFOVJSY3eY1GwRmOZB7yfsaWNuJ/3zRouLIFZ3YuiarfhshuMjfoEI1NLvHl2H8eWTpMwi2FGc9lNulWsJfFojpGAgpTGZIHlNWmUSjTqIH8mACGR3MlVs3HzwBa1yNqMLaxRqkkX5ChaFgSNPPfs+oVxj5TFrbAw0FJ/bD9P8GtsaY2NIzqnG0Dov+MGYiMjFHORFPCmFji1Zi4u71gVN45m45fJt/nu1VOQVI9CGmNS3pPsrnqvUUJxTFBubG6J20d34ajPZDH2zG8p1bSL8O3YOueWUNeSbt+4FHT0DFCqWRcwzEWwrWdgjLD3QTi0YBz879+QezE/o0zLHrB3ySeAlvp+++IxjiyaCIc8Hihat7WAFFNrWwEXBCdvnvoK67C6oJqcPBwrvxnSPfPZlEKAVK37CAEIn0I/yNrlmNvjO4DA44cNGwYjIyNMmzYNwcHfEwqmdf35KQGCtrEBck8fiuCTFxG4RmHUHVrWhVmpgrjfZ5wknBg42sLEPRds6nripY+C4pbsdsImGK3gszbIbAcd84xC0xt6474Y98SSFEDQs7WG86BOiPR/I6CDzIv0YjBPISb4e09EUi9g4cI+AgDYM/348etiiOkRuHPHDwMGNBFu9hUrDsiuO1++7OjSpbbQ2+7de1GocFu29BQe+IsX74uxb9KkglC/Hjt2XQBFiRJ5xKvAnXXu3FnQvn11rF17BIcOXRXKWLKvkb6X17127ZEYZzLALViwU3bhU6d2wcOHr7Bx43GhdK1Xr5Rcp0ePuQl2+ck/nwN8fPYKFWzFigXkv1GjVuH27afiPSDfO70SBDEEAp071xRCF3Lct2vnhYYNywndLwEMKYVJQkMAsX79MaGsHTSoqdDQHj58VbwVbdt6CYXt2LGr4yhwCQ6qVq2KwYMHJ6CF5bgbj1ooCy0NBXcjpN6u3ms0toztiQdnD6NUk87iJtwxuT/evXwmizTzUgIe3JYdeqGazYU2lv3Yn145Jbs/coU8uXIa2yf8LqrJVaqyAATu6A7OHyuLOw0wdxXcrf+o9NlwHvrGJrKA0PiQ4tu1VGWs7NsMb/0eShKZdTYXWahiY2PgVKAUSjTuIGO5e3w36GYtWKOpgCRy1/PP7pXr4sD8sbiyc7WAHy5G907uh+/pA7IYVmrfXxZfuk+VO+DknkPpQchRtBxKN+2CVf1bIvDRHTmFu/O6A6fJeziyeKKALIYXuMCuHdQmXQACF9re68/g2fXzOL1mvlCkk/L98aWT2DauNxxye4AGnIv8lR2rZCwe1RrCLqcb9s/5E7X6jkdEyHusGdBKDKe2rq68x6pdhyN3mar4q3OtFPVQs+8EFPBqiKt71guPjFOhMijRqD0OzhuDm4e2wsI+KxzzFsTH16/E08G/cy5d3kViuhkCXunOP79lKXxP7UeOIuVQvH5b3D2xB3tnDZcdb4MR8/Hu5RMBM7xG4TotYZ/LHTsm9lNLj+JBsMsMAoEKbX6XsZ5araCHp868eo6CU6HS2DN9iFyfvAD5K9fDqj9aphtAGLTnrsTseV96Ucq06A7HXPmxpIe3eEMoLSaugHORsrh5aBtuCCfPV/HkvvK9geq9xsClWHkc8ZksngGPag3gXtkbG4Z1EDBI4EcvC8E9v3++18Wda8VNXwLF+sNmi1G+d2IP6CGs2K6/AKLVf7SUv5dv3Qc5ipXHufWL4P/wFuhJIrjyu3lRWGk533KXqabwIKyZK+OivujJULf9NQEQvRTVeozA/TOHBOCIaGmhTLOuKFizGc5uWITAh3dQomF7mYeJQww8nLlXJF2iB+HRo4Sekh9Ze/6TAEEJANTJQdA2MYLzgI4If/AsVQBB18oczkO6iKEI3HwQn548l/ACvijcT+oKAQJpW5s1GyfkKkqhodu1a6yEEy5c8JWQgb6+LipXLoxLl3wxdOhSAQi1a5dEz55z4O8fLEBj/Ph2WLXqEHbtUuRT0MVftGguCSfQQ1GqlBtOn76FRYv2CECgZ2LDhhOYP783tmw5iStXHmDgwKZYufKQ3K9//0a4d+85Hj5UGDFnZ1vkzZsdo0atFN72lITPxzAH2esYXihUyAW//95QAM66dUfFI5ArV2a4uzvBxsYMenp68PQsiC1bTmHZsv0YPbqNeCA6dJgmOiDRDRnjCHAIEAiIWrTwxK1bT0UH3BkSwFhYmGDy5I24evWhDLFnz54oVaoU+vbtK8xk8SUlgFCsfltZKG8d2YGH548i4MGtBIag/bxtIJqnt4Gud4LF3GWr43N0FOa18RRkrwQIXMgPzB2d7iQqBAifY6OxqIOXeCd4v9r9JgoL6eUdK8X9mjlvQWTOW0jhvjYxRa4SnhKrvLBtOdrN2SKL5uJONcVd6Vq6Crx6/Ikz6xfh2p51AoCYE/DsxgWEBgXIApXVrTC0tLWxe9rgVGWAc/Gt0XuMGH4lQHAuXEaM8/nNPri8c7WMpWTjTihar3W6AoRuy48Iyx0ND70W3ZYdFtc7Wf8IDGn8uAv9EEAjxLBCNmTJVwRbx/YUneYpVwML21dFycadxfV9bNk0tJi4XHZwy3s3SSanQDHjCBDyVaqNVf1ayE6UnpwWk1dKOGjzqG4SziKYy16ghIADvjd6C24d3oG9M4eizoCp4sWZ0bCo3JOu+Fr9xsPf96YABHqqGv25ACTroceBnjG6urO4FcLhxZNwfd/GlD7ZuN8JmLyHzMDNg9viAIJVFmfU+WMy3gU8x44JfeV7I7EdwdOG4Z3SDSAM3HMXz66eFi8ePVWFajYVELt1XG9JmlQChGwFS2F2s9IKKuZ48sf263j74glW9WuK2OhosFKhyRgfXNq2HCfixed5SvcVR8WzFh8gNBgxF3nLVcfdE3sFBPM5sxcqLR62yXU9YGptL8/8+okvji+bJt4fCjcANP5KSuf0yEEgWG42YZnoVgkQOJ4Wk1fJ3N05+Q8JFTJZtOWUVSoBQps2bVC0aFHMmTMHvr6+as+BlA7UAISkkhS1tGBepjAcWteDjoE+vsTEIvT2AwlTRBMoqCk0oOS4b958fIIzuLNeuXKQGL0nT74ZNAIHuv4XL94rAKFChfzo33+RxN2dne0xdmw7MZw7d55F/vxOYmC5MyeLGt34BQvmFIAxa9Y2AQg8jx6FZcv+kPPI/MYd+erVR+DsbCfeBO78CVQodF/Ty7F16+k445vco/L5GEJp0mSMHEYQM3hwM5w/f1fCDGR/69y5FsLCPomHIDo6BsWL58GOHWdlPCNHtpJxDx68RM53dc0iAIFeD/7epUsteHkVw4MHL+UaijFqyZ95jfv3FYmlLG+sXbs2hg4d+h2CTgkgmFjZoHLnIchTrrq4nkkSdmn7SlzZuUqM8YBdt/A1NhbPbl6IUwVjs5HhIbLzpJdBCRCO+kzB9f3qL9JqTiMQIIR/eBu3yGV2KwSGTriLZEZzkTotUaZFD3GFvnvxVEJiNEKnVs/FjYNb0WrKatk5bxrZRW7J32r0GSc7qGt716N67zHIXboKAh/djcuZoIFlTJ5uX7rt1RVVAIFGpmrXodgxqX+cm1455vQKMXBH13nxPhxaND7OUHZZckDCGPPbeKJovd9QteswPL99KW7B19LKIPPp9Nr5Ehqq2Wcs9swcJtUVDIEQHNUbNBXnN/ng5CrFLjs5IUBwK18Dc1qWFwPPa7efvwPauvr4q6OXlKlR1xl0tGXnS5K47AVKSghhz4whaD5hudAMT6rlJrdhXkmdP6aIl2jv7BEo2agDyrXujdeP7gqJkHwP0EJsbDRuH96BB+cOpzTEuN9VAQTH3AVQs+94PL58Ckf+mqD4potXQO1+k7B9Yt90AwgDdt3G/dP7ZT4o7lERTcf6YM+MoTIfKfQgZHLKhZlNSiZ4Jup02KHHwva7cUQn+Y2guOPCneI9YigovqgCCB0X7pbQw/14+uI3zflALxs9Nd5DZ+P8Fh9c3bUuyZDBPwkQGC57efcKtk/sJ54ThhX7brqgEiB07NgR7u7u/z88CKw8yDNrKN6fvQ7/FVvFajm2bQCzYu7w7TU2LoRgVtRd/v3J+IWSh6BKUvQgFMyLzO0b4dmsFYh4+Oy7SxChG2Z3hFWlkrCqWBz+a3dJPsPX2M/SlMfDwwM5cuTA69evcfLkScTGJkzoogHlTr1t2ykJrk1Wtt27x8lOedq0TSpdUgQI5csrAEJw8PcAYcqUzsiWzQa9es2VxEOCjsmTO4sxpcs+PkBYuvQPbNiQECCQMrZnT28MHuwD8rinRfh8Dg6W8Pb+UzwAbm7ZMWBAYxw9egObN5/AyJGtJUdi7twdkmPAkMfWrX9i+/azWLx4j+RQZMpkJpz2ROb58jkJQGAIhQCBeRhlyuTD9Ombcfv29+9HOebKlSujS5cumDVrFk6dShgnbjB8DrT19LFjYl9EhYehmHcbeHYcGBdiUF5Dz8hYXIaFa7eUJKSdk/rLzrnrssOIjgjDsl4Nk1wolADhwLzRuHNMVUY4ZL4wThgTE4OIiIhUJRMRIMRERmBB2yriAXAuXBZ1B00Tw0WvhfeQmbJLPeozSXZETKrr4rNfAAIBRPu5WyXhc0m3OqJnl2IVJIZ7btMSXNu7DlU6D4VD7vxiHGl8fkRUAQQaxhq9R+P4shm4dWS77O75HhjeWTu4bZxrnOCUOmL5FnWUmmoUJUA4uHAcbuzfJI8gAEFHF/N/q4TCtZrDs9NgrBnYGq/uXfvuERkG6bb8qLw/7vKZrMZ6c3piNozohMcXT6SoFvEgVKwFn+71EPz8sbi4f5uxQRLQ6KWo3HkwbJxyS9jmzRNf6Bkao9vyw3h44Zi49L0Hz0TeijUxsaabUNHTBc2QQ+CD2+JByFuhJip3Goz9c0biwbkjKY4nuQNUAQQ+d63+ExFw/xb2zR4hpxM4M39l05/d4gAC3xP7jtAjyNK61DYmG7j7Dh5fPC7fIHfjzE+pN3iG7JYZilECBHOHrJjXuuJ3jzF47z1x6a/q11zeE/MFWk5ZLcCQeTUpAQTu2LN7lMDkuvkljyOxZMqeC7X7T5LnPbNuvmwUVEmBao1QtlVPAXcMOaZFkvIgtJm1EaHBbwREEUiyV0KHBTtUAgRWblGmTp2Kjx8/pmUYKs/5KT0IBAS5ZwyRKobns1dA28QY9i3rSOWCb4/RcQDBxN0VWTo0wusdhxF6w1fiQp9DI+T/GfR0kcHIEDomRsjarQUinjyXPgicjLEfv7n6jXM5IUvXZnh36jI+nLosnoLYkDBoG+hBz8YKsczGj4qGQTZHyYP4eOkmgnYdlTGYm5uDyK1ixYq4d++e7F4T16EmBRD4NmbP7i4Z+jTmNPD0HjARkWCAiYkpAYTZs3tIHsIffyyShMDKlQuieXNPiderAxCYWDhhQnucOHETa9YckTwGjofXvHHjsVqTjM+XI4cDRo9eJbt55hA0blweM2ZslWuMHdtWnoXhBAKIunVLSc7Btm1nJJmS3PZ16pTC8OHLEBDwDp6ehdCsWUWsXq3IQSha1BV9+jTAnj3ncejQFUl0JMhgsiVzJ3hNiqWlJebPn4/9+/djxYoVCQBX1e4jkDVfERxaOF4awjCmTJe3MgeBbmbSu3LqA9DFAAAgAElEQVTHx/nhVrE2SjbuKPkF3JEwQZFxZS48TDijEM1zt6F0oacEEJhY6eXlhe7du0uPBlZcpCaZiACBY+Qu7s2T+yhYs4kkSW0c2UXi2Q1HzMWLu1cFMFBKNe6MAtUbya6XCxzBhLtnPYmvhwQFokjdluJ1kByEXavhXrkeKrTpi/Obl+D+6QOSJa5vkhE6uvqSeMW/JyvsYmlkAn1DY+QoXgGV2v8hOR/0PDAZj9S53AnT4B5eOF4S4BjWscuZL0GIgVVU3bp1Q8GCBbFo0SJpAKOupAQQnBjm6DVacixYTsZ8FD0jE6nq+BDwXDwnfTael2dg3JveGIafmI8xtV4BtaoECBA8qtYXN/etw9vEO+DZcZCEVq7tWY8qXYaKV4CeJs5FxvqZm8FEUQKEQrWaSeiHSYscJ+Ps9AzxnRAg0HDRy3Dv1H4JLdFwKSsB3vn7pVhlQV0yrGGU0Ry2Lm7w6jkS907sw8WtyyR3hSiSrn56U5iUyITXwrWbo2STzhKbV5Y58ntj3LtChQrYunUrlixZonbcnWNgDkLwyycgoGaODqskmGi74vcmEuJLCSC0mroW7EHAb5SVBx5V6qN0867YOWWg5NykBBDEm9RtGA4uGIf7Zw7i65fPMDQxkyoTJigzKZK9PJgEeeSviQjyeyR60zcyljwfZWUSgW/dAVMk1Pfo4jEJN4Z/oGcn5Zp4zjtWsnAtqTd4Ol7cuoQzaxfIBoBVHQSCfP8MOwQ+vieAunj9Nt8BBHZSpP6PHTsm30x6ys8JEP6uWshUqyJCb/rKxDPM5ijxUN9eY+IAgl4mS9i3qCM7fHoQWMYYtPu4JCoa53aGZaWS0DbUh0leFzH6n569Qmx4BF75KHYXFHoY7JvUQMaCboh8GYCogCC83noQetYWcGjtLd0VYz+GSLkjj/VfuR1hdx/Jh6QuQNDT00W7dgk9CLw34/J0v7O88PnzN+BxNLZLl+7DkSPX/gYI7ujf/694HoS2f4cYzkmFA5MSmaRIlzsNu4uLg2T3xw8xrFlzGMuWDYjzIDAHgYDg6NFrkiTInAB//3dSZslKCDs7S7RsqXAvpiQECMyD4PhZusl8C4ZIJkxYJ8a8YcOyqFWrJJ49C8Dnz1+ROXMm2NtbYMeOcwIQWInBagvmMTBRk7kFrHQgONiw4bgAFiYlFi6cU5IqmedAEMWwyp9/rpS/K2XAgAGwtrbGpEmTEhhf7oCYgMeFhElEpjaOsLDLLPFPumTpsqWLk8l7Xz7HwDaHmyQCnlg+XRYvlkExLmtun1my3SlWWZwkLswqBUqukpVlp8fKhsQLlCzKOjqoV6+eVFqwVnnBggV4//59SuqN+50AwcAkoyxUdPtzx/Ty7jVsG9dLjFzpZl3hVqGmLCQZMujAKquzlEix8Qpj8va58snCb2hqKQsc3ecWDlkENF3ZtUZi5eXb9kWWvAUlMY+xTyZ5sQSQbnZ6L5IT5hTkr+ItLnS6e+1zukmsnxniz29dljBFySadxGPw/OZF2dXzGC6G6wZ/q2LInDkzevToIQlX06dPx+HD6rvMGYvv7LMPCg/CZhluFx96EBQhBu7mi9RthcK1miHo6UMJETG8FB0RjqNLpkhMv87AqchV0lPAYNjb16jRZww+BgViea+Gar0rAoRCNZrg9ZN7knxHg86qjS1jukuFTD7PepKcSR2zXNYuRx4YmVnh7sm9AhD4Xpgnkb1gKQQ+ui0VNZmy5ZD8mH2zRggIK1S7heRTMFeE15RqEB1dHFwwVspqkxO65x3dCqFEg/aSjOuYx0PeMcMdTK67uH0FsrgVEQ8b4/5M7qMrnt/A+qHt4wACv7NOnTqhTJkyWLNmDdauXZsqgEAPAsN5BJA0tsyfYZhF6bXgMzSfuELyNOb99r0HgTkHNX8fL/OH85lJmgyPsTkXgV98URViYI4Ok4odchcQkM/8Hiam0tPDREduUrmJIGhmsir1Y5DRXNaPo0sm4/0rRSKlsWUmNBnzlyQwBr98KiW1zFlIEVAzf8yjuCSA0ovE6hYmAlMf9FaypJQVGJxP9JBwHWKppZVjdvEKsvJEKazgatGihVRw3bihqMBIL/lpAQKrD8yK5oeOuSmiAt7gS2S09DT4eOFGXIIIX6JBFjsYZnOAlo6uGHMab4IBdkpkl0VkyJBAV19jYvD+dMKWlAQaRjmzI4O+Hj6HhSP01gNJTjTO4wKDzLbQNjIUb0bE4+f49Ph5XJ8FutdcXV2l3eWHDx+k1SUrFOILkwaZcc+YemKhmy5XLke4umaVBD7u4JmTwDwBuuNz5nSEnZ2FVDDwN5YQFiqUE0+fBohBpvEsVSovsmWzkx4Hjx/7S6Iiz7179zny5s2KyMgY+feyZd3lvODgUMldePw4QAwu+yewFDFLFhs5l4mU/v5v1UpQ5PMQIPA8H599yJzZWkDG5csPpWqBwI59HphzwERElleyBwR7LjAfwddXkT+QI4e95C5QHyYmBlLSuHHjCRw4cCnuGm5uThJOMTIyECBCEHLz5pM4DwKvw3fBJMXNmzdLq2WlcFHNVbqKfGBcAFiayAoDegfYy4BuXMc8BWDJfglaWvLxM1OZ5VWSjKSlJb8xmY1uaLrHPwS8lJ2O0oPAbHx6KWi0pXY9kTC8wBBIpUqVpGZ5586diI6OVvs7JkCgsT23cTHM7TIj9N0bPLl0UkAPx0dj7lK0vCxy7IHAfAPugphkRVc2xcHVHZmyu8rxJhbWkpTI0jlWctBw8BmY5GidNYfsSrnwEnAwIY47rOSEcX4aG5ZTJhb2lKDnhTslLrq2zq6yQ2LJJpO+nlw+Ld4bSt68edGvXz9572PHjsWzZ0mHlRLfh2POXbqquJ6VLWsZMuLzsiKAwtARDSArPpiRHhb8Wp7R/951MVS2LnlhncUZL25fkeS5bPmLiREm2FFHlEmKXOCpx9jISDy9fg6vH91RbHRMLcRrQIDHjHnOMSYushfCizuKdYnvgQlpOnp6kj/B98Sd+6GF4xTPkNEczEFhOIDuac4FgpuXd67G9cVIcqzs92CfVYxTYon48E66+cXGRMv9GXLiRoiGj+Pwu/6tW2DWrFnRp08fWfsmTpyYasPEvJ6Xd65I5j5BGucaGzbFb+XsXKSc7Njvndyn8nGyeZSQOc0SXXrRqCNlC+L4J/Red0a++yXd6yW4DkExPTz8pqU3SJC/hNeU74Gg1y5HXpkT3BAwN+nV3WsSdqTLn8J3R6DL1uKcy9ThwwtHv9moZCYNezuwkoQb3/jCEuBbh7ZJIq+Dqwey5i8qVfZcazhnOV+VYUATExMBBk+fPpXwampCcurM558WIMjgM2QQUCBVC8l1HFPnSdN4jJaujrxA5hwwUe2fEIYW6D348uWLAIHUiIKgSFcMJXfVaRXmRLDigKEKNiDieH7/vb640VUJAcmuXeekVJPu/tatJ4knhOOI38CI5yqfjwmKypCA8poEPcWKueLq1UeIioqGt3cZKXNkmeTduwqULh+ilpZcn9eijhJfh8cQsJUtWxZhYQQplxOANSYgaevpSVxXFbqn0aeBYcoXXeJJHcP6aSZycoFQt5SJY6MbcMaMGTI2hhceP1YvhKN8fgIE7iKW924khkPVc3CnzJAA3ZzcWcUXGpJcpTwlbs1nK9O8m2TLr+jTJK6s7G9FSyiD+uJOjMeybJGx7wzaioYuiYXVHIypqyda0DM0lLgvF8L4wndcunRp0BO0YcMGAXrpveAp78fFl6EDggDqMiUhyGQpHhtlqZavYAtchm3osZrRuLgAEwl7Jn5OzjV9A/l3VfFvls29uH1ZjB7fUcW2/XBg/pjvPFMcP3e3imeIEcCQv2oDMSJJCXe3vK46Qpc6RRWfRr58+fDnn39Kvg9bm4eGKhoUqSsDdt7C3RO7pWeAPENUZKq+p7j3qKOraKYUHZnAKNPg02NEINZ49EKpVmAZaGLhnKMeaehVfTc8nr+x/JPvKzlukfjXrjNgipynSri+sGyTgE4d4fjkPUR/36DPxsYGNWvWFE/bixdJdAJW5yZJHPNzA4QfeDDNqT+mAXZAXLlyoHg/VAkbOTHPgSESAoRWrSam6YYMT0yZ0km8EARINNDbt58BwyJhYanvK84PnpIa452mgafyJCZ0sR0qgcuRI0dSPT4lQFjWs34q76w43DZHXrBcM043X79KY5rzm5YgNjp5PdMNyj4RNKqqhGBpTouyaRpX/JMYhmHbWOYfMPeApFs/i7C7YZMxi2HhmD3JIdEA5SnnhTxlq2N6o2JqAQ9VF+u76aJ4Oui94uaEO+gDc0d91+Ex8blMumMjKuY4JCWr+7eUnJIfEX5jefLkQa1atbBr1y7Jv0qtKAECw1fpLlpaioqVLkMEpNEjsqJ3IwlB/K/k900XxdOoSpgozWTipDwjqRkj3wX/U6yd6S8agJD+Ov1/dcUiRXLFdYdMy4NzcrN8k6EW/pnlmkw+/BFvSFrG8bOfwyRIxj+fXUtjV0YtLTjkyg8bZ1dJoHr9+J4kOybe3f7sevjZx8dYOF3W907sTTUIVD4bK1AYrmLlDZsGKVr4hv/sj56q8eUuW008GWxG9k+IVdYccHTNL54+hguV7cT/iXv9ytfUAIRf+e1qnk2jAY0GNBrQaECjgTRqQAMQ0qg4zWkaDWg0oNGARgMaDfzKGtAAhF/57WqeTaMBjQY0GtBoQKOBNGpAAxDSqDjNaRoNaDSg0YBGAxoN/Moa0ACEX/nt/gvPxkTDn62C4F9Qg+aWGg1oNKDRwH9eA78sQGC9OjvPsWzuy5dY6cGvTr3zz/RGWffPxkDKUkOWFv5Idj+5F3R0tKXDIfkRvnxJuR2ouvpgkyN2wWO9/5MnT+Lq13V1tKHL3gUxn6UUx9hAD5+/fMGn6LT3bFB3TOoep6+rA10SE0VFSyWFkZ4OYj9/QVRsCu2F1b3Bf+w4clKwtvxTSNK05tKXwshEnkzazv5LfUr+Y6pN1XBZ/87/WMGQXGc+duLj+2Ijrf8aOOfzcfwcuzrdB1OlwP/Iwew1Q1vFiqKkOB/+rUf5ZQFCVvdi0tecTWXC3r2V3us/Wv/7v35JpDWuVq0ozM2NpTHQ5s2n4OubttrwYsVyo0SJvDA1NcSjR6+wf/9lfPjwjZPiR5+NrVfZQ9/f3x/r1q1DeHg4tDNowSOrHXI7ZMKJe88QHBaB38oVgP/7UOy6mjZyqB8dp6rzy+XJDlc7Kyw7cQ2GerqoXzQPHgYG4+LjV4j9h+qL/4nnSK9rspUvux2ytW9SwsYxHtUaCugjQc5/DXynl67+qeuwK1+2AiVBdsWbBzcLf0ZS4l7FG1aOTji38a84joB/alzpfd3MboWFB4T03Gwhnp5CHVrYZ0PUp7B0v3Z6jpNNuEo17YLXT31x91hCHokfvY9seMytpAlcaFBgqsuaf1mAYJ3VBdkLlpTab7aqJEvd0zSybf3oS0rr+WxP7OHhjPz5nVGpUkGMH79WiJVSK/b2lpg4saPwNZw/fw8vXwYJe6OSPjm110t8PCdhuXLl0KRJEyENYctpiq62NhoUzwtPN2fMPXgBz4LeY1mX+vB9FYQhG9Tvsf+j40vp/G5Vi6GymzOaztkEC2NDTGvphWN3nmD16ZuI+oe6Z6Y0pn/z92o9/xSmu0UdvJIcBsmWSCpEMh9+WylxNfybz/NfvDe7YrpX9kbOEhVxbMlUaQ+elFTtNgKZ3Qpi4/BO0lL4vyTkMCHJ0rbxfaTdcnoK21qT3pvkS+QC+VmFrbNr/zFZ2lwrydbSa6xsbsZ5RPKtcxsWpXp+/DIAwSCjGXT1jRD27nWClpt5ytWAZ8cB/wmAwBAAQwpkP4zvKqxQoQAGD26aZoBQokQeDBvWAosX78XevRfEGxE/vEADz26IvGd4ePJd9UxNjSRMQe+D8hpkKhw2bJjsJtkPPCQkJE0AQU9HG9oZMuATW2snEoINYwNdhH6KwuckQiNmhvoIjYzGlyTc3Qx1MJwQHhWTQL//S4BAtjhtbR3Z6ZGEJb7QTWxibYtPH94hWgU5El2RbB9LYhllL/jEeuKuiWRJ5GMQHok0CHv18z5KnomEl9BCRqtM8q5JgJU2gEDmR2NpRUvX8vfPoAN2LowI+SCEPv+E8N4mltbCB6FKhyRQYofJyDC2EP4+FEeSnsiQD0nuyMhdQEIgAicSX6VWlDs/Go8Pr19+1+KXAIIcBJ9C3qNKl2H/GEDgPb58jk22URONkKmNvexQE7cDZttn6pEhXlVimNEMGa3thZNCVSth6pG8KcnNZ31jUwnFRHwMTjDnybXQfOJyPLp0Ekf+Uo98TtUY2XKaZEzJgS92TSRpFsMEiUNznAecb3xXqoTPaOmYTXQUGvz9fJRrW1gL6VdSjc14Dd6fBGTx1wa2nCaRm0MeDyEDU7fNtnKcPyVAoEJbTl2L+6f2CbUlhZzbrqWqYHnvxjLhuICVad5dCGnIZJajcBl8xVc8PHcER3ymIPy9Akn/WwAhUyYzoTL283uDFSsOKp6hrLuwG86evV0IlMh/0KBBOSFLCgkJh7u7MwwMdPHokb9wEYSGKhj00goQeN0uXWrB1tYSBB9sXUweg+vXH2HJkn1CemRvb4WBA5sga1YbCSOTKnrevO0ICVHcm4CgQ4caAgbMzIxQoICL/Pnw4atCycwxskUuwwoHDx6Ej49PnPFVx4NQxT0HvIvkxfnHL1Axr5Nc++CtR9h15T4iomNgpK+LpiXdUTJnFjHuzA244ReIv45eistjcLKxQI+qxZHJ1BiBH0IRHPZJ8hyWHr+Kd2GfYKCrgxoFc8ErvwsM9BQgY+Hhi7j1QuHS/KcBAsmVWk9fj4CHt2HnkldiruyOt3Vsb2H0oxEo1qAtPKo2AOP/7N/v/+AWDs0fK6RLFHIp1B8+B3bOeYTYiKQ0Cqa7SvI7XYgFazRFkTqtYGRugaiIcJzf+JcwNaob2yUbY6X2A+R6kRGhWNiuaoL1zLV0VXj1/FN4BEgSxXsG3L+ltgeB/emNLTKB3A1k4yPXw9n1i3B9/yYxDgRIecrXEJ4IftefY2NxYctSXNq2XFrn2uV0E5bF+IscDVjVbsNlvAfnjkrWDlP3lToMRGRYiJDk6BoYiJ5J58vOkpQyLXugcM2mQvv79ctXYWXcNXUQPr5+Kb/zXbKdsVPBUqJXEvOQEvjEshl4cvW0HJO3Qi14dhgAfWMTAQdn1s7Hld1r1QZs+avUF7psComnyB6o9CDQWJBgqFKHAbCwzyLkQO8DX0hr5vTyIFTpOkw8SCSBcsztIWyX57cswfW9G+LADonLyDrpf/+GdH0k2yON+L45I4WtM4t7EXh1/xNmtg7yHkkIdnLVrDhA5lSoDOoNmibPyHV7RZ/GIKmXUmgDyH2Rr2IdoVkmkdKplbNx/+yhOD2Spr1q16FCMEa9kOhp5+Q/hLOE+iOzqJGpucwtAnJ5F+sW4Nre9cnOE/7okNsD1XuPEbBumdlJcgT879/C3pnDEpCxtZm9GbFRUULdnbN4RWntfGX3OhxfOhWmmeyEKZZeEgL3kLevsWvKgDg6axKrtZi0UngeKBe3LZfxKYXfAzuoku7bzMZeuGWu79uAE8tnxH3TOvqG8Oz4h1Bla+voCZAjoRufsVi9NijeqL2sN9o6OgJ2Sbr26t4NbBzZKUUd8ICfEiBwMSRt660jO3H4bwYzLgLunnUxu3lZWViIPMnXXbB6E4S9D8LlnatlZ0ZKzgtblsRNtrQABDs7O7Ru3Vr6jauSuXPnxrnRk9IywwP9+zcWBsU5c7bLYVWqFBLq4tGjV0suAcmR2rSpiqZNKwqd85EjV4VN0cMjB2bO3IKgIMXuKq0AIVMmcxQowBBFDlSpUhiHD1/BgwcvERj4HrduPUVsbCyWLfsD+vp62L37HExNjVGxYgGcOnUbM2Yo6HJJv9ynTwOULu0mTJC7dp2FoaGCxGXbttPCHJkrVy6MGTNGSFsOHDjwbYJnyIBiORyRP6sd9t94iDcfw9DTqwSeB3/E+rMKzve6hXOjWen8iIiKwZaLd+CUyQKlXbNi9v5zOP/oJUwNDdC+fCG8DQuH39uPsDE1RsPibjj78Dlm7TsPU0N9DK5XDg7mGbHh7C3YWWRE1fwuePrmPabvOYOg0Ai5R6MS+XD6vh8eB75DRTcnZM1kjsHrDuFF8Ed4ebjALbMtZu0/B2N9PbQu64E7L4Nw0veZAJIfFassziDlLNu93jq8Qz7S/FXr48mVM9g6rhfMMtnLYsgFgKx//KBLNu4oLIpckLiTbjZhKTLnKYire9cLs557pTqyqxhdKbssPjQqXNgfXTwurHvORctK/PrwXxNw5+gutR6BZD80Ph5ejYT5cmLNvHHn2bm4ocnYxbLIXtq+EtkLlIBrqcq4fWSnAIQmDevD09Pzu/vQK3XmzBkJPTUZ6wPXkp54fOU0nlw5jdxlqsriuGV0D7x9/lhi7s3GLYHfjQt4ePEYsuYrKtwGe2cMw+cvsSjfuo8c6//gJnT1SHYULUycpP19cP6IGJDkhPog5TXdrec3L0VUeAiKebfB02tnhSmRdLuNRy0UcPXizlUYmJgIHS8NzKL21QQQlf/td8lturhthbzPCm36IDI0RFgxyUyYu6wXGo6Yh2fXzuLe6QNwKlgSOYtXwvrhHfD0yhm13oN19lzIUaQssrkXA0M5nAOkAabQqHgPnSU7ZtKKs7Vz3nLV8dL3eroBhLoDpwl19xu/h7i2Z51QTxNQUfdkQKVJdypUCs0nrMDnz7HClBn48I5QjBMIBL96Cu9BM8STdXrtfNkdF6rZFOc2+eDsuoWyfmfMZAfXklWEAZQ68+laJw4E0SNRsV1/FKrZDDcObMbbF49ko0e7sHfmUCE54jHt5m2HoXFG3D62S8AJ5+O9Uwdw+8gOoU8mICxar7VQpPueOiC771f3ruJr2HsMGjQIlpaWKt/HnDlz8DZGG43+XCD3ubB1GWIiI1GuZQ/4njmI3dMGxXk7eq07A1NrW6GBJxEawbO+iSkOzP1TNrC8//UDm4VKnpvckDcBWDu4rbCIcu67Vawj4I7z8OahrTjqMzluTNQ5vxmCWDJd8hskpfuJFbMk34TrQK1+E+HuWUd0wDlr75JXAPDptfNg6egkeuBcMrPLLN8qvRsEMxyrOvKfBwhuFWpj3ZC2SdKxpgUgmJuby2KXJYtq0pPdu3fj0aNHyeo3NQChVq0SAiKOHr0urtvEpYJpBQjKAZYrl1+8BFOmbMTx49/4whl6GDu2LVatOixeDoYOBg5sKhTSdeoMl1CEEiDQG9GjxxyhmU4sZODr2rUrFixYIMYgNaIECAsPXcTxe88EAHSpXFQqCmbvPy8G2kBHB2bGBjDS05WKjnYVCkky4ZD1h1Agmx06VCqCVaeuSyKkpYkh2pYvBOuMRgIQ3oZGYHGnengZ/BEbz9+WygQLYwMMrF0W2y7fw9ozqc/pSM3z8VgChG7LDuPuyX3YOran7IDqD50tu+VpDYqIm50Li7GZFRShMgMUrNFE2PlofGmg2s/bLuQuOyb1E+PAmGW+irUxprKz0OXSSNItf5ZxxrevpcKAi8fjSydwcP4Yle7bpJ6jwYi5cClWEZNqucUdwp11mWZdsbJfc/F+2OfKj5q/j8Vbv0cyxtIliqFAgQIqAcLdu3eFfpuLHQHIzCYlhJa4gFcjVOkyFGsG/SbXbDpuKSwcsuDkytn4EPBciIpIkETwwF24V69R2D/nTwT5PUSpxp1w98QeAVMMdXDRVhivpEUJEHg+d3LcdRar30Y8Lzsn9ReaXwnzWNlIeIDGoVj9tqLn6Y2KwtjcGrX7T5SxHls2XZ6h/G995DkEIJw9jI4Ld4kR3za+t7iEDc2YqzES7wNeYM2AVmpPHTIcFqnbGnnKeiUACKSKJgA5uGCsGE8aiV7rTouBTC8PAgGCe+W6+KtTTQEmjnkKoubv4/DwwjGcWjVb5pIAhIkrcGnbCpxYOSsBzXSBGk3g2WEg9kwfDN/TB2Re0nND+usdk/onYA9lfLxK16HiQVB6Sexz5RMgx+Tycxv+wueYKGRyyoWK7f7AqdWzJeE8T/maMqZjS6fKGCjCbGtsGhe2SirEYGZmhoYNGyJjRla5fS8koIoxshSAcOPAFpxcPVu8KErPyp4ZQ8VzQiFAoEds55Q/hCJcOQ6Co2YTlgnIp4eKXj8yc1brNhwHF44TOmelMImw5eRVAu7jAIKWFmr1nSB04/QqkM6bUmfQNES8f4t1Q9oJdXv9YbPgf/+mgDeFkC3VGDFREbLO/JIhhtR4EKwyO2PLmB5JxofSAhAUFMr6YGxdlURGRiagElZ1TGoAAo3vjBlbhKRIlfxTAKFmzeL4/feGGDFiOc6evSO3btWqMpo390SbNpMlBKEECAYGehg+fDlI2ZxYihYtit9//x0LFy7EyZMn1V4EeaASIPRYtgtvQz9J5UPXysWQ1doMQzcegbaWFhiGcM9iCx3tDJJfkMXSDJ9iYjFy0xGUcs2KFqXzo/eKvRJaYFijcYl8yJfFRgACyylXdmuAwI9hePVOkRtBIRC59swfy09eT9V403IwAUIXn/1i+MigSKHhqdptGJb3aiQGj7uo3GWqiVuau25Taztxi3L3zBhsg2GzcWDBWFzZuVrO9+w4EMUbtMN4L1eQV77pOB+wtPdD4AsFCyBLpzKaCXA+uWo2Ij4Eqz10VQCBi1W+yvUwsYbCq2Zm4wCvXqMRFRYiAEHrSyx0dVXTQdNTRdpmAgQSGSlDF3TFV+85CuuHdcCre9dAFkOCgjdPvrENcvFk8tqp1XNRufNgcePTQNGFzNBE0NP7KOrdBhuGtkfwy6fJPqMSINw5vhvnNy4WSmzX0lVQZ8BUbBvXB48uHoN7lfpilA1NzQSsm1rZin7nt6kMQzNz1A7xroIAACAASURBVB82BydXzsKN/ZslhyRniUqo0XuMAIRnNy6g+/IjAuACHig8ZFywjS0YGw7F8l4N1X4HKgGClhaK1G4pu9K9s4aJp4XScOR8yQFIT4DAcNLkOu5yfXoAqvcaLS7y/XNGSoybAKHx6MUCzO4cS+ihokucce+F7aqIu1+AmHcblGjYHuuHdpCwjVJUAQSXYhVQq98Eickr4v5fBQhxPpMmmd8Ad+f0wm0e1U2MsCpJCiBwfSe7qpL5NfG5nz59AqsrGo5cgMOLxuHmIXqAv4LVIuVa9cK+2SPw5PIpOY0A4YO/H1YPaJUglMfwR4cFO2Wnf/rvMDntWq+1pwXsKtcBXkMVQODY2s/fATNbRwHhzAOhMKTGcMuBeaNhnzMfavQaLevCnaM7VerglwQIdLl0WXIAd47tlt0PhRnTbpVqY3azMglCDFTY3hlDEZFEAgi52bmYpqaKgSV7Xl5eyJo1q0qlb9++HdwVJSesHPjjD4YYAsU7QBbiqlWL4Lffqn4XYsiXz0lCCjxWlVSo4IHBg5thwoR1CTwA6q42SXkQvgGEZTh7VvE8LVtWRosW3wME9k2YPn2Lyj4M5CSfN28eNm7ciE2bNqk7LDkuDiAs3YW3YZ+QQUsLXasUQ7a/AYKrvSV6ViuJS49f4epTf/EANCruBgsTQ4zcdBQlcmZGi9Ie+H3VPvEWMNGxSYl8yJtZARAiomOxrEs9nLjnh+N3ExqQjxGReBkPNKgz8LQ0glIChBMrZ+O0EiB4t0HV7sMlp4bXpEfgxa1L4vpjLXS+SrXEpch5a2KRCQ1HzJWdhzIbu3KnwbL7jQ8QGCO9dXi7uN6Vwhg1DWdqyhBVAYSafSdIiE8ZdkgMEDwrlEOhQoVUqvD27dvYuXOnAATuzpd0rSPH5a1QU+LYG4d3xMu710CK3Pev/HB8xfQE16E+GJ9mvFlbV1/isbHR0TDIaCqLJ/ORSBsc9i75MrmkAcI02fG/e/kUjCnTuF/bs14AGkvw6G5f2N4L+iYZxfND9y1LOwnEcpWqguo9/xSA4Hf9ArqtOCKJZgxZxJfPMTF4cfuyOlNMjkkaILRQAISZw+F382+AMGI+TG2/BwhpmavyTQ6cJsBpcp38MhYauxq9RyP07RvsmzMiDiDUHzY3zksQ/8HobSrdNB5A0FJ4alILEK7v3wy/G+cTJPN+fO0v+SD03OSv2gCb/+wmVQqqJCmAYGVlhebNmyfpQdi2bRvCdUwEePE98puiEMyUa91Lyn+fXPkbIKw9LR6utYN+SzAEVQCBVRW9152RsItyHeBJyQEEhvTOrleEZZQSHRGBIL8HkmMhAGH+mO9AmvLYXxIgEC32XHMSrx/dld0FFwC6nHIUKYdZTUslAAj8jR9LUhmiTKZpMHyOIC51+bcZYqhQoQIcHR1VTrz9+/fj8WNF8lhSYmGRUdz6TAwcO3Y1DA310bx5JXh6FvwOILi5ZcesWVuTBAiFC+fEhAkdMHPmVqlCSK0kBRBKl86HUaNaY/nyg5JwyGZHgwY1lWTKWrWGJggxsCSS91fVqIk7x0WLFuH69etgfkZquMmVAGH+wYsS82eiYdfKRSUnYeb+c6iczxm1CuWWpMLbL96Ih2Beu1pS6UCAkNPOCp08i2DzhTs4cPORhBY6VCwMMyODuBDD0s7euOYXgIWHLyE6XvMjgjZ1+/uYmpqKWzJ//vzYt28fDh8+nKIXSfme4ocY6O3iTRlHzlexFqbWL4ys+Yuhdr9JEj6gG5dubu8hMyUJjQCBIYiOC/fgyeWT2PRnV4ldMuGP3rExnk7gQkgDHhv9CQfmjUHoWyXQ1OIGVv2H/HvAqgBC2ZY9UbpZFyzv0wSBD29D4QYeh+Dnj2WMJYsVgbu7YscZX+gNuX//Po4cOZIiQGg+Ybl4ULZP7JfADU1vCBPZmIOQv6q3eFc2j+khJWwGxqaSAMhdWkqUyEqAwH4oBBRE7cW8f0OROi3lntyYMAdh76wRuLp7rYQYuHbQWC5oq0jYrNV3vBiEw4snIjL0Izw7D0a+CrUEIDD+3nnxfugZZ8RfHasnqNDgLjo1VSVJhxhKocGI+Tg0f4zspgkCem84L3Hl+B4Ehkf79euHwMBAAe0prVfx35kyxLCgvReCnz+ShD2685k3wgQ5ZYiBYGn39CG4f0aRhK2UgjWbSpLmzikDRCdGphao1HGAJHMmfreqQwzucj/SNB9bMuVbeIwfLOXrV8m5YcLs0SVTEpQw6ujqIzYmSg6jx6HV1DUIevoA2yf2jRsfQwx169ZNEiDw+441tpIQA/MH2KOBIQZ6sJwLl8GeGcPE40WhR4Agde3gNgl0YJrJHs0nrRBQyMRazpV8leqgWo+RAjpuHtwad3xSAKF2/0mwzuYiOo7vVZPv4esX8XLUHzITL+5exbZxveOux/WDHgd+e5zDJRq1l3wP6uDdq2epMh8/ZQ4Cn6Dt7C2wdckrMS8ugETylJlNSqYKIDC7ttPivXj3yg+PLhyTZBq6ElMSGsukXFA0gCl1LGOsnB4Ehgd8fPbCxMQQ3t6lERERlWqAYGSkj02bRkhC4IEDl+Hn9xpXrz7Cp0+KDyElSQogaGtnwJo1Q6SaYvPmkzA3N5FkxnPn7kq+AkUZYkgOIFBX7dq1g6urK5jg8/y5+s2clACBBn/tmRvIYWuFCnmcMOfAOZx9+BJujpkwzLs8Tvr64dqzAFTK54yizo7we/tBAEJUTCyG1CsPVwcrbLl4D7ZmxiifJzseBATHJSnWK5IHjUq44ZTvM6mAMDcyQGnXbDh485FcVx1hQhPzLJhvsWbNGmzYsEGSPNWR+EmKjGny42Xc+9nN89g8squ4a+sNmgG/W5dw//R+SQpjDgIBMo0vY4yMOzNL+u7xPdDKoCU7V8bJJUkxgzY8vBqiWveRkuXNeU7PGncY/r7XJcSQkrBZSzaPEjC2tEbh2s1hk91VMtJpDOjCZVyz6ZjFiPoULknAzEKnd+724e0yxs/RkUl+L/xW+M2k5EFgZQDjts+un8PdE3sl6dilREVxM7NEK3c5L3h1HymhlDkty6Fmn7FSMUBgpdzlJfecSoBg65wbJ7nofwpHiUYd8PzGBYnpMwmxx8rjeHnvGq7sXIMs7kUl/4CghSEGhm/KtuiBkk064/r+jYj4+AFlmnURj4EySZF5JQQVzIegblhhlad8dfEuxN81JjdOGk2CQM4Dexc3ebaQ4EC55tfPsVLNQiNAI0MjwcQ1jjk+QGDi8MyZM+Hn5yfePXpx1JW4JMVnDyQh1blIWTgXKo2NIzrF5XlwziYFENiDpu6gaVKJwvXbwiE7inq3xvnNS8S9Hr8MTxVAoFEjwChcu4VUBNBDYG7rKPP54rZlknBIwNXF54C8MwIlVrawWuDp1dMyZqW0nLpGqiwYomIyOxMcGc9PaX3nxpIAge/v/GYfCXewcuTBmYPYOXVgXNlpUgCB769Mi54oUqc5ru7ZIICX54e88Zf8AeaMKEVlDgIgiaEEGfSuMd9GC1pgDgqTnLeO6y3fW73B0yXRkTpg9QgTM+ldo5eLOTKUAtUbi6eOyZus1uE8fnj+qFrT4acFCA65C0gZDCcAlUtXCxfEVf0UWcX0HJRs3EnqqU+smCmZm6qE9cK5y3ihZKMOcj5duIndf2ppKg0H5cmTFV261IadnSWCgz/i2bPXsLExx/z5O/HkSYAY5nr1yiBXrsySJMgGRklJ4cK50L69F4yNDaVMccWKQ3inpnu8aFFXdOxYAz4++3Dx4rf4Lu+VPbstfv+9AWxsLGQ3fe+en4yPVRUUljkyLEJgwzHGJtF+OGfOnBgwYICEGbhbVNeLoAQIx+88RUEnexkDPQk7r/giLDI6rrNh2dzZkUELeP0xDC/ehSBTRmOpdGDfA3tzE0lMdLQyxavgEKlaN9TVwaz956V7I5MbaxVyRbnc2aRUknkMrz+GY8WJa3j85p1ab9bWlnr6Hblz58b06dNx+vRptZ9RQgxLDuD5zUuSva2rpy9Zz0xsYuY8jXOReq1RoFpDKeniXOZCZmxuieMrZsrugd8Bd+wsO6PB5A6Cf55YU5FIyO+BoIJxWe7YuFtlzPj8psVqec7M7bPIjjxT9lwJ9CElbpt9xEhxB1S+TV/pTsqFjkDn5b3rOLliplq1/vQC8pk2/dlN7uFSrDzKtuyFvbOG4/Xju9DR1YNbpTqyq+eiSaEuLmxeKgbZNkceCRcGPrqL48uni8uXOuMuUh33vRIg8Jrc4eno64uxOL58hiQeUorUbSWggQY4/MNb2X06uHpg/dD2UlrK/geMr7sULScLMd38zEPYP3ukJJlRPKo1QqkmHRWtqL9+xafQjzi2bJqUYKsjjF3zfSaWk6vm4M6RHWKwy7bqJWV0rHt/89hXxks9srKCwiRrehAYCiVoJ1BQVwgQ2KCJIatM2Vzk3dJLw7CL0kvD0kIm7R1fNg1Pr36fmMwxVmzbX3pmsDrn6bUzYqSZzR9f6Amo3GVIgiRF/s6afnYXzFXSU0pOOdeCXz7B8aXTpPSTksnJFZXa9YdtjtwCkiPDwyQEwioepdjndJdcH743Jjte2LwEDF2kJMz+bzBinrxzQxMz+UbfPLsvHrrgv0uPeY1W09aKfRKPVCJhSWzZVr3hVLCE9EHgu9k/d5SEEuMLn5VAhvODc1kp/B5cy3qheIO2sklWfA+huLZ3HS5uXS5/p5eEwMO5UBn5LvmuGIbk+4r9u/8Gzy3ZpJPMG84TegC3jOmZkgrk958WIHBwegZGsqAy0UX5sGo91U90EJP7HBys8fLlG0SnI/+As7M9zMyMk3xShjYePkz4MSZ1MD0JLImk8X/3LlRtw5dgkhsbo149hZdnx44dCAtTr42zEiC0mrdZwABzED5+ikrgoeG/mRnpy7U/RkR91wjJysQIMZ8/IzwyWnITfitXUEIJy09cQ2jkNy8L+yGwgoGJix8iUte8hjuysWPH4t69e7Ije/NG/bawBAid/tobF+bi7oK7TjYZUgp3AyZWtjLn2TQmsYdK2qXqG0jLWJ7PBEEH1/yY17pigtdKgGHpkE0WCkW/gK/gjk5pcFXNAYIUZZZ0Sp8OjaqZTWaJA6tqbJPS+er8Tg8B6+cJcpj9zx1TSkKAw+qBpISGjcCMXQcv71otnhgunFzcEzefYTIZNxMhbwO/W3cYhmBclzlP7FfBeHvOYhWxe8YQWXiVwl0wE8wEqL3xl3sw2dHUxiHpb/bdG8nBSKoZTvwT6dHhDp3vWNXxBAf0dm3evFl6lKTk8Yx/bQKE7IVKYVaTUjC3c5Qdf3gqklzj5nQGbVhmzo6YTxGiy/jxPL5jGjTmUxTzbotlvRqodH/zOZnYyvI89mWgzuMLPQn0EtOAc2ecXnNSAMLwueJZIgDinGCVReLmZinNS4YDmGTMxFXOtfjvgXOEwIbVHfSuMaylytvH4/ge8FVLel6oah5GMMpyaYIQ/pfS+2bvFRtnVwEuqoTz9uWdKz83QEhJ+f+ff+/Tpz4KFcqZpFuX/Q7GjFFkvP+vhLE9lg69fv0aMTHqdcCLDxBi0thzgEmLduYmeBMSgUwZjeBiZ4mtF+/h7IPn6cKlQOPNEr42bdqACaqnTp1SO7xA3X8DCKOkRCstwhKpvOVqSMUDF6tsBYrjxv5NOLNuYbKXI5jgDiNHsQpJHvfownGp2/4vS/H67VDEu3WSj0AAxMoDZqETICiTDFP7zK5lqklyJSsr6KZm9QndtaxsSMqLqbwHe12wx0RS4ntyn5SpJkeSpe54J0yYIHOUYJZ5CKmRbwChZGpOS9WxTLJl6IYhEoIclp2mBYSk6qapODg+QEhcpZGKyyR7KEMoXBvYiMk6Sw4cmDdKbdf/j46BIZTqvUeLd0aVsPnTyr5NNADhRxX9b53v6ppF8gOSEjI/3rmTuoSUf+NZWL5YzMURy45fS7JFckrj4jWK5nBERgM9CTncexmEmy9eIzzqWzZ/StdI6XcLCwsw+5mLrbreEeU1adArtO0rMUCWHaZF6PovWL2xeAKY0cy45MNzh6V7XHLChF+6YLnLSkrolWCXx/+yyELrmD3JR2A8lrt+giyWSr66ey3FXZaqi9GtzbwEVnHQ7a1oYnNUrRa2bNCUnJeDcWkmQKam4iSpB6bHKzo6Gs+epX4NyF+tAawzOydwd6f33GDZJBMx2TiIYV8mjqrb8TO9x6LqeiztZJ4QE9uZA/RPCMuU2euE3q2n185Jc62UEm3Taxxck+xd3cWDoUroQWADsZ86xJBeytBc5+fVAHsb6GlrS1vltApDEMwtYA8F8jREx8YmydeQ1nv8yHmKBi4ZxbCz3C0twmvoGip4HOg+JFdD/BBFWq75/+0cLoY6Bgb4HB2tlhtflX7o0maoh7Fc5sso3mn6AdGf4Z3w+diPgvkn/5Twe+Ccpu4YFkjJJf5PjSOp67I7KUNJHJs6IZ+0jI/hRObI0RhHR35SK5SWlvv8yDkagPAj2tOcq9GARgMaDWg0oNHAL6oBDUD4RV+s5rE0GtBoQKMBjQY0GvgRDWgAwo9oT3OuRgMaDWg0oNGARgO/qAY0AOEXfbGax9JoQKMBjQY0GtBo4Ec0oAEIP6I9zbnpqgEdHR0YGxuDZCnMwP5fiomJCXj/Dx8+/C9vq7mXRgMaDWg08NNqQAMQftpXk/qBGRjoomRJN7x48QaPHvknuEC2bLZgc6UzZ+6oZGRM/d3S9wxmNBcpUgSNGzfG8uXLceeOgl0yPYQ94NmilMJSN1LQJm68xSZP9evXR58+ffDunXrdFdNjbJpraDSg0YBGAz+rBn55gFC/cD3c9b8H34D7P+s7SLdxOTpaY/LkTjhw4BJWrjyU4LqNG5dHkyYV0b37bAQG/m8NoJWVKcqUySftpW/dUk3JS/rVESNGICAgAIsXLxYvQnqJR7WGqNiuv5Qasmsgu7bx//GFTZ5IOMUWymwu87OVXaWXLjTX0WhAowGNBtTVwH8GIOhqK3rof07UdpU7T50MOoj5rLq+fEWHJdh+dSe2Xd2hrk5UHqe8D+//5euX747h+GL+5uxO643IzaCtrY3IyO/d62zZHB0dgy9fyDSQUNjRTVtbS/gUkgII7LpYpEgurF17FCReUiV8Rj09HWFxTMy5wHtwfFFRSdfx6+hogyRVMTGfExjYXLmyCN/DmTO3sWbNEZXG183NDYMHD4aPjw+OH1f0tE+L8BnYmpQtURP3HKjU/g/kKV8Ty3s3/A4g8F6dO3dGyZIlZRwEKhrRaECjAY0G/j9r4KcGCKVdSgrN66foT3DK5CSG+Z6/L+4HPoCuti5y2DjBydoJxvrG+PjpI268uIU3IW9gZmiK/Fnc5d9blmyGmy9u4+bLW3L+2UfnERYZBgdzB2S3zoo7r+7JuZTKeT3x/N1zPAh8KH831DNE2Vyl8SL4JTJltIKNqQ0iY6Jw8ellvA17izI5SyMqJhL6OvrIlNEaIZGhuPDkEkI+qSaOUmXY8+TJImRONLxZs9oIGdOzZ4E4ceKmUCu7uDggT55ssLU1F56Ee/eeg22UlQY8d+4s8PDIIYadhr9Fi8rYufNsnAchZ05HkDSKxptcEEePXhPipfhSrVpRREVFC/jg/Xjfa9ce4fbtZzA01IObmxNy5LAXRsrAwPe4cuVBAi8ECZ2KFcsDOzsLuU9Q0AecPHlLrlm+vAdy5HBAhQoeePo0AJcvP5BnvXHjiYRClELXvouLC8aNG5fAOHPXn7d8TekLzjbDFLcKtQRkkOGMQlBQqFYzhAS9Fp4CdqwjOCB5TsCDW3H3SAkgsPsc779ixQrs3r37//O6oHl2jQY0GtBo4OfupDip0Tgx9q9DghARHQEdbR0EfgjEstMr4ZElPxoW9can6Ei8D3+PnLYuePj6EdZd2AjtDNqo7FYJlsYWKOVSAi/evZT/Yj/HYtOlLXgX/h7lcpWBl3tVLD21Ao/ePJapsKzdYhy8c0iuQSEgmNJ4PAI+Boj3IjjsHSyNLLD7xl5c8buG6U0ni0eD186glQF5HFyx58Y+bL68Ta2ppaurg9atq6BWreJga+TXr9+L98DS0hQjRy6Hra2FMCny70+fBsrfyZK4ePFeaaPMkMLQoS1gYmIgFND29pbImtUWq1cfjgMIJUrkESNNw29tbYauXWd9F2JYu3YI9PR08ebNB4SEhAsoIPPk3Lk7xLA3b15J2B0/fAgTsHL58n25Pv9NX18X/fs3Qr58TnJOZGQUnJzshC6aIYVWrarAxcURrq6Zha6axxCg7N9/KUEraOYdvHr1SsIMZH9TioV9VrSdsxVHl0yW/vmU9vN3SBdBhgoEIGhro9/my0Jvys52JPcyNLWQFq6nV89RGyDQe7N+/XrhWpg9O2WKZLVesuYgjQY0GtBo4D+qgZ/agzC1yUQY6Rth6+XtuPb8uvBh0/hHRH9C90qdERUbjS1XtuFDxEc4mjugV5Vu2HJ5O475npDdv7ZWBsxpOQP7bh7A3pv7hQY4LCpMjGwF13ICEJacWi7AgrKywxIcuH0Ia86vl7/bmtpiSpPx+PgpBPOOLMTrkDfQ19FDeFQEomKjMLv5dDx764e1F9YjLDIcv1frCUNdQ/TfMEit6UCA0KZNVTRqVB4bNhzHvn0XZXfNnfrHj+Fo2dJTCJmmT9+MV6/eInPmTOjUqSbu3PHDqlWHBFx4eRXF1KkbxbNQvXoxyTPYuPF4HEBgaMLQUB/e3qVRt24pdOkyEwEBCXMQNmwYJmEF0jlfvfoIZHdkqIA780GDmsq91607hpCQCOTP74zu3evAx2cvDh68gqpVC6N//8by++7d58W4M9QRGBiMjx8jkDGjIcgbwXFfuuSLLVtOy70iIiITsFvu3LkT586dA0lm4guZ3NrN246jiyfh2t4N8lPHRbvFQ7C0h/ffAEEH/bdcFo743dMHC1Uywwykdw0J+kZUk5IHQUDismV4+PAhxo8fr9Y71Byk0YBGAxoN/Koa+OkBQnhUOMbumpggx4DufHoXQj6FitGG1lfZwee0ccHJB6ew9NTKuPeVVA5CagDCifunsOSkgn9bKXo6epjZbCrOP7mAlWfWyD+3LdMaRZwKoc/aP5LMiYh/DSVAKFrUFTNmbBEjrxSCgV69vMEQAQ00jSpzABiOIECYPXsbxo9vByMjfbRsOVFc7u7uThg+vKUY6sRJik2bVkSzZhWTBAj377/E2LGrExjtvHmzYfr0LrLzZ3iDwlCGk5O95DIQUAwZ0gwVKhSAt/dIhIerplBWJwdh165dOHnyJKZM+caHzvulBiC88/fD0u71kkwwVAcgMEHSz89PQg2aRMVfddnTPJdGAxoNqKOBnxogTGkyAcFhwZi4Z2qCZ7Gl67/JBMkVeBIUn63sKx6+foxLTy+nCBDKu5ZDdTU9COsvbBIPRGKAMK3pJJx+cBYbLm6Sn1qVaoESOYqh37qBiIxVbSxVAQQa9pkzt4pLXiksSySlM+P7t28/lcQ/pTDcwBwFH59++PQpCm3bKowqyxjHjWsnnojUAIT164dKTsCECQmpiPPly47p07vi+vXHeP78ddz9SVJz6dJ9XLzoi2nTOkvYoWbNoUkaVHUAwqZNm6S0cdSoUQmu8w0gTMa1vQrPTqfFe0E60sQehIcXjmP7hD5JznsBCBVqYnkv1UmK9JisXbsW165dw+TJk9X5fjTHaDSg0YBGA7+sBn56gBAUEoTJ+6YneAHWJlYYVW+4hBK2Xd35XWVD/INXdPDBrut7sfny1gTXKOlSHN6F6koOAksgzYzMMK/lTAlHJA4xrDm3XkIP/xRAcHPLjlmztkqegVKYT9Czp7eEHBhiCA2N+G4Szp7dXfIKOnacLrt3VikwJLBz57lUAYR164YKCJg0SWGAlcIEyAkT2mPVqsPYseOseDESC6sTGNpo23YyXr0Klp9paMH00r8LLnLmzIy+fRvgwoV7WLHikEogwR07Sx1HjhyJ0FCFt4LCHIT2C3bgxPIZuLR9pbCf9V53Bh9f+38HENjfYNfUgUl+rBXb9UP+qg2wpFtdhL0L+u440jnTg7B161asXr36l/3oNQ+m0YBGAxoNqKOB/yRAMNY3wm+lW4GeBCYFvnrvD0N9Q/k7Kw6ev3sR9+w0+n7Bz7Hz+m5ERkfh1Qd/cf+72uVC76o9cODWIalwKJmjOGrk9/ppAAJzBxgS8PQsiA0bTuDuXT8JMTD0wD4Gd+8+R6NG5dCqVWVx9TPsUK1aEVStWgTr1h0VgMAQBqsfjIwM4n6bOHEdgoI+yjWYU0BJCiDY2JiLF0NfXw9btpxCQEAwMmY0khyDBw9e4PnzNwJKxo1rj+PHr0tog4CGSYnXrz+Ev78i18HBwQr9+jVCbGwsVq8+IsfEvz+PqVKlCpo1a4Y5c+bIDl4ppjYOaDNzI/xuXsDVXWthnS0navYdB3/fm6kGCEXqtka51r1wYvl0vHn6ABEfghH88ltfhtq1a6Np06aYOHEibt36Vv2gzoekOUajAY0GNBr41TTwUwOEyY3H423o2+88CMw3cMqUHQ0K15NKA1Y4MCcgJjYGmy5vxc0X3xb32h41UCVfZUTGRMp/ymRDCyNzdCjfFtmts0mS45uQIBTOXgj7bx3A2vOKZDhee2qTCVDbg1CyOUq4FEffdQMkiTEloQFnlQJd+Yk9CDw3c2ZrtGjhKWWMTFpk8iATDpmEuHfvRTHW/fo1FBf/+/eh4MY9c2YbrFlzWHb99EI0a1ZJkgQtLExgYZERL14EISYmBsuXH8S5c3eTBQjM6vfwcJYxmpsbi5eCYCE8/BOWLt0vXgc+Q8OGZVGnTikJdzAUwsTE0aNXwtf3pVyfeQv16pWGt3cZuQa9IUxqZIhCKdy904vARkXr1q2Lq2TQMzJBhbZ94e5ZF+HvghAd9QkZLW0QXpFzQQAAAkFJREFUGvwmHkDQRv8tV+B7aj92TUs6QdTSMTsqtu8Px9wFEBURhidXTuPQgrEyBLZZnjFjhngvRo8ejcjIlENEKb1fze8aDWg0oNHAf1kDPzVAYDJi7JfPUsaYWAgSMhqYwMrk/9o7m5yEoSgKX2wgRekfkWqMhIkzu4COuqiuoKvoulhADQEHBoQQBaMhasy5tZagAwfElnjejPJ4P19Det7l3sOpnNk9rU64e5iqB8HmtTQagkeBc2yL0TDUU2G+Xmi5Iz6PnxX63qUKByQ7tlumViisXvIQNyomsAa8xvXthjA63kOZZdHfNi0xW6bcr+a/SnDDGMgxQIkhSgjhP7A7Bx623a6lXgLwPsCpHeWIRUKg63ZkMPA1WXEyycPmeAAjOoCIg+taWoq42yAoijEgJHCqLxIRt/vC18BxTjQK0O/3NPqANSyX6y/LZqzf9x0tu8Q6xuPZpxAp9wNhA5EB0YEqEux3248B12F3HIahpGkqo1F+sgcj03Ll/OpajGZTFrc38v6WGzE9zko7ae9iIJvnpx8NkIr9NBpH0rZdMTu2jov+EBpoURRJHMeSJIkMh8ND/k5z7SRAAiSwFwK1Fgh72SEHORgCsDsOgkCyLJPptEyK/IsNYF7P89QDgY0ESIAESEDqbZTEG0QCJEACJEACJFANAUYQquHOWUmABEiABEig1gQoEGp9e7g4EiABEiABEqiGAAVCNdw5KwmQAAmQAAnUmsA3gYC/9UWWORsJkAAJkAAJkMD/JfABxCuEGXXSGDUAAAAASUVORK5CYII=;" vertex="1" parent="9">
                    <mxGeometry x="10" y="50" width="520" height="204" as="geometry"/>
                </mxCell>
                <mxCell id="13" style="edgeStyle=orthogonalEdgeStyle;curved=1;orthogonalLoop=1;jettySize=auto;html=1;exitX=0;exitY=0.75;exitDx=0;exitDy=0;entryX=0;entryY=0.5;entryDx=0;entryDy=0;" edge="1" parent="1" source="12" target="3">
                    <mxGeometry relative="1" as="geometry"/>
                </mxCell>
                <mxCell id="15" style="edgeStyle=orthogonalEdgeStyle;curved=1;orthogonalLoop=1;jettySize=auto;html=1;entryX=0;entryY=0.5;entryDx=0;entryDy=0;" edge="1" parent="1" source="14" target="10">
                    <mxGeometry relative="1" as="geometry"/>
                </mxCell>
                <mxCell id="14" value="" style="shape=actor;whiteSpace=wrap;html=1;align=left;" vertex="1" parent="1">
                    <mxGeometry x="40" y="20" width="40" height="60" as="geometry"/>
                </mxCell>
            </root>
        </mxGraphModel>
    </diagram>
</mxfile>